<?xml version="1.0" encoding="UTF-8"?>
<svg width="126px" height="138px" viewBox="0 0 126 138" version="1.1" xmlns="http://www.w3.org/2000/svg" xmlns:xlink="http://www.w3.org/1999/xlink">
    <!-- Generator: Sketch 48.2 (47327) - http://www.bohemiancoding.com/sketch -->
    <title>brain</title>
    <desc>Created with Sketch.</desc>
    <defs></defs>
    <g id="Desktop-HD" stroke="none" stroke-width="1" fill="none" fill-rule="evenodd" transform="translate(-291.000000, -1938.000000)">
        <g id="brain" transform="translate(280.000000, 1933.000000)" fill="#5C00AD">
            <g id="Group-2" stroke-width="1" transform="translate(12.333333, 15.516605)">
                <path d="M29.901158,50.6486197 C30.0696329,50.640885 30.2508003,50.5891386 30.4040875,50.6339129 C30.8539685,50.7652944 31.2989678,50.91988 31.7337696,51.0952732 C31.9998796,51.202688 32.1771416,51.1804642 32.401377,50.9701013 C33.2183662,50.2034914 34.0292803,49.4234819 34.9057184,48.7290991 C37.3337959,46.8051119 40.0942668,45.6679974 43.1897347,45.4402041 C46.8244741,45.1727567 50.1327866,46.2560549 53.264488,48.0053025 C53.9154974,48.3689438 54.5520786,48.7587307 55.2879221,49.1907863 L55.2879221,48.317851 C55.2879221,42.9437378 55.2879221,37.5696246 55.2880306,32.1955114 C55.2880306,31.0797492 55.2874882,31.0824727 54.2107895,30.9052275 C50.5796301,30.3076922 47.0475161,29.3790887 43.7707723,27.6470536 C41.8380304,26.6254154 40.0615048,25.3927606 38.7612216,23.576406 C38.0855865,22.6325509 38.2664284,21.3360574 39.1746522,20.664552 C40.1141193,19.9699513 41.4583382,20.1231208 42.1344073,21.0434449 C42.9136442,22.1043014 43.930677,22.8722186 45.0401376,23.5337016 C47.5564122,25.0340216 50.3131947,25.8714425 53.1538349,26.4681062 C53.8338094,26.6109264 54.5215947,26.7168159 55.2615606,26.8496137 C55.2730598,26.5873954 55.2877051,26.4098234 55.2877051,26.2323603 C55.2886815,21.8397954 55.2906342,17.4472305 55.2837997,13.0546656 C55.2831488,12.6220654 55.2708902,12.1810767 55.1897445,11.75839 C54.6873575,9.14110941 53.3743818,7.06754774 51.1232409,5.59609679 C46.7679542,2.74938879 40.6896242,4.28348018 38.2372464,8.87257261 C37.3808777,10.4750782 36.4879501,10.8944968 34.7305175,10.4803073 C32.1765992,9.87841451 29.7681572,10.2915145 27.5441372,11.6249387 C25.2908266,12.976011 23.7560022,14.8965122 23.3543963,17.5829696 C23.3113283,17.8715514 23.3155592,18.2058878 23.4190524,18.4712654 C23.858953,19.5985753 24.3097019,20.72436 24.8201167,21.8207309 C26.1259325,24.6259328 27.7268234,27.2449565 29.7649027,29.5845493 C31.3139385,31.3628839 33.0873181,32.8563407 35.1466602,34.0059833 C35.7536254,34.3447863 36.117262,34.8722732 36.1795315,35.5729745 C36.3171971,37.1232979 34.8449676,38.3024632 33.393784,37.7430569 C32.6785523,37.4673301 32.0024832,37.0447523 31.3739299,36.5963557 C30.2884441,35.8220111 29.253837,34.9756571 28.1653137,34.1344234 C28.1164961,34.249355 28.0501042,34.3908679 27.99532,34.5368473 C27.2248703,36.5893836 26.4569156,38.6429003 25.6861404,40.6954366 C25.3222868,41.6645658 24.3925833,42.2374806 23.4291414,42.0920458 C21.9480163,41.8686101 21.1966597,40.5716809 21.7292051,39.1428254 C22.7603407,36.3767329 23.7925611,33.6110762 24.8380165,30.8504307 C24.9612538,30.5248094 24.9344583,30.2838344 24.7264955,30.001898 C23.119638,27.8227736 21.7946207,25.4769712 20.6830988,23.0083935 C20.2933176,22.1427572 19.9200259,21.2696041 19.5284005,20.3749898 C19.2083742,20.5056087 18.9224118,20.5801236 18.6806021,20.7277371 C16.7145557,21.9283635 15.1551056,23.520302 14.1116029,25.5953888 C12.3650187,29.068719 11.99509,32.6921683 13.0851321,36.4205268 C13.5099534,37.873349 13.2349478,38.9506555 12.0798156,39.9468017 C10.522752,41.2895947 9.56527674,43.0052889 9.37022342,45.1084822 C9.16464721,47.3264981 9.93520544,49.2405718 11.1323208,51.0281663 C12.1130115,52.4924272 11.7270273,54.03665 10.1491349,54.8441124 C8.52101466,55.6773935 7.18645075,56.8433771 6.15867816,58.3588397 C3.17386339,62.7602287 3.67071778,69.244984 8.19241816,72.9872867 C9.41643739,74.0003187 9.55356052,75.3010608 8.61550378,76.5885123 C7.87456153,77.6055751 7.6099703,78.7729748 7.70087946,79.9868919 C7.93140688,83.0649882 9.38226509,85.439006 11.9560359,87.1313871 C12.4966091,87.4869668 12.9275056,87.9614 12.9636306,88.6591599 C12.9998641,89.358554 12.9686208,90.0623056 13.0219947,90.7599566 C13.2501355,93.7421858 14.5153784,96.2287385 16.7254041,98.2037096 C18.234084,99.5519496 19.9763289,100.40582 22.0726638,100.331632 C22.5597547,100.31442 22.7937536,100.171382 22.8739229,99.636269 C23.3705603,96.3175245 24.5072503,93.2285343 26.2952752,90.3887984 C27.8107896,87.9818807 29.7346358,85.9598476 32.0535789,84.3237885 C33.08504,83.596179 34.3685081,83.7880222 35.046096,84.7300253 C35.772393,85.7400069 35.5758209,86.9959748 34.523531,87.7363302 C32.7833474,88.9603787 31.3590676,90.4835761 30.1686783,92.2382707 C30.0450071,92.4204182 29.9550743,92.625661 29.8077537,92.8970302 C33.9665768,92.8586834 37.9357708,93.3900921 41.712515,94.6032466 C42.2240147,93.6050305 42.6331059,92.6520244 43.1735707,91.7810501 C44.8156853,89.1344646 47.1941858,87.4596229 50.1834484,86.6680658 C51.5097676,86.3168436 52.6549193,86.8961859 52.9846006,87.9996379 C53.3543123,89.2369771 52.5607556,90.3721306 51.2783723,90.7198667 C48.0853777,91.5858298 46.2453892,93.7940412 45.6871332,96.9774823 C45.4725528,98.2010951 45.093403,99.0866673 44.0212607,99.6881244 C43.6938575,99.871797 43.453892,99.9240882 43.0848312,99.7788713 C41.4753701,99.1457127 39.8806628,98.4341175 38.2177194,97.987355 C35.2704399,97.19558 32.2325767,97.0266142 29.1874451,97.052324 C27.8361747,97.0637627 27.8362832,97.0647432 27.4750332,98.3490354 C27.4407524,98.4710481 27.3913924,98.5901194 27.3700212,98.7143108 C27.1235467,100.140334 26.5382783,101.561781 27.2942997,103.004581 C27.4189472,103.242397 27.5630133,103.469754 27.6941699,103.704084 C29.082867,106.18617 31.0876419,108.049696 33.6493711,109.191495 C39.7416954,111.906821 45.5585802,111.412452 50.8550697,107.215216 C53.7285804,104.938155 55.2557025,101.862782 55.2783755,98.148695 C55.314826,92.1768287 55.2882475,86.2045266 55.2869457,80.2323334 C55.2868373,80.0382026 55.2709987,79.8441806 55.2600418,79.5954709 C47.6973322,80.2718786 41.935774,77.4283299 38.0505463,70.8331096 C37.9466191,70.9425941 37.8664498,71.0107905 37.8058075,71.0933669 C36.794416,72.4734173 35.641128,73.7144604 34.300706,74.7815266 C31.6351581,76.9034575 28.6297315,77.8966624 25.2205293,77.5977314 C25.0160379,77.5797563 24.7817136,77.6062287 24.5981595,77.6919644 C22.2338703,78.7950896 20.6569543,80.8462097 20.8679547,83.6822415 C20.9543075,84.8423423 20.1216967,85.8212761 19.0365364,85.9249868 C17.7684729,86.0463459 16.7794289,85.332136 16.6533711,84.0994813 C16.3650219,81.278592 17.189388,78.8010813 19.0583416,76.6746838 C19.256107,76.449614 19.4544148,76.2251978 19.6726836,75.9774686 C17.8546088,74.9988616 16.2073954,73.8944291 14.7605511,72.5054457 C14.2501363,72.0154341 13.9454062,71.4346756 14.0340372,70.7152366 C14.1350353,69.8951372 14.5824212,69.2833308 15.3467959,68.9896289 C16.2110839,68.6575802 16.9713362,68.8850466 17.7090239,69.4700538 C18.8668682,70.3880902 20.0396832,71.3092858 21.3038413,72.0642391 C22.9901087,73.0713883 24.8560248,73.5781767 26.8470223,73.4571444 C29.1703047,73.3159584 31.0327493,72.2137047 32.6560962,70.6189338 C34.0907904,69.2095785 35.1633667,67.5354994 36.1923326,65.8229645 C36.7399572,64.9116824 37.6069573,64.5568652 38.6446019,64.6686375 C39.6723745,64.7792115 40.3563629,65.3580091 40.7457101,66.3165711 C41.0657364,67.1043154 41.3689478,67.9036073 41.7546066,68.6591053 C42.891839,70.8869259 44.4844852,72.7017553 46.6788892,73.9430163 C49.219898,75.380478 51.9579129,75.6913924 54.8095099,75.4037912 C55.1876833,75.3656622 55.2955159,75.2363506 55.2951905,74.8766311 C55.2874882,68.2145217 55.2908511,61.5524123 55.2765313,54.8903029 C55.2760974,54.6868032 55.1676139,54.4152161 55.015737,54.2906978 C52.9192936,52.5708639 50.669129,51.1086729 48.0761566,50.2460869 C45.8446512,49.5038795 43.5922085,49.3256538 41.3158994,50.0316932 C37.8181747,51.1167344 35.3907481,53.5470742 33.3891192,56.4770122 C32.7588301,57.3996241 32.2551413,58.4104772 31.7093608,59.3898467 C31.1918946,60.3184503 30.3610195,60.723053 29.3008104,60.532735 C28.461799,60.382289 27.8057994,59.6871437 27.6680253,58.7871913 C27.5589994,58.0748335 27.8852093,57.477625 28.2048016,56.8874977 C28.5904605,56.1752488 28.9974905,55.4746564 29.4290378,54.7091359 C29.1657484,54.6410484 28.9642946,54.5749219 28.7576335,54.5378824 C27.9826275,54.399093 27.2058857,54.2697813 26.4297948,54.1368747 C27.5868797,52.9741594 28.7440731,51.8113351 29.901158,50.6486197 M6.61495972,52.0401088 C6.19122321,50.8162782 5.68189322,49.6828677 5.40851482,48.4948783 C4.45179892,44.3370789 5.57590485,40.7161352 8.42934611,37.6125469 C8.74004282,37.2746154 8.82639568,36.9911539 8.72431272,36.557791 C7.82769667,32.7529568 8.10226838,29.0154474 9.56017801,25.4028921 C11.3148985,21.0545568 14.2364674,17.8199139 18.7161846,16.1789524 C19.1377515,16.0244757 19.3581899,15.7989701 19.5097414,15.355258 C21.3227175,10.0462909 25.1619482,7.1767055 30.5470687,6.20790315 C31.8542948,5.97281089 33.1685722,5.98283336 34.4859958,6.17227981 C34.658376,6.19700916 34.9307781,6.06083431 35.0383937,5.9124582 C35.9494381,4.65681715 36.9838281,3.52907151 38.23627,2.60787589 C43.2607914,-1.08780058 50.5432881,-0.922211967 55.2969262,3.53146819 C58.1016584,6.15931596 59.5209479,9.39319629 59.5204055,13.2538077 C59.5183443,26.9926517 59.5219243,40.7314957 59.5217073,54.4703397 C59.5215988,67.9197304 59.5231176,81.3691211 59.513788,94.8185118 C59.5124862,96.557737 59.5547947,98.3067667 59.3922865,100.033682 C59.1321431,102.797922 58.0514305,105.277285 56.3908737,107.494429 C54.1055605,110.545509 51.1199864,112.667004 47.5400312,113.859351 C41.8206731,115.764273 36.2207553,115.391699 30.8879238,112.495423 C27.6333106,110.727874 25.090783,108.201667 23.4740536,104.810586 C23.3513587,104.55327 23.2318099,104.411649 22.909614,104.453264 C20.1163811,104.813855 17.6017337,104.006828 15.3341033,102.443868 C11.8122953,100.016469 9.70543741,96.632034 8.929455,92.4199825 C8.81522188,91.7995699 8.7934167,91.1584587 8.7730218,90.5256269 C8.76228194,90.1911815 8.67321699,89.9705782 8.40135737,89.7484498 C6.0112491,87.7959203 4.44149298,85.3228761 3.73342124,82.2967442 C3.24437766,80.2066236 3.40146176,78.1651992 4.06245167,76.1440376 C4.07373395,76.1096126 4.07742239,76.0664724 4.10042089,76.0429414 C4.73146935,75.3973637 4.24437848,74.9577913 3.81326509,74.5226854 C2.42055403,73.1175788 1.50386854,71.4204045 0.867070446,69.5714768 C-0.409020857,65.8663226 -0.270812889,62.1862245 1.24361664,58.5803145 C2.35806754,55.9269748 4.12960295,53.7861972 6.48477953,52.1372832 C6.54325213,52.0963218 6.5993381,52.0518743 6.61495972,52.0401088" id="Fill-1"></path>
                <path d="M93.7127522,50.6486197 C93.8812271,50.640885 94.0623945,50.5891386 94.2156817,50.6339129 C94.6655627,50.7652944 95.110562,50.91988 95.5453638,51.0952732 C95.8114738,51.202688 95.9887358,51.1804642 96.2129712,50.9701013 C97.0299604,50.2034914 97.8408745,49.4234819 98.7173126,48.7290991 C101.14539,46.8051119 103.905861,45.6679974 107.001329,45.4402041 C110.636068,45.1727567 113.944381,46.2560549 117.076082,48.0053025 C117.727092,48.3689438 118.363673,48.7587307 119.099516,49.1907863 L119.099516,48.317851 C119.099516,42.9437378 119.099516,37.5696246 119.099625,32.1955114 C119.099625,31.0797492 119.099082,31.0824727 118.022384,30.9052275 C114.391224,30.3076922 110.85911,29.3790887 107.582366,27.6470536 C105.649625,26.6254154 103.873099,25.3927606 102.572816,23.576406 C101.897181,22.6325509 102.078023,21.3360574 102.986246,20.664552 C103.925713,19.9699513 105.269932,20.1231208 105.946002,21.0434449 C106.725238,22.1043014 107.742271,22.8722186 108.851732,23.5337016 C111.368006,25.0340216 114.124789,25.8714425 116.965429,26.4681062 C117.645404,26.6109264 118.333189,26.7168159 119.073155,26.8496137 C119.084654,26.5873954 119.099299,26.4098234 119.099299,26.2323603 C119.100276,21.8397954 119.102228,17.4472305 119.095394,13.0546656 C119.094743,12.6220654 119.082484,12.1810767 119.001339,11.75839 C118.498952,9.14110941 117.185976,7.06754774 114.934835,5.59609679 C110.579548,2.74938879 104.501218,4.28348018 102.048841,8.87257261 C101.192472,10.4750782 100.299544,10.8944968 98.5421118,10.4803073 C95.9881934,9.87841451 93.5797514,10.2915145 91.3557314,11.6249387 C89.1024208,12.976011 87.5675964,14.8965122 87.1659905,17.5829696 C87.1229225,17.8715514 87.1271534,18.2058878 87.2306466,18.4712654 C87.6705472,19.5985753 88.1212961,20.72436 88.6317109,21.8207309 C89.9375267,24.6259328 91.5384176,27.2449565 93.5764969,29.5845493 C95.1255327,31.3628839 96.8989123,32.8563407 98.9582544,34.0059833 C99.5652196,34.3447863 99.9288562,34.8722732 99.9911257,35.5729745 C100.128791,37.1232979 98.6565618,38.3024632 97.2053782,37.7430569 C96.4901465,37.4673301 95.8140774,37.0447523 95.1855241,36.5963557 C94.1000383,35.8220111 93.0654312,34.9756571 91.9769079,34.1344234 C91.9280903,34.249355 91.8616984,34.3908679 91.8069142,34.5368473 C91.0364645,36.5893836 90.2685098,38.6429003 89.4977346,40.6954366 C89.133881,41.6645658 88.2041775,42.2374806 87.2407356,42.0920458 C85.7596105,41.8686101 85.0082539,40.5716809 85.5407993,39.1428254 C86.5719349,36.3767329 87.6041553,33.6110762 88.6496107,30.8504307 C88.772848,30.5248094 88.7460525,30.2838344 88.5380897,30.001898 C86.9312322,27.8227736 85.6062149,25.4769712 84.494693,23.0083935 C84.1049118,22.1427572 83.7316201,21.2696041 83.3399947,20.3749898 C83.0199684,20.5056087 82.734006,20.5801236 82.4921963,20.7277371 C80.52615,21.9283635 78.9666998,23.520302 77.9231971,25.5953888 C76.1766129,29.068719 75.8066842,32.6921683 76.8967263,36.4205268 C77.3215476,37.873349 77.046542,38.9506555 75.8914098,39.9468017 C74.3343462,41.2895947 73.3768709,43.0052889 73.1818176,45.1084822 C72.9762414,47.3264981 73.7467996,49.2405718 74.943915,51.0281663 C75.9246057,52.4924272 75.5386215,54.03665 73.9607291,54.8441124 C72.3326089,55.6773935 70.998045,56.8433771 69.9702724,58.3588397 C66.9854576,62.7602287 67.482312,69.244984 72.0040124,72.9872867 C73.2280316,74.0003187 73.3651547,75.3010608 72.427098,76.5885123 C71.6861557,77.6055751 71.4215645,78.7729748 71.5124737,79.9868919 C71.7430011,83.0649882 73.1938593,85.439006 75.7676301,87.1313871 C76.3082033,87.4869668 76.7390998,87.9614 76.7752248,88.6591599 C76.8114583,89.358554 76.780215,90.0623056 76.8335889,90.7599566 C77.0617297,93.7421858 78.3269726,96.2287385 80.5369983,98.2037096 C82.0456782,99.5519496 83.7879231,100.40582 85.884258,100.331632 C86.3713489,100.31442 86.6053478,100.171382 86.6855171,99.636269 C87.1821545,96.3175245 88.3188445,93.2285343 90.1068694,90.3887984 C91.6223838,87.9818807 93.54623,85.9598476 95.8651731,84.3237885 C96.8966342,83.596179 98.1801023,83.7880222 98.8576902,84.7300253 C99.5839872,85.7400069 99.3874151,86.9959748 98.3351253,87.7363302 C96.5949416,88.9603787 95.1706618,90.4835761 93.9802725,92.2382707 C93.8566013,92.4204182 93.7666685,92.625661 93.6193479,92.8970302 C97.778171,92.8586834 101.747365,93.3900921 105.524109,94.6032466 C106.035609,93.6050305 106.4447,92.6520244 106.985165,91.7810501 C108.627279,89.1344646 111.00578,87.4596229 113.995043,86.6680658 C115.321362,86.3168436 116.466513,86.8961859 116.796195,87.9996379 C117.165907,89.2369771 116.37235,90.3721306 115.089966,90.7198667 C111.896972,91.5858298 110.056983,93.7940412 109.498727,96.9774823 C109.284147,98.2010951 108.904997,99.0866673 107.832855,99.6881244 C107.505452,99.871797 107.265486,99.9240882 106.896425,99.7788713 C105.286964,99.1457127 103.692257,98.4341175 102.029314,97.987355 C99.0820341,97.19558 96.0441709,97.0266142 92.9990393,97.052324 C91.6477689,97.0637627 91.6478774,97.0647432 91.2866274,98.3490354 C91.2523466,98.4710481 91.2029866,98.5901194 91.1816154,98.7143108 C90.9351409,100.140334 90.3498725,101.561781 91.1058939,103.004581 C91.2305414,103.242397 91.3746075,103.469754 91.5057641,103.704084 C92.8944612,106.18617 94.8992361,108.049696 97.4609653,109.191495 C103.55329,111.906821 109.370174,111.412452 114.666664,107.215216 C117.540175,104.938155 119.067297,101.862782 119.08997,98.148695 C119.12642,92.1768287 119.099842,86.2045266 119.09854,80.2323334 C119.098431,80.0382026 119.082593,79.8441806 119.071636,79.5954709 C111.508926,80.2718786 105.747368,77.4283299 101.862141,70.8331096 C101.758213,70.9425941 101.678044,71.0107905 101.617402,71.0933669 C100.60601,72.4734173 99.4527222,73.7144604 98.1123002,74.7815266 C95.4467523,76.9034575 92.4413257,77.8966624 89.0321235,77.5977314 C88.8276321,77.5797563 88.5933078,77.6062287 88.4097537,77.6919644 C86.0454645,78.7950896 84.4685485,80.8462097 84.6795489,83.6822415 C84.7659017,84.8423423 83.9332909,85.8212761 82.8481306,85.9249868 C81.5800671,86.0463459 80.5910231,85.332136 80.4649653,84.0994813 C80.1766161,81.278592 81.0009822,78.8010813 82.8699358,76.6746838 C83.0677012,76.449614 83.266009,76.2251978 83.4842778,75.9774686 C81.666203,74.9988616 80.0189896,73.8944291 78.5721453,72.5054457 C78.0617305,72.0154341 77.7570004,71.4346756 77.8456314,70.7152366 C77.9466295,69.8951372 78.3940154,69.2833308 79.1583901,68.9896289 C80.0226781,68.6575802 80.7829304,68.8850466 81.5206181,69.4700538 C82.6784624,70.3880902 83.8512774,71.3092858 85.1154355,72.0642391 C86.8017029,73.0713883 88.667619,73.5781767 90.6586165,73.4571444 C92.9818989,73.3159584 94.8443435,72.2137047 96.4676904,70.6189338 C97.9023846,69.2095785 98.9749609,67.5354994 100.003927,65.8229645 C100.551551,64.9116824 101.418552,64.5568652 102.456196,64.6686375 C103.483969,64.7792115 104.167957,65.3580091 104.557304,66.3165711 C104.877331,67.1043154 105.180542,67.9036073 105.566201,68.6591053 C106.703433,70.8869259 108.296079,72.7017553 110.490483,73.9430163 C113.031492,75.380478 115.769507,75.6913924 118.621104,75.4037912 C118.999278,75.3656622 119.10711,75.2363506 119.106785,74.8766311 C119.099082,68.2145217 119.102445,61.5524123 119.088126,54.8903029 C119.087692,54.6868032 118.979208,54.4152161 118.827331,54.2906978 C116.730888,52.5708639 114.480723,51.1086729 111.887751,50.2460869 C109.656245,49.5038795 107.403803,49.3256538 105.127494,50.0316932 C101.629769,51.1167344 99.2023423,53.5470742 97.2007134,56.4770122 C96.5704243,57.3996241 96.0667355,58.4104772 95.520955,59.3898467 C95.0034888,60.3184503 94.1726137,60.723053 93.1124046,60.532735 C92.2733932,60.382289 91.6173936,59.6871437 91.4796195,58.7871913 C91.3705936,58.0748335 91.6968035,57.477625 92.0163958,56.8874977 C92.4020547,56.1752488 92.8090847,55.4746564 93.240632,54.7091359 C92.9773426,54.6410484 92.7758888,54.5749219 92.5692277,54.5378824 C91.7942217,54.399093 91.0174799,54.2697813 90.241389,54.1368747 C91.3984739,52.9741594 92.5556673,51.8113351 93.7127522,50.6486197 M70.4265539,52.0401088 C70.0028174,50.8162782 69.4934874,49.6828677 69.220109,48.4948783 C68.2633931,44.3370789 69.3874991,40.7161352 72.2409403,37.6125469 C72.551637,37.2746154 72.6379899,36.9911539 72.5359069,36.557791 C71.6392909,32.7529568 71.9138626,29.0154474 73.3717722,25.4028921 C75.1264927,21.0545568 78.0480616,17.8199139 82.5277788,16.1789524 C82.9493457,16.0244757 83.1697841,15.7989701 83.3213356,15.355258 C85.1343117,10.0462909 88.9735424,7.1767055 94.3586629,6.20790315 C95.665889,5.97281089 96.9801665,5.98283336 98.29759,6.17227981 C98.4699702,6.19700916 98.7423723,6.06083431 98.8499879,5.9124582 C99.7610323,4.65681715 100.795422,3.52907151 102.047864,2.60787589 C107.072386,-1.08780058 114.354882,-0.922211967 119.10852,3.53146819 C121.913253,6.15931596 123.332542,9.39319629 123.332,13.2538077 C123.329938,26.9926517 123.333518,40.7314957 123.333301,54.4703397 C123.333193,67.9197304 123.334712,81.3691211 123.325382,94.8185118 C123.32408,96.557737 123.366389,98.3067667 123.203881,100.033682 C122.943737,102.797922 121.863025,105.277285 120.202468,107.494429 C117.917155,110.545509 114.931581,112.667004 111.351625,113.859351 C105.632267,115.764273 100.032349,115.391699 94.699518,112.495423 C91.4449048,110.727874 88.9023772,108.201667 87.2856478,104.810586 C87.162953,104.55327 87.0434041,104.411649 86.7212082,104.453264 C83.9279753,104.813855 81.4133279,104.006828 79.1456975,102.443868 C75.6238895,100.016469 73.5170316,96.632034 72.7410492,92.4199825 C72.6268161,91.7995699 72.6050109,91.1584587 72.584616,90.5256269 C72.5738761,90.1911815 72.4848112,89.9705782 72.2129516,89.7484498 C69.8228433,87.7959203 68.2530872,85.3228761 67.5450154,82.2967442 C67.0559719,80.2066236 67.213056,78.1651992 67.8740459,76.1440376 C67.8853282,76.1096126 67.8890166,76.0664724 67.9120151,76.0429414 C68.5430636,75.3973637 68.0559727,74.9577913 67.6248593,74.5226854 C66.2321482,73.1175788 65.3154627,71.4204045 64.6786646,69.5714768 C63.4025733,65.8663226 63.5407813,62.1862245 65.0552108,58.5803145 C66.1696617,55.9269748 67.9411972,53.7861972 70.2963737,52.1372832 C70.3548463,52.0963218 70.4109323,52.0518743 70.4265539,52.0401088" id="Fill-1-Copy" transform="translate(93.572464, 57.518450) scale(-1, 1) translate(-93.572464, -57.518450) "></path>
                <path d="M26.4238159,53.7099316 C25.548859,53.7720966 24.6732261,53.8265988 23.7991705,53.8995563 C23.313922,53.9401363 22.8327295,54.0275558 22.3472557,54.0637107 C21.9938254,54.0900445 21.8746258,54.2490185 21.7568908,54.5710676 C21.4889732,55.3037725 21.1215724,56.0030205 20.7947311,56.7158672 C19.7481852,55.7166947 18.7017521,54.7174143 17.6553189,53.7181339 C17.6297439,53.5469644 17.5575256,53.3682401 17.5858046,53.2057046 C17.8323157,51.7924227 17.604169,50.461272 16.9323472,49.1807383 C16.3337577,48.039644 16.6199269,46.9978411 17.6562202,46.3559014 C18.682599,45.7202213 20.0816739,45.986473 20.6836433,47.0415508 C21.1898475,47.9290206 21.5364052,48.9000246 21.9809816,49.8952038 C22.8411794,49.8285059 23.809423,49.668021 24.7712447,49.6979163 C26.4140141,49.7487492 28.0530655,49.915062 29.6924549,50.0471626 C29.8098519,50.05666 29.9169964,50.1825009 30.0289855,50.2541633 C28.8272999,51.406158 27.6255016,52.5580448 26.4238159,53.7099316" id="Fill-10"></path>
                <path d="M103.104975,53.7099316 C102.230018,53.7720966 101.354386,53.8265988 100.48033,53.8995563 C99.9950815,53.9401363 99.5138889,54.0275558 99.0284152,54.0637107 C98.6749848,54.0900445 98.5557852,54.2490185 98.4380502,54.5710676 C98.1701327,55.3037725 97.8027319,56.0030205 97.4758905,56.7158672 C96.4293447,55.7166947 95.3829115,54.7174143 94.3364783,53.7181339 C94.3109034,53.5469644 94.2386851,53.3682401 94.266964,53.2057046 C94.5134752,51.7924227 94.2853284,50.461272 93.6135066,49.1807383 C93.0149171,48.039644 93.3010863,46.9978411 94.3373797,46.3559014 C95.3637584,45.7202213 96.7628333,45.986473 97.3648027,47.0415508 C97.8710069,47.9290206 98.2175647,48.9000246 98.662141,49.8952038 C99.5223388,49.8285059 100.490582,49.668021 101.452404,49.6979163 C103.095174,49.7487492 104.734225,49.915062 106.373614,50.0471626 C106.491011,50.05666 106.598156,50.1825009 106.710145,50.2541633 C105.508459,51.406158 104.306661,52.5580448 103.104975,53.7099316" id="Fill-10-Copy" transform="translate(100.007246, 51.365314) scale(-1, 1) translate(-100.007246, -51.365314) "></path>
                <path d="M18.3605211,54.0405904 C19.3900689,55.0475795 20.4197276,56.0545686 21.4492754,57.0614489 C21.0151981,58.1967722 20.1495932,59.01213 19.3030539,59.8399948 C18.7507029,60.3800864 18.0727621,60.5405043 17.3180042,60.4267435 C15.7619327,60.1921528 15.0174836,58.390035 15.9814099,57.1715118 C16.2058753,56.8876538 16.5278861,56.6744884 16.7332858,56.3805159 C17.1990653,55.7137214 17.6166263,55.0146259 18.0632292,54.3345629 C18.1378293,54.2211285 18.2602045,54.1378199 18.3605211,54.0405904" id="Fill-18"></path>
                <path d="M104.693854,53.5055351 C105.723402,54.5125241 106.753061,55.5195132 107.782609,56.5263935 C107.348531,57.6617169 106.482927,58.4770746 105.636387,59.3049395 C105.084036,59.845031 104.406095,60.0054489 103.651338,59.8916882 C102.095266,59.6570975 101.350817,57.8549796 102.314743,56.6364565 C102.539209,56.3525985 102.861219,56.139433 103.066619,55.8454605 C103.532399,55.1786661 103.94996,54.4795705 104.396563,53.7995076 C104.471163,53.6860731 104.593538,53.6027646 104.693854,53.5055351" id="Fill-18-Copy" transform="translate(104.833333, 56.715867) scale(-1, 1) translate(-104.833333, -56.715867) "></path>
            </g>
            <path d="M129.081413,30.0519725 C127.031399,30.0016773 125.643094,31.2831349 125.536384,33.1049984 C125.426457,34.9830426 126.868384,36.5887437 128.69908,36.6261976 C130.47508,36.6620463 132.162065,35.034943 132.061254,33.2505334 C131.950254,31.2836699 130.781268,30.2558286 129.081413,30.0519725 M136.362906,33.4517142 C136.277645,37.7193157 132.77766,41.0644818 128.557515,40.9130611 C124.244065,40.7584301 121.043834,37.3287253 121.193442,33.0215297 C121.337152,28.8802013 124.748123,25.6131533 128.85566,25.6837807 C133.131036,25.7570832 136.448167,29.1894633 136.362906,33.4517142" id="Fill-7-Copy"></path>
            <path d="M33.5112022,10.9472978 C35.3129413,11.6706927 38.5973616,10.1029805 38.5893181,13.3935709 C38.5818109,16.5503975 35.4148254,14.9687738 33.7138978,15.6456189 C32.3663471,17.1785524 34.5707964,20.9020026 31.0005645,20.8094381 C27.9038254,20.7297148 29.3924051,17.6119473 28.677608,15.8537554 C27.0925065,14.7338845 23.4284341,16.72001 23.6000283,13.1736631 C23.7437384,10.2062462 26.8839123,11.6658772 28.6363181,10.9167997 C29.4819558,9.21960411 27.8046225,5.86855245 31.0809993,5.88567422 C34.3777529,5.90226093 32.5706514,9.29076647 33.5112022,10.9472978" id="Fill-9-Copy"></path>
            <path d="M118.178643,18.1918819 C119.238237,19.5156089 120.365397,20.3278229 120.266194,20.9431365 C120.126237,21.8093911 119.076295,22.5290406 118.416194,23.3112915 C117.69389,22.5921771 116.589252,21.9683026 116.37744,21.121845 C116.224614,20.5108118 117.259006,19.603893 118.178643,18.1918819" id="Fill-17-Copy"></path>
            <path d="M128.903281,10.1660517 C129.962875,11.4897786 131.090035,12.3019926 130.990832,12.9173063 C130.850875,13.7835609 129.800933,14.5032103 129.140832,15.2854613 C128.418527,14.5663469 127.31389,13.9424723 127.102078,13.0960148 C126.949252,12.4849815 127.983643,11.5780627 128.903281,10.1660517" id="Fill-17-Copy-2"></path>
            <path d="M75.8163244,10.701107 C76.8759186,12.0248339 78.003078,12.837048 77.9038751,13.4523616 C77.7639186,14.3186162 76.7139766,15.0382657 76.0538751,15.8205166 C75.3315708,15.1014022 74.2269331,14.4775277 74.0151215,13.6310701 C73.8622954,13.0200369 74.8966867,12.1131181 75.8163244,10.701107" id="Fill-17-Copy-3"></path>
            <path d="M105.84531,137.509225 C106.904904,138.832952 108.032064,139.645166 107.932861,140.26048 C107.792904,141.126734 106.742962,141.846384 106.082861,142.628635 C105.360556,141.90952 104.255919,141.285646 104.044107,140.439188 C103.891281,139.828155 104.925672,138.921236 105.84531,137.509225" id="Fill-17-Copy-4"></path>
            <path d="M74.2926826,127.936604 C72.3027261,128.026494 71.1037116,129.018486 70.8860015,130.971438 C70.679016,132.825405 72.1751029,134.443413 74.0256392,134.518855 C75.7994942,134.591088 77.5384942,132.974686 77.4307116,131.201512 C77.3138131,129.278523 76.2536826,128.131365 74.2926826,127.936604 M74.3393348,123.598911 C78.4238131,123.665793 81.7618565,127.094962 81.7516681,131.212748 C81.7409435,135.469649 78.3455232,138.828191 74.0755087,138.805184 C69.8441029,138.782176 66.3462623,135.218173 66.4974797,131.083265 C66.6545957,126.792121 70.0741464,123.528283 74.3393348,123.598911" id="Fill-4-Copy"></path>
            <path d="M18.86704,20.9930049 C17.3369345,21.0621221 16.4149955,21.8248791 16.2475951,23.3265313 C16.088441,24.7520724 17.2388033,25.9961809 18.6617065,26.0541899 C20.0256486,26.1097305 21.3627901,24.8668562 21.2799145,23.5034383 C21.1900296,22.0248251 20.3748804,21.1427587 18.86704,20.9930049 M18.9029115,17.6576914 C22.0435241,17.7091178 24.6101926,20.3458545 24.6023586,23.5120779 C24.5941122,26.7852683 21.983326,29.3676987 18.7000519,29.350008 C15.4464647,29.3323173 12.756926,26.5919049 12.8731992,23.4125163 C12.9940078,20.1129956 15.6233483,17.6033851 18.9029115,17.6576914" id="Fill-4-Copy-2"></path>
            <path d="M122.552944,127.590149 C124.364335,128.36919 127.516306,126.740482 127.539901,129.926736 C127.56564,133.308821 124.23135,131.521201 122.502002,132.37943 C121.530886,133.987806 123.418422,137.379522 120.113089,137.40788 C116.793277,137.436773 118.425567,134.160629 117.707017,132.400832 C116.001263,131.512105 112.671263,133.279928 112.609596,130.01716 C112.545248,126.606183 115.944959,128.506699 117.637843,127.54681 C118.549437,125.927197 116.706408,122.588452 120.016567,122.528526 C123.453814,122.465924 121.500857,125.874762 122.552944,127.590149" id="Fill-11-Copy"></path>
            <path d="M30.8011863,27.6162516 C29.2439689,28.6012885 28.3833168,29.562783 27.5478675,29.5419158 C26.8818675,29.5247941 25.7327226,28.3043328 25.7391573,27.6274878 C25.7466646,26.9281704 26.8743602,25.7023586 27.5403602,25.6830966 C28.3763457,25.6590192 29.2412878,26.6274693 30.8011863,27.6162516" id="Fill-13-Copy"></path>
            <path d="M13.6134258,33.1734317 C14.67302,34.4971587 15.8001795,35.3093727 15.7009766,35.9246863 C15.56102,36.790941 14.511078,37.5105904 13.8509766,38.2928413 C13.1286722,37.5737269 12.0240345,36.9498524 11.8122229,36.1033948 C11.6593969,35.4923616 12.6937882,34.5854428 13.6134258,33.1734317" id="Fill-17-Copy"></path>
            <path d="M34.0185776,131.41699 C32.4613602,132.402027 31.6007081,133.363521 30.7652588,133.342654 C30.0992588,133.325532 28.9501139,132.105071 28.9565486,131.428226 C28.9640559,130.728908 30.0917515,129.503097 30.7577515,129.483835 C31.5937371,129.459757 32.4586791,130.428207 34.0185776,131.41699" id="Fill-13-Copy"></path>
        </g>
    </g>
</svg>