<?xml version="1.0" encoding="UTF-8"?>
<svg width="42px" height="50px" viewBox="0 0 42 50" version="1.1" xmlns="http://www.w3.org/2000/svg" xmlns:xlink="http://www.w3.org/1999/xlink">
    <!-- Generator: Sketch 48.2 (47327) - http://www.bohemiancoding.com/sketch -->
    <title>cak</title>
    <desc>Created with Sketch.</desc>
    <defs></defs>
    <g id="Desktop-HD-Copy-2" stroke="none" stroke-width="1" fill="none" fill-rule="evenodd" transform="translate(-1065.000000, -594.000000)">
        <g id="Group" transform="translate(335.000000, 192.000000)" fill="#FFFFFF">
            <g id="cak" transform="translate(730.000000, 402.000000)">
                <path d="M21.0002586,6.5058403 C21.8830963,5.75190767 22.7372497,5.03585342 23.5745301,4.30009475 C23.8645598,4.04527662 23.9802342,3.70398867 23.8561232,3.30779621 C23.7218884,2.87927322 23.4532313,2.59556805 23.013031,2.50986345 C22.55727,2.42109798 22.1958109,2.57949844 21.9067186,2.95196909 C21.4916405,3.48704891 21.0793746,3.64908416 20.6258634,3.40957042 C20.4022012,3.29134399 20.2194093,3.0772738 20.0443041,2.8823341 C19.5915428,2.37843698 18.890747,2.34094122 18.4282368,2.8119339 C17.9542904,3.29421356 17.9809124,3.91767625 18.5206639,4.38847762 C19.3258853,5.09075792 20.1446053,5.77658601 21.0002586,6.5058403 M28.0160905,13.196538 C28.0160905,11.2800455 28.0329636,9.46475327 28.0078414,7.65003494 C27.997905,6.92824153 27.5698909,6.56093612 26.8587838,6.55519697 C26.2811616,6.55060565 25.6992274,6.59862318 25.1264796,6.54333607 C24.3763769,6.47083151 23.7659459,6.65850162 23.2494418,7.23681634 C22.9789099,7.53984331 22.6300118,7.7696005 22.3197344,8.03608824 C21.4498327,8.7835165 20.5413104,8.77682083 19.6610974,8.01944471 C19.1719652,7.59876522 18.6869576,7.17158137 18.17889,6.77596283 C18.0215953,6.65352769 17.7956833,6.56973614 17.5984556,6.56399699 C16.7870473,6.5406578 15.9745142,6.55117957 15.1625435,6.55519697 C14.4032543,6.55883176 14.0138608,6.94125027 13.9831143,7.72196558 C13.9686784,8.08793187 13.9799272,8.45485467 13.9799272,8.82139487 L13.9799272,13.2003641 C18.6768337,13.8852357 23.3341822,13.8911662 28.0160905,13.196538 M11.3597234,14.6986642 C10.823534,14.6986642 10.4480139,14.6833598 10.0741812,14.7015337 C8.84994458,14.7610296 7.93354817,15.6850322 7.99729096,16.8194703 C8.06609569,18.0438217 8.61615851,18.9892506 9.71740902,19.5149564 C10.8287834,20.0458275 11.9041618,19.9077054 12.8775518,19.1348336 C13.2481974,18.840224 13.6212802,18.678954 14.0824781,18.885372 C14.534677,19.0877726 14.6514762,19.4803302 14.6711615,19.9354446 C14.7034079,20.6780903 14.9593164,21.3331183 15.4516358,21.8802503 C16.7174927,23.2880631 18.8834354,23.1956628 20.0371799,21.6820584 C20.3077118,21.3269965 20.5878052,21.0457783 21.0771249,21.0771523 C21.5068263,21.1045089 21.7318009,21.3918489 21.9693365,21.6944932 C22.641448,22.5515392 23.5254106,22.9708795 24.5929149,22.8562879 C26.1621125,22.6881309 27.184247,21.5865972 27.3233563,19.968923 C27.3619769,19.5189738 27.4405305,19.1145553 27.8859802,18.898572 C28.3820491,18.6581018 28.77238,18.8599284 29.1694601,19.1723294 C30.8854536,20.5219855 33.3601738,19.6486786 33.9055497,17.5123767 C34.2778826,16.0538681 33.4951586,14.7945079 32.0485721,14.7308034 C30.9343856,14.681638 29.8321977,14.6410814 28.6913891,15.0085781 C27.3904737,15.4277271 25.9703217,15.5168752 24.5927275,15.6211364 C21.8043552,15.8319544 19.0096086,15.79905 16.2244234,15.5327535 C15.2358477,15.4382489 14.2253369,15.3259529 13.2875679,15.0210129 C12.5865847,14.7931688 11.9174728,14.6569597 11.3597234,14.6986642 M12.8708025,21.4859709 C11.1743068,22.1679729 9.55074036,21.9032069 7.98060535,20.8611691 L7.98060535,26.691186 C7.98060535,28.0974684 7.97779317,28.1058858 9.28095835,28.5692263 C11.7035595,29.4308636 14.2318987,29.7101687 16.7662372,29.8729692 C21.1348683,30.1539961 25.4975002,30.0895264 29.8256359,29.318185 C31.1151151,29.0884278 32.3922208,28.8022356 33.5765244,28.1950339 C33.884927,28.037016 34.0311605,27.8361459 34.0275984,27.4552578 C34.0082881,25.4161388 34.0187869,23.3766372 34.017662,21.337327 C34.017662,21.2020744 34.0064133,21.0670131 33.9972268,20.8569603 C32.4203426,21.9397461 30.7890895,22.1413815 29.0792828,21.4802317 C29.028476,21.5843016 28.997917,21.6393974 28.9737322,21.6973628 C27.6431951,24.8950243 24.0074186,25.9146794 21.2824142,23.8399777 C21.0304426,23.6480989 20.8933956,23.7118034 20.6843568,23.8728822 C18.4458598,25.5974959 15.3365238,25.1515641 13.6685249,22.8551401 C13.366684,22.4396258 13.1456465,21.9630853 12.8708025,21.4859709 M5.98151884,27.9840246 C5.55331724,27.9840246 5.17817215,27.9662332 4.80508932,27.9872768 C3.41437154,28.0651378 2.17588654,29.174515 2.06977353,30.5955278 C1.97284699,31.8921925 1.93291401,33.2135354 2.06452413,34.5031218 C2.30487196,36.8557895 4.96650858,37.9582797 6.82011154,36.5374582 C7.3600505,36.1236657 7.70257428,35.5686901 7.89905207,34.9046708 C8.07209501,34.3204256 8.50010912,34.0522161 9.07323184,34.1088424 C9.59929737,34.160686 9.95007021,34.523974 10.0050015,35.1307932 C10.0394976,35.5103421 9.96919305,35.9034737 10.0319985,36.2755618 C10.1126143,36.7528675 10.1937927,37.2659472 10.4260789,37.6740006 C11.0856293,38.8333083 12.132511,39.3463881 13.4291144,39.1610136 C14.6419148,38.9875001 15.4576351,38.254611 15.8571525,37.0599119 C16.0798773,36.3939795 16.4990799,36.0727786 17.0444557,36.1427961 C17.6687602,36.2231442 17.9522281,36.5852844 18.00191,37.3342431 C18.0523418,38.0918105 18.3221238,38.7642473 18.8564384,39.2958836 C19.7655231,40.2001819 20.8455885,40.4833131 22.0402035,40.0230335 C23.269502,39.5495539 23.9089922,38.5867163 23.9980447,37.2540863 C24.0524135,36.4404666 24.6124127,35.9991262 25.3544538,36.1856484 C25.8557722,36.3117184 26.0175664,36.6964325 26.1651122,37.1360512 C26.6471202,38.5729424 28.0682096,39.4183187 29.5359811,39.1629267 C30.9272614,38.9207347 31.9675813,37.6330614 31.9812672,36.1493005 C31.9852043,35.7364645 31.9765802,35.3173155 32.0438851,34.9132795 C32.1271257,34.4147389 32.4780861,34.1423208 32.9578443,34.1071207 C33.4674117,34.0700075 33.8511808,34.2965125 34.0433466,34.7581312 C34.1102765,34.9182535 34.1545215,35.0881322 34.2171395,35.2503588 C34.7000849,36.502832 36.0096243,37.3047821 37.3197262,37.152886 C38.6706985,36.996016 39.8315673,35.9277694 39.9281189,34.5664437 C40.0212958,33.2537095 39.9980485,31.926436 39.935993,30.6098757 C39.8891233,29.6204467 39.3070016,28.9034359 38.4924062,28.3937997 C37.7312422,27.9178331 36.8879625,27.9490158 36.0461827,27.9983724 C35.7921489,29.0367755 35.4400637,29.4905507 34.4814846,30.0061174 C33.1265752,30.7349891 31.6490548,31.0567639 30.1610355,31.3257386 C26.8938423,31.9161056 23.5957152,32.0844539 20.2831521,32.0471494 C17.2834912,32.0134798 14.2986411,31.8175836 11.3486621,31.2314253 C9.97125532,30.9578593 8.60715952,30.6337888 7.36773713,29.9209867 C6.62907063,29.4960985 6.06775909,28.9340447 5.98151884,27.9840246 M1.98278337,38.2444718 C1.98278337,40.6199048 1.97847136,42.9465551 1.98934513,45.2732053 C1.99047,45.5219017 2.05458775,45.7795894 2.13482868,46.0169988 C2.44679341,46.9390884 3.1873347,47.3884637 4.36413917,47.388655 C15.4548229,47.3890376 26.5455067,47.3888463 37.6361905,47.3888463 C37.7143691,47.3888463 37.7925478,47.3909506 37.870539,47.3880811 C39.1543938,47.3433157 39.9956112,46.5302699 40.0096722,45.22404 C40.0342319,42.9293376 40.0122969,40.6340614 40.0076099,38.3387851 C40.0076099,38.3158286 39.9768634,38.292872 39.9603652,38.2699154 C37.1697432,39.5901105 36.0319343,39.5369278 33.6837623,37.9676536 C32.9645936,39.6553455 31.7508558,40.7804096 29.9729942,41.1415933 C28.2054441,41.5006726 26.6617436,40.9449319 25.3679523,39.6800238 C24.3225705,41.3235243 22.915542,42.2427443 20.9996961,42.2442748 C19.0703517,42.2458052 17.6591987,41.3084112 16.6346271,39.692076 C13.9079353,42.3542751 9.7361569,41.4505507 8.29988176,37.9770276 C5.91646369,39.5453452 4.82946157,39.5962323 1.98278337,38.2444718 M6.00289142,25.9626969 L6.00289142,25.3901214 C6.00289142,22.5689479 6.00195403,19.7477745 6.00326638,16.9266011 C6.00439125,14.4495852 7.73200845,12.6825018 10.1529223,12.6796322 C10.7455428,12.678867 11.3379758,12.6794409 12.0022132,12.6794409 L12.0022132,12.1575611 C12.0022132,10.6592611 11.999776,9.16096108 12.0029631,7.66266106 C12.0069002,5.84794274 13.2931923,4.54037371 15.0727411,4.53673892 C15.4448866,4.5359737 15.8168445,4.53654761 16.1158732,4.53654761 C16.1496194,3.91939799 16.0952505,3.33362237 16.2266732,2.79509907 C16.7165553,0.787928006 18.9012458,-0.156544309 20.6791074,0.834032488 C20.8782099,0.944989333 21.0261306,1.0140504 21.2647912,0.876310872 C22.4052247,0.218222 23.5550323,0.261456908 24.6067884,1.04408527 C25.6900409,1.85043545 26.0798093,2.97703003 25.8032781,4.32859918 C25.7940916,4.37336453 25.8019658,4.42176467 25.8019658,4.53654761 C26.2029829,4.53654761 26.6015629,4.53482587 27.0001428,4.53693022 C28.6853898,4.54573025 29.9874301,5.87032541 29.9954917,7.59513043 C30.0029909,9.23671782 29.9994288,10.8784965 30.0016785,12.5200839 C30.0016785,12.5503101 30.0144271,12.5807276 30.0365496,12.6794409 C30.23209,12.6794409 30.4452534,12.696467 30.6550421,12.6769539 C34.3211902,12.3379616 36.260096,14.3361414 36.0238727,18.1524829 C35.8753895,20.5497247 35.9961259,22.9641839 35.9961259,25.3709909 L35.9961259,25.9626969 C36.3450239,25.9626969 36.6665501,25.962123 36.9878888,25.9628883 C39.7743863,25.9692013 41.9864487,28.2009643 41.9926355,31.0437552 C42.0029468,35.809543 42.0020094,40.5751395 41.992448,45.3409273 C41.9879485,47.5922034 40.2072748,49.4029043 37.9955873,49.4040521 C26.6707425,49.4094087 15.3460852,49.4090261 4.02142791,49.4044348 C1.78311844,49.4034782 0.00938144964,47.5935425 0.00581935231,45.3118489 C-0.00130484234,40.5619394 -0.00261719399,35.8122213 0.00600683112,31.0623118 C0.0112562377,28.1917817 2.21863171,25.9669057 5.03925035,25.9626969 C5.33471695,25.9623143 5.63018355,25.9626969 6.00289142,25.9626969" id="Fill-1"></path>
            </g>
        </g>
    </g>
</svg>