<?xml version="1.0" encoding="UTF-8"?>
<svg width="50px" height="50px" viewBox="0 0 50 50" version="1.1" xmlns="http://www.w3.org/2000/svg" xmlns:xlink="http://www.w3.org/1999/xlink">
    <!-- Generator: Sketch 48.2 (47327) - http://www.bohemiancoding.com/sketch -->
    <title>Photo</title>
    <desc>Created with Sketch.</desc>
    <defs></defs>
    <g id="Desktop-HD-Copy-2" stroke="none" stroke-width="1" fill="none" fill-rule="evenodd" transform="translate(-817.000000, -594.000000)">
        <g id="Group" transform="translate(335.000000, 192.000000)" fill="#FFFFFF">
            <g id="Photo" transform="translate(482.000000, 402.000000)">
                <path d="M14.5690234,4.33418605 C14.5690234,3.97817829 14.5768359,3.67255814 14.5674609,3.36751938 C14.5463672,2.68224806 14.1707813,2.27062016 13.4821094,2.25976744 C12.1330859,2.23825581 10.7830859,2.24193798 9.43386719,2.25879845 C8.83152344,2.26635659 8.41121094,2.61751938 8.34558594,3.1646124 C8.30046875,3.54096899 8.33699219,3.92682171 8.33699219,4.33418605 L14.5690234,4.33418605 Z M38.5246875,17.7799225 C38.5399219,17.6398062 38.5528125,17.5775969 38.5528125,17.5151938 C38.5539844,13.513062 38.5707812,9.51093023 38.5473437,5.50899225 C38.535625,3.54678295 37.1862109,2.26073643 35.2004687,2.25414729 C32.5819141,2.24523256 29.9635547,2.24775194 27.3451953,2.25317829 C25.2457812,2.25763566 23.9444141,3.55841085 23.9434375,5.64465116 C23.9420703,9.50143411 23.9428516,13.3582171 23.9442187,17.215 C23.9442187,17.3839922 23.9592578,17.5531783 23.9698047,17.7746899 C28.8344531,15.013062 33.6569141,15.0084109 38.5246875,17.7799225 L38.5246875,17.7799225 Z M19.7994922,29.0531783 C19.6944141,35.4529845 25.1258594,40.8339922 31.7912891,40.5146124 C37.8987109,40.2219767 42.7498828,35.138062 42.6920703,29.1204264 C42.6309375,22.7411628 37.4766406,17.6915504 31.1457813,17.7754651 C24.7953906,17.8597674 19.6678516,23.0194574 19.7994922,29.0531783 L19.7994922,29.0531783 Z M21.8756641,6.40550388 L21.3362109,6.40550388 C16.7307422,6.40550388 12.1254687,6.40434109 7.52,6.40608527 C4.33230469,6.40724806 2.07097656,8.63263566 2.06980469,11.7857364 C2.06570313,21.9584109 2.06648437,32.1312791 2.07332031,42.3041473 C2.07371094,42.7531783 2.10378906,43.2132558 2.20398437,43.6491085 C2.78777344,46.1855426 4.83992187,47.7686822 7.55203125,47.769845 C19.1875781,47.7750775 30.823125,47.7735271 42.4586719,47.7665504 C42.8785937,47.7663566 43.3059375,47.7210078 43.7170703,47.6363178 C46.2532031,47.1151938 47.9246875,45.0411628 47.9266406,42.3791473 C47.9342578,32.1901938 47.9328906,22.0010465 47.9252734,11.812093 C47.9242969,10.5750775 47.6008594,9.42895349 46.8205859,8.4272093 C45.2149219,6.3653876 42.9895312,6.25589147 40.6381641,6.45007752 C40.6321094,6.54523256 40.623125,6.62372093 40.623125,6.7020155 C40.6223437,10.8520155 40.6192187,15.0018217 40.6323047,19.1516279 C40.6328906,19.3326357 40.7399219,19.5518217 40.8678516,19.688062 C44.22625,23.2595736 45.4920703,27.443876 44.4145312,32.2151938 C42.7022266,39.7973643 34.5948047,44.3417442 27.1399219,41.9661628 C21.8229297,40.2719767 18.1078906,35.5136434 17.7532031,30.1200388 C17.4891406,26.1049225 18.8131641,22.6826357 21.5647266,19.7741085 C21.7805469,19.545814 21.8832812,19.3324419 21.8823047,19.0165504 C21.8717578,15.561124 21.8756641,12.1055039 21.8756641,8.65007752 L21.8756641,6.40550388 Z M6.20652344,4.41209302 C6.25027344,3.78108527 6.22253906,3.17430233 6.34617187,2.59949612 C6.64519531,1.20782946 7.84753906,0.241744186 9.27996094,0.215193798 C10.7278125,0.188449612 12.1772266,0.185155039 13.6250781,0.215387597 C15.3692187,0.251627907 16.6287891,1.6148062 16.6756641,3.46403101 C16.6826953,3.73728682 16.6766406,4.01073643 16.6766406,4.29329457 C16.7631641,4.32081395 16.8217578,4.35589147 16.8805469,4.35589147 C18.4756641,4.35976744 20.0705859,4.36751938 21.6653125,4.34736434 C21.7967578,4.34581395 22.0037891,4.17488372 22.0442187,4.04290698 C22.7817187,1.64658915 24.7065234,0.210155039 27.2233203,0.208217054 C29.9086719,0.205891473 32.5942187,0.205891473 35.2795703,0.208217054 C37.7444141,0.210348837 39.7092578,1.64232558 40.4067187,3.97313953 C40.5008594,4.28748062 40.6364062,4.35976744 40.9414844,4.36945736 C42.0600391,4.40453488 43.2090625,4.32624031 44.2893359,4.55569767 C47.6967578,5.27972868 49.9903125,8.20472868 49.9946094,11.6894186 C50.0030078,18.4074419 49.9971484,25.1254651 49.9971484,31.8432946 C49.9971484,35.3477519 49.9983203,38.8520155 49.9967578,42.3564729 C49.9951953,45.9758527 47.7621875,48.8058915 44.2209766,49.6384496 C43.6889453,49.7634496 43.12625,49.8087984 42.5776172,49.809186 C30.8594531,49.8186822 19.1412891,49.8190698 7.42292969,49.8148062 C3.82527344,49.8134496 0.944414063,47.5264341 0.1684375,44.0483333 C0.0502734375,43.5182946 0.007890625,42.9617054 0.0075,42.4173256 C-0.0016796875,32.1463953 -0.000703125,21.8756589 0.0014453125,11.6047287 C0.0022265625,8.0527907 2.53113281,5.07410853 6.05457031,4.46151163 C6.10085937,4.45337209 6.145,4.43244186 6.20652344,4.41209302 Z M10.4257422,13.6319186 C10.4257422,13.9699031 10.4442969,14.3090504 10.4216406,14.6456783 C10.3798438,15.2669961 9.93609375,15.7051744 9.37515625,15.7088566 C8.81421875,15.7125388 8.3540625,15.2753295 8.32828125,14.6532364 C8.30054688,13.9784302 8.30308594,13.3009109 8.32632813,12.6257171 C8.34761719,12.0100194 8.80464844,11.5658333 9.36617188,11.561376 C9.90015625,11.5571124 10.3517188,11.9730039 10.4108984,12.5706783 C10.4456641,12.9212597 10.4173438,13.2780426 10.4173438,13.6319186 L10.4257422,13.6319186 Z M6.21539062,13.5989729 C6.22730469,13.5997481 6.23921875,13.6005233 6.25113281,13.6011047 C6.25113281,13.9722287 6.24683594,14.3433527 6.25191406,14.7142829 C6.2728125,16.2642829 7.47085937,17.5857946 8.99136719,17.7394767 C10.6194922,17.9040116 12.1220312,16.9142829 12.3827734,15.3549806 C12.5433203,14.3958721 12.5226172,13.3945155 12.4773047,12.4169961 C12.4050391,10.8547868 11.1657812,9.65129845 9.59859375,9.51641473 C8.08882812,9.38656977 6.67203125,10.4028488 6.34058594,11.9189341 C6.22183594,12.4625388 6.25269531,13.0381202 6.21539062,13.5989729 Z M9.37964844,36.3602132 C10.061875,36.3602132 10.7441016,36.3646705 11.4263281,36.3590504 C12.0323828,36.3538178 12.4751563,35.9528488 12.4960547,35.4034302 C12.5179297,34.8311434 12.0794531,34.3307558 11.4872656,34.3235853 C10.074375,34.3061434 8.66089844,34.3057558 7.24800781,34.3241667 C6.67671875,34.331531 6.24878906,34.8125388 6.25171875,35.3669961 C6.25445313,35.9218411 6.69273438,36.3509109 7.28433594,36.3580814 C7.98257813,36.3666085 8.68121094,36.3602132 9.37964844,36.3602132 Z M9.36833984,40.5139729 C10.0349414,40.5139729 10.7017383,40.5213372 11.3681445,40.5118411 C12.0169727,40.502345 12.4962695,40.0583527 12.4958789,39.4872287 C12.4954883,38.8897481 12.0542773,38.4771512 11.3788867,38.4730814 C10.0456836,38.4651357 8.71248047,38.4655233 7.37927734,38.4728876 C6.69705078,38.4765698 6.25779297,38.8788953 6.25173828,39.4765698 C6.24568359,40.0653295 6.73552734,40.5062209 7.41736328,40.5126163 C8.06755859,40.5190116 8.71794922,40.5139729 9.36833984,40.5139729 Z M26.0549023,29.0906395 C26.0629102,26.2691279 28.4072461,23.9553682 31.2537305,23.9596318 C34.1293164,23.9638953 36.4508008,26.313314 36.4408398,29.2088566 C36.4310742,32.0392829 34.1058789,34.3195155 31.2336133,34.3156395 C28.3148633,34.3117636 26.0465039,32.0231977 26.0549023,29.0906395 Z M31.220918,36.3586628 C34.9800977,36.4598256 38.5138867,33.4076938 38.5267773,29.2249419 C38.5398633,25.0288178 35.232832,21.9449031 31.2670117,21.9169961 C27.2699414,21.8888953 23.927168,25.177655 23.9541211,29.1278488 C23.9836133,33.4357946 27.526582,36.4489729 31.220918,36.3586628 Z" id="Combined-Shape"></path>
            </g>
        </g>
    </g>
</svg>