<?xml version="1.0" encoding="UTF-8"?>
<svg width="45px" height="48px" viewBox="0 0 45 48" version="1.1" xmlns="http://www.w3.org/2000/svg" xmlns:xlink="http://www.w3.org/1999/xlink">
    <!-- Generator: Sketch 48.2 (47327) - http://www.bohemiancoding.com/sketch -->
    <title>deco</title>
    <desc>Created with Sketch.</desc>
    <defs></defs>
    <g id="Desktop-HD-Copy-2" stroke="none" stroke-width="1" fill="none" fill-rule="evenodd" transform="translate(-561.000000, -594.000000)">
        <g id="Group" transform="translate(335.000000, 192.000000)" fill="#FFFFFF">
            <g id="deco" transform="translate(226.000000, 402.000000)">
                <path d="M17.2683035,4.43318288 C17.2744319,5.16607004 17.5547626,5.76840467 18.1024669,6.25307393 C19.4149961,7.41403891 20.7317276,8.56977432 22.0304241,9.74810895 C22.3293152,10.0191128 22.5299767,9.99240467 22.8160856,9.73279377 C24.0815136,8.58452918 25.3556965,7.44691051 26.6437121,6.3277821 C27.3987315,5.67184436 27.7165331,4.85995331 27.4656187,3.85718288 C27.2299377,2.91604669 26.6508911,2.27859922 25.7449377,2.06792218 C24.7764747,1.84286381 23.9552685,2.16130739 23.3454047,3.00084047 C22.6788093,3.91807004 22.1416109,3.93021012 21.4909494,3.00868482 C20.8681284,2.12656809 19.8338288,1.787393 18.8419027,2.14020233 C17.9331479,2.46350195 17.2600739,3.44423346 17.2683035,4.43318288 M31.2652296,45.821323 L41.0577198,45.821323 L41.0577198,26.8822412 C40.6600739,26.8504903 40.2680311,26.882428 39.9115331,26.7772763 C39.23093,26.5764981 38.7275253,26.88 38.3227004,27.3698988 C38.0122529,27.7453074 37.7384008,28.1907549 37.56593,28.6546926 C35.8594319,33.250179 34.1767471,37.8555642 32.4888093,42.4588949 C32.0825837,43.5666304 31.6816109,44.676607 31.2652296,45.821323 M3.79036576,26.8919533 L3.79036576,45.8248716 L13.5537899,45.8248716 C13.496358,45.6476265 13.4543346,45.5021323 13.4025058,45.3607471 C11.4039455,39.9057432 9.40661089,34.4503658 7.4006965,28.9983502 C7.24240856,28.5682179 7.05873152,28.1386459 6.82287549,27.7533385 C6.50770039,27.2385992 6.07188327,26.7847471 5.48303113,26.7371206 C4.92709728,26.6922957 4.35803113,26.8325603 3.79036576,26.8919533 M3.75061868,24.8546615 C3.89752529,24.8546615 3.98349805,24.8593307 4.06877043,24.8541012 C6.50402335,24.7035642 8.79884825,23.9921556 10.940463,22.7721712 C15.49807,20.1760623 18.5083424,16.2219455 19.9451907,10.9174786 C20.0131284,10.6666459 19.9737315,10.4929494 19.7707938,10.3171984 C18.8313969,9.50437354 17.9068833,8.67193774 16.9746654,7.84940078 C16.1716693,7.14079377 15.622214,6.2715642 15.4765331,5.15131518 C15.4292568,4.78748638 15.413323,4.4191751 15.3795292,4.01220233 C14.3377004,4.01220233 13.3053268,4.02471595 12.2733035,4.00958755 C10.1259105,3.97821012 8.23678599,4.70960311 6.62501556,6.21086381 C4.81293385,7.8985214 3.79719455,10.0364825 3.74816732,12.6098054 C3.69616342,15.3310506 3.74484047,18.054537 3.749393,20.7769027 C3.74974319,20.9410739 3.74956809,21.1052451 3.74956809,21.3332918 C3.92676654,21.2371051 4.04180545,21.1810739 4.15124125,21.1145837 C7.57947082,19.0276109 10.0108716,15.9882957 11.5345681,12.1378366 C12.0342957,10.8750817 12.3167276,9.51445914 12.6973891,8.19828794 C12.8435953,7.69270039 13.314607,7.38023346 13.777214,7.48538521 C14.2617082,7.59557977 14.6133035,8.12152529 14.5122724,8.63887938 C13.7427198,12.5834708 12.146358,16.0859767 9.5801323,19.0638444 C7.99410117,20.9042802 6.14489883,22.3648249 4.02464591,23.4361401 C3.90768093,23.4951595 3.77723346,23.6589572 3.76305058,23.7878288 C3.72610506,24.1230817 3.75061868,24.4659922 3.75061868,24.8546615 M29.4177782,4.00828016 C29.4177782,4.16404669 29.4170778,4.26845136 29.4179533,4.37285603 C29.4303852,5.75196887 28.9168249,6.87856809 27.9462607,7.76554086 C27.0273502,8.6052607 26.0961829,9.43078599 25.1515331,10.2374475 C24.8839844,10.4660545 24.8174475,10.6666459 24.9177782,11.0211362 C26.7780117,17.5958288 30.7994708,21.9229261 36.8776226,24.0963735 C38.2167665,24.5750661 39.6052879,24.8350506 41.0824086,24.8634397 C41.0824086,24.6049494 41.0542179,24.3718599 41.0881868,24.1496031 C41.1598016,23.680249 40.9505603,23.4835798 40.568323,23.293821 C39.0131089,22.520965 37.6125058,21.4894319 36.3556576,20.2434864 C33.1806187,17.0956576 31.2221556,13.2224125 30.3344125,8.71396109 C30.2227004,8.1467393 30.5093346,7.63181323 31.0216693,7.49210895 C31.47307,7.36921401 31.966144,7.66916732 32.1253074,8.17027237 C32.1671556,8.3021323 32.1927198,8.44015564 32.2212607,8.57649805 C33.1580311,13.0565603 35.2471167,16.7865525 38.6224669,19.6560934 C39.364179,20.2866304 40.1941401,20.7989416 41.0825837,21.4369494 L41.0825837,20.8090272 C41.0824086,18.3031284 41.0874864,15.7974163 41.0780311,13.2915175 C41.07593,12.7801401 41.0508911,12.2639066 40.9820778,11.7583191 C40.5546654,8.62020233 38.9679339,6.36476265 36.3544319,4.89898833 C34.1560856,3.66592996 31.782642,4.08859144 29.4177782,4.00828016 M8.17602724,26.1265681 C8.55038521,26.9776809 8.95591051,27.7832218 9.26775875,28.6281712 C11.3286537,34.2114864 13.3723891,39.8020856 15.409821,45.3951128 C15.5332646,45.7342879 15.6745681,45.8751128 16.0336926,45.8607315 C16.8788872,45.8269261 17.7260078,45.8454163 18.5722529,45.8517665 C19.2019027,45.8564358 19.6132062,46.2548171 19.6118054,46.8416498 C19.6104047,47.4023346 19.1647821,47.8178988 18.5444125,47.8186459 C16.0786926,47.821821 13.6127977,47.8199533 11.1469027,47.8199533 C7.82022957,47.8199533 4.49355642,47.8216342 1.16670817,47.8158444 C0.967797665,47.8154708 0.754879377,47.791751 0.57277821,47.7140545 C0.156747082,47.5368093 -0.0572217899,47.1023813 0.0133424125,46.6647782 C0.0879338521,46.2014008 0.434976654,45.8769805 0.898984436,45.8568093 C1.20137743,45.8437354 1.50464591,45.8543813 1.8333035,45.8543813 L1.8333035,26.9012918 C1.54264202,26.9012918 1.25548249,26.9104436 0.969198444,26.8994241 C0.417291829,26.8783191 0.00808949416,26.4517354 0.00598832685,25.908607 C0.00388715953,25.3656654 0.410287938,24.9506615 0.969198444,24.9345992 C1.24375097,24.9265681 1.5184786,24.9331051 1.82577432,24.9331051 C1.83925681,24.7640778 1.8592179,24.6303502 1.8592179,24.4966226 C1.86044358,20.6368249 1.82174708,16.7766537 1.86972374,12.9174163 C1.92015175,8.85702724 3.63295331,5.74281712 6.83600778,3.57945525 C8.50153307,2.45453696 10.360716,1.98761089 12.3247821,1.98238132 C13.4774475,1.97920623 14.6302879,1.9894786 15.7827782,1.97266926 C15.9468444,1.97024125 16.1637899,1.89833463 16.2642957,1.77375875 C17.931572,-0.290801556 20.2591401,-0.578801556 22.2923696,1.04498054 C22.3263385,1.07206226 22.3645097,1.09335409 22.420716,1.1305214 C23.0251518,0.612980545 23.6934981,0.220762646 24.4742568,0.0885291829 C26.0954825,-0.185836576 27.4325253,0.364389105 28.4811829,1.69662257 C28.6515525,1.91308949 28.814393,1.98649027 29.0688093,1.98761089 C30.5273696,1.99396109 31.9894319,1.9547393 33.4434397,2.04943191 C37.6406965,2.32305058 41.0624475,5.36031128 42.3735759,9.35458366 C42.7974864,10.6459144 42.9605019,11.9833774 42.9662802,13.339144 C42.9816887,17.0119844 42.9715331,20.6851984 42.971358,24.3580389 L42.971358,24.9331051 C43.291786,24.9331051 43.5782451,24.9263813 43.864179,24.9345992 C44.4131089,24.9504747 44.8230117,25.3735097 44.8256381,25.9168249 C44.8280895,26.4461323 44.4048794,26.8785058 43.8520973,26.8996109 C43.5778949,26.9098833 43.3031673,26.9012918 43.000249,26.9012918 L43.000249,45.8527004 C43.3000156,45.8527004 43.6003074,45.8437354 43.9000739,45.8547549 C44.4188872,45.8738054 44.8181089,46.2992685 44.825463,46.8267082 C44.8322918,47.3194086 44.4439261,47.7601868 43.9473502,47.8154708 C43.831786,47.828358 43.7141206,47.8199533 43.5975058,47.8199533 C37.8777782,47.8199533 32.1582257,47.8201401 26.4386732,47.8197665 C26.3073502,47.8197665 26.1741012,47.830786 26.0452296,47.8108016 C25.5556576,47.7355331 25.1960078,47.2768249 25.2203463,46.7727315 C25.2446848,46.2660233 25.6349767,45.8633463 26.1466109,45.8560623 C27.0364553,45.8433619 27.927,45.8325292 28.8163191,45.8592374 C29.1511051,45.869323 29.2964358,45.7428794 29.4141012,45.4203268 C31.5389066,39.5971984 33.668965,33.7761245 35.8161829,27.9625214 C36.0476615,27.3357198 36.392428,26.7565447 36.6900934,26.1441245 C29.9437704,23.8802802 25.3968444,19.1478911 23.1878171,11.9148327 L21.6464358,11.9148327 C19.425677,19.0944747 14.9198988,23.8741167 8.17602724,26.1265681" id="Fill-1"></path>
            </g>
        </g>
    </g>
</svg>