<?xml version="1.0" encoding="UTF-8"?>
<svg width="48px" height="50px" viewBox="0 0 48 50" version="1.1" xmlns="http://www.w3.org/2000/svg" xmlns:xlink="http://www.w3.org/1999/xlink">
    <!-- Generator: Sketch 48.2 (47327) - http://www.bohemiancoding.com/sketch -->
    <title>drinks</title>
    <desc>Created with Sketch.</desc>
    <defs></defs>
    <g id="Desktop-HD-Copy-2" stroke="none" stroke-width="1" fill="none" fill-rule="evenodd" transform="translate(-646.000000, -594.000000)">
        <g id="Group" transform="translate(335.000000, 192.000000)" fill="#FFFFFF">
            <g id="drinks" transform="translate(311.666667, 402.000000)">
                <path d="M27.5945988,17.9156202 C30.2691048,16.3072868 32.4996386,14.2185271 34.3317024,11.6012791 L29.4465112,11.6012791 C29.4309693,13.9160078 28.763794,15.9881008 27.5945988,17.9156202 L27.5945988,17.9156202 Z M2.17302908,11.5846124 C2.67692151,12.8660078 3.14673426,14.0679457 3.62647131,15.265814 C3.66523227,15.3623256 3.76728406,15.4355814 3.8489255,15.509031 C6.5653757,17.9559302 9.65426813,19.6501163 13.1916267,20.4167829 C15.4656028,20.9096124 17.7701008,21.1191085 20.0594315,20.640814 C23.4104753,19.9404264 25.7286426,17.8921705 26.9521406,14.5733721 C27.3009892,13.6268605 27.4665191,12.6315116 27.450041,11.5846124 L2.17302908,11.5846124 Z M6.84456693,20.2671705 C13.0833956,27.0565116 20.6105112,29.763876 29.4433279,27.186938 C37.163312,24.9344186 42.1299574,19.511938 44.6864952,11.5607752 L44.1213717,11.5607752 C41.8284833,11.5607752 39.5354076,11.5687209 37.2427064,11.5520543 C36.9049056,11.5495349 36.7103518,11.6615504 36.5253478,11.9475969 C35.0840769,14.1764729 33.3613677,16.1481783 31.3158378,17.7941085 C25.5119932,22.4640698 19.0349813,24.0274419 11.8520331,22.2208527 C10.1076028,21.782093 8.46896932,21.0510853 6.84456693,20.2671705 L6.84456693,20.2671705 Z M22.4131765,47.7786047 L22.4131765,30.1972093 C21.7102363,30.1206589 21.0014912,30.0601938 20.2974275,29.963876 C15.6215829,29.3243411 11.4713518,27.4334496 7.88287371,24.2708527 C3.90397729,20.7640698 1.32983785,16.3512791 0.0628976096,11.105155 C-0.211237849,9.96968992 0.449196414,9.49662791 1.29538367,9.49934109 C9.73647131,9.52744186 18.177559,9.51639535 26.6188339,9.51639535 L27.3026745,9.51639535 C27.0073797,8.74100775 26.7896068,8.01891473 26.4671606,7.35127907 C25.5436386,5.44003876 24.1280211,4.03015504 22.2558857,3.12143411 C21.8899972,2.94391473 21.5589375,2.73655039 21.4845988,2.28906977 C21.4168139,1.88189922 21.5113757,1.51 21.8467422,1.25379845 C22.1929693,0.989069767 22.564288,0.99875969 22.9500251,1.18325581 C25.8464235,2.56794574 27.8104992,4.82918605 28.8680928,7.9355814 C29.0379295,8.4344186 29.1484076,8.95476744 29.3000809,9.51639535 L29.7867462,9.51639535 C31.5967143,9.51639535 33.4066825,9.50748062 35.2164633,9.52453488 C35.5510809,9.52782946 35.7566825,9.45360465 35.9031127,9.11717054 C36.4716068,7.81232558 37.077551,6.52492248 37.6439853,5.21910853 C37.9490171,4.51542636 38.4092801,4.21174419 38.9699096,4.4220155 C39.5713598,4.6475969 39.7984952,5.25360465 39.5024514,5.98577519 C39.0822602,7.02434109 38.6251805,8.04682171 38.1840171,9.07627907 C38.1287781,9.20496124 38.0737263,9.33364341 37.9954554,9.51639535 L38.8775948,9.51639535 C41.1401486,9.51639535 43.4025151,9.51581395 45.6648817,9.51678295 C46.6455151,9.51717054 47.0606506,10.0514729 46.8292084,11.0410078 C45.9311526,14.8789922 44.2764155,18.3272481 41.8093837,21.3435271 C38.3984195,25.5140698 34.114304,28.2466279 28.9817542,29.5047674 C27.5200729,29.8631008 26.0119534,30.0185271 24.483049,30.2739535 L24.483049,47.7786047 L25.0262641,47.7786047 C29.3950171,47.7786047 33.7639574,47.7774419 38.1327104,47.7822868 C38.3781964,47.7824806 38.6394116,47.7890698 38.8656108,47.8725969 C39.2584633,48.0177519 39.5026386,48.5162016 39.4436546,48.9338372 C39.3796147,49.3881008 38.9860131,49.7663953 38.5141406,49.8179457 C38.390555,49.8315116 38.2647223,49.8227907 38.1400131,49.8227907 C28.3413558,49.8229845 18.5428857,49.8249225 8.74422829,49.8142636 C8.44706096,49.813876 8.1174992,49.7446899 7.86040359,49.5991473 C7.48459084,49.3863566 7.35220438,48.9818992 7.46549124,48.5524419 C7.5802761,48.1173643 7.8545988,47.8198837 8.32328805,47.7886822 C8.50979004,47.7764729 8.69760279,47.7789922 8.88466653,47.7789922 C13.1910649,47.7786047 17.4974633,47.7786047 21.8038618,47.7786047 L22.4131765,47.7786047 Z M38.6962797,1.57131783 C38.7241801,1.4375969 38.7573235,1.1629845 38.8402757,0.905620155 C38.9870805,0.450775194 39.4773036,0.151550388 39.9077936,0.221705426 C40.4032598,0.30251938 40.7942398,0.746899225 40.7507976,1.27054264 C40.7208375,1.63081395 40.6362,2.00581395 40.4880845,2.33120155 C40.3021442,2.73934109 39.8104231,2.89748062 39.4042757,2.76589147 C38.9234151,2.61007752 38.6801761,2.24903101 38.6962797,1.57131783 Z M18.7153625,2.35168605 C17.8058845,2.20866279 17.4242669,1.87610465 17.4531036,1.19393411 C17.4536653,1.17784884 17.4525418,1.16176357 17.4538526,1.14567829 C17.4920518,0.677267442 17.8596255,0.287151163 18.3260677,0.219515504 C19.0724502,0.111569767 19.6551753,0.347034884 19.8590916,0.839282946 C20.0489641,1.29742248 19.9403586,1.80439922 19.5246614,2.07261628 C19.2900359,2.22397287 18.9874382,2.26234496 18.7153625,2.35168605 Z" id="Combined-Shape"></path>
            </g>
        </g>
    </g>
</svg>