<?xml version="1.0" encoding="UTF-8"?>
<svg width="33px" height="26px" viewBox="0 0 33 26" version="1.1" xmlns="http://www.w3.org/2000/svg" xmlns:xlink="http://www.w3.org/1999/xlink">
    <!-- Generator: Sketch 48.2 (47327) - http://www.bohemiancoding.com/sketch -->
    <title>Combined Shape</title>
    <desc>Created with Sketch.</desc>
    <defs></defs>
    <g id="pop-copy-2" stroke="none" stroke-width="1" fill="none" fill-rule="evenodd" transform="translate(-49.000000, -376.000000)">
        <g id="Group-2" transform="translate(27.000000, 353.000000)" fill="#4A90E2">
            <path d="M52.3506512,49 L25.644725,49 C25.1185748,48.8072187 24.5926173,48.6146334 24,48.3975586 L34.8948342,36 C36.0278584,37.0089669 37.1281307,37.9901138 38.2303296,38.9693015 C38.7381772,39.4204958 39.257777,39.4193203 39.7665879,38.968126 C40.3557374,38.4456183 40.9423823,37.9203677 41.5307611,37.3968804 C42.0497829,36.9349107 42.5695754,36.4737247 43.1013126,36.0013714 C46.725603,40.1255972 50.327545,44.2245498 54,48.403632 C53.3923553,48.6232537 52.8714069,48.8117248 52.3506512,49 Z M50.6506355,23 C51.0747006,23.163335 51.4985828,23.32667 52,23.5199397 C47.2793271,28.0581617 43.6325318,32.5252637 38.9776904,37 C34.3140715,32.5166248 28.6711164,28.0531391 24,23.5625314 C24.1397092,23.4787544 24.2326049,23.4054244 24.3361068,23.3640382 C24.6559386,23.2360623 24.9797934,23.1203415 25.3021852,23 L50.6506355,23 Z M54.9392949,43.6435676 C54.8229559,43.9704144 54.7107186,44.2987027 54.5876678,44.6232072 C54.5485153,44.7264505 54.480278,44.8192432 54.4084983,44.9468108 C50.9500237,41.206991 48.5113119,38.4886126 45.0491085,34.745009 C48.061849,31.4684245 50.8681763,27.9785225 54.2860068,25.0880721 C54.6631763,25.5349189 54.7567695,26.0761802 54.9392949,26.5806847 L54.9392949,43.6435676 Z M22.4452511,25.3307819 C22.4861223,25.2270959 22.5607075,25.1355337 22.6432033,25 C26.0972895,27.9033892 29.5346129,31.7928451 33,34.7058249 C29.5133298,38.4551689 26.0347585,42.1954653 22.496858,46 C22.3164221,45.5092557 22.1582111,44.0789497 22,43.6484628 L22,26.5124043 C22.1474753,26.1182889 22.2909953,25.7225449 22.4452511,25.3307819 Z" id="Combined-Shape"></path>
        </g>
    </g>
</svg>