<?xml version="1.0" encoding="UTF-8"?>
<svg width="182px" height="192px" viewBox="0 0 182 192" version="1.1" xmlns="http://www.w3.org/2000/svg" xmlns:xlink="http://www.w3.org/1999/xlink">
    <!-- Generator: Sketch 48.2 (47327) - http://www.bohemiancoding.com/sketch -->
    <title>invite</title>
    <desc>Created with Sketch.</desc>
    <defs></defs>
    <g id="Symbols" stroke="none" stroke-width="1" fill="none" fill-rule="evenodd">
        <g id="invite" fill="#FFFFFF">
            <path d="M172.9683,191.991 L8.4803,191.991 C16.2793,185.796 23.2173,180.25 30.1903,174.75 C45.8693,162.386 61.5683,150.048 77.2523,137.691 C87.4963,129.619 94.1943,129.654 104.4453,137.744 C125.8673,154.648 147.3153,171.517 168.7453,188.41 C169.9753,189.38 171.1383,190.435 172.9683,191.991 Z M91.023,124.1727 C75.502,112.8567 61.827,101.2727 52.378,85.5427 C47.868,78.0367 44.526,69.9817 46.316,60.9347 C50.302,40.7867 72.126,32.7457 88.344,45.3317 C88.864,45.7347 89.403,46.1137 88.997,45.8147 C95.186,43.5267 100.553,40.2207 106.176,39.7017 C125.707,37.9007 138.927,55.0877 133.261,74.1557 C130.3,84.1197 124.55,92.5547 117.358,99.7857 C108.94,108.2497 99.855,116.0507 91.023,124.1727 Z M63.8653,137.5168 C42.5053,154.3278 21.5423,170.8258 0.0003,187.7808 L0.0003,85.5088 C21.4013,102.9358 42.4303,120.0608 63.8653,137.5168 Z M117.7675,137.5189 C139.2315,120.0359 160.1135,103.0279 181.5125,85.5969 L181.5125,187.6709 C160.2085,170.9099 139.2485,154.4199 117.7675,137.5189 Z M25.8598,96.7323 C17.7798,90.0303 10.7578,84.2063 3.2098,77.9443 C6.8828,74.4633 10.0538,71.0213 13.6728,68.1423 C17.7438,64.9043 18.8528,61.0343 18.6328,55.9783 C18.2428,46.9973 18.6268,37.9853 18.4798,28.9893 C18.4138,24.9003 20.0388,23.3823 24.1338,23.4573 C34.4618,23.6453 44.7978,23.6373 55.1238,23.4193 C57.0278,23.3793 59.2968,22.4213 60.7208,21.1363 C65.5408,16.7893 69.9528,11.9923 74.7108,7.5723 C84.2008,-1.2417 97.7298,-1.1837 107.2008,7.7053 C111.8158,12.0363 116.0648,16.7623 120.7698,20.9853 C122.3008,22.3593 124.7388,23.3603 126.7898,23.4113 C136.7808,23.6573 146.7828,23.5133 156.7808,23.5273 C162.6158,23.5353 163.2678,24.1823 163.2868,30.1813 C163.3158,39.6793 163.4448,49.1803 163.2138,58.6733 C163.1288,62.1493 164.1428,64.6183 166.7238,66.9033 C170.5798,70.3183 174.1408,74.0673 178.2578,78.0943 C170.8668,84.2173 163.7778,90.0893 155.7838,96.7103 L155.7838,63.5423 L155.7838,31.1863 L25.8598,31.1863 L25.8598,96.7323 Z" id="Combined-Shape"></path>
        </g>
    </g>
</svg>