<?xml version="1.0" encoding="UTF-8"?>
<svg width="47px" height="48px" viewBox="0 0 47 48" version="1.1" xmlns="http://www.w3.org/2000/svg" xmlns:xlink="http://www.w3.org/1999/xlink">
    <!-- Generator: Sketch 48.2 (47327) - http://www.bohemiancoding.com/sketch -->
    <title>like</title>
    <desc>Created with Sketch.</desc>
    <defs></defs>
    <g id="Symbols" stroke="none" stroke-width="1" fill="none" fill-rule="evenodd">
        <g id="like" fill="#5C00AD">
            <path d="M44.2159208,26.3748293 C44.9174908,27.6955915 45.3957625,29.0458652 45.0477942,30.5396009 C44.6867124,32.0894739 43.5276491,32.9130069 42.2042058,33.5347063 C42.5775699,34.0100578 42.9688496,34.4321579 43.2735066,34.9103954 C44.2301425,36.411765 43.9895752,37.8403331 42.5743377,38.9111307 C42.0389024,39.3162873 41.4155515,39.6042353 40.828124,39.9381729 C40.6713166,40.0273595 40.4992718,40.0893619 40.3780185,40.1441027 C40.7248786,40.8688601 41.124562,41.5377595 41.3750106,42.2593516 C42.0486913,44.2002305 41.4153668,45.953799 39.7011055,47.0533635 C39.5570422,47.1457153 39.3595092,47.1943118 39.1868179,47.1945911 C33.6156306,47.2017595 28.0444433,47.2025974 22.4732559,47.1924499 C22.2576227,47.1920775 22.0194565,47.1141556 21.8299578,47.0050463 C19.6006702,45.721709 17.3734142,44.434741 15.1591794,43.1254297 C14.6918047,42.8491189 14.2328338,42.6859205 13.6848391,42.7238108 C13.1522665,42.760584 12.6151689,42.7318171 12.0537836,42.7318171 L12.0537836,21.816352 C13.0404327,21.7218589 14.016,21.6285761 14.9915673,21.5348278 C15.5271873,21.4834384 16.0663166,21.4539268 16.5962111,21.3669745 C16.7753668,21.337556 16.9993113,21.2015418 17.0871346,21.0472806 C19.2673852,17.216726 21.4335066,13.3779789 23.5939947,9.53606643 C23.6792322,9.38459819 23.7171873,9.18835045 23.7218047,9.01146682 C23.7689947,7.21367748 23.8088892,5.41570193 23.8422269,3.6175402 C23.8715013,2.03433862 24.4613298,0.82073073 26.0100106,0.231056568 C27.4018839,-0.298849546 28.8755778,0.146897199 29.836,1.38936505 C30.7634538,2.58900844 31.1611979,4.00156387 31.3792322,5.46867393 C31.5133219,6.37087353 31.6440871,7.28908576 31.6184142,8.19566091 C31.5896939,9.20976268 31.3731372,10.2177201 31.2548391,11.2302392 C31.0090079,13.3358992 30.7716728,15.4425832 30.5385858,17.5496396 C30.5166069,17.7477493 30.5401557,17.9528412 30.5579789,18.1532783 C30.632504,18.9952443 30.8882164,19.2122526 31.7137177,19.205829 C35.0823061,19.1794826 38.4509868,19.1462471 41.8195752,19.1496917 C42.9249842,19.1508088 44.0302084,19.256939 45.1357098,19.3121453 C45.8882559,19.3496633 46.366343,19.7639434 46.6135594,20.4487623 C46.9833219,21.4729185 47.0877678,22.537851 46.8904195,23.6061351 C46.7328734,24.4587142 46.1596675,25.0612357 45.4861715,25.5545548 C45.0915673,25.8435268 44.6645488,26.08744 44.2159208,26.3748293" id="Fill-1"></path>
            <path d="M0,18 L11,18 L11,47 L4.5170965,47 C3.01446011,37.353414 1.51182371,27.7060797 0,18" id="Fill-4"></path>
        </g>
    </g>
</svg>