<?xml version="1.0" encoding="UTF-8"?>
<svg width="180px" height="40px" viewBox="0 0 180 40" version="1.1" xmlns="http://www.w3.org/2000/svg" xmlns:xlink="http://www.w3.org/1999/xlink">
    <!-- Generator: Sketch 48.2 (47327) - http://www.bohemiancoding.com/sketch -->
    <title>logo</title>
    <desc>Created with Sketch.</desc>
    <defs>
        <polygon id="path-1" points="0 38.9511875 179.378605 38.9511875 179.378605 0 0 0"></polygon>
    </defs>
    <g id="Desktop-HD-Copy" stroke="none" stroke-width="1" fill="none" fill-rule="evenodd" transform="translate(-77.000000, -25.000000)">
        <g id="logo-copy-3" transform="translate(71.000000, 26.000000)">
            <g id="Page-1" transform="translate(6.251163, -0.593750)">
                <path d="M131.831963,6.88613438 L131.831963,3.72055625 L130.820465,3.72055625 L130.820465,2.32049375 L131.831963,2.32049375 L131.831963,0.655915625 L133.437916,0.655915625 L133.437916,2.32049375 L134.677135,2.32049375 L134.677135,3.72055625 L133.437916,3.72055625 L133.437916,6.45715 C133.437916,6.84813438 133.640335,7.13847813 133.99427,7.13847813 C134.234493,7.13847813 134.462214,7.05000938 134.550623,6.94907188 L134.892056,8.17219688 C134.651833,8.3868375 134.221991,8.56318125 133.551628,8.56318125 C132.426419,8.56318125 131.831963,7.9830875 131.831963,6.88613438 Z" id="Fill-1" fill="#FFFFFF"></path>
                <path d="M139.912335,8.41198281 L139.912335,4.70431094 C139.912335,3.85940469 139.469693,3.59429531 138.786828,3.59429531 C138.154567,3.59429531 137.661321,3.94757656 137.395795,4.30056094 L137.395795,8.41198281 L135.77734,8.41198281 L135.77734,2.96875e-05 L137.395795,2.96875e-05 L137.395795,3.10267031 C137.787833,2.64874844 138.534102,2.16929531 139.533098,2.16929531 C140.873526,2.16929531 141.518288,2.90109219 141.518288,4.08621719 L141.518288,8.41198281 L139.912335,8.41198281 Z" id="Fill-3" fill="#FFFFFF"></path>
                <path d="M145.880945,3.48077031 C144.88195,3.48077031 144.452108,4.17456719 144.388703,4.77989531 L147.398489,4.77989531 C147.347885,4.19980156 146.943047,3.48077031 145.880945,3.48077031 M142.719643,5.35998906 C142.719643,3.59447344 144.034768,2.16917656 145.880945,2.16917656 C147.71462,2.16917656 148.941038,3.53123906 148.941038,5.51139531 L148.941038,5.88961406 L144.401503,5.88961406 C144.515215,6.63387969 145.122173,7.25167656 146.159271,7.25167656 C146.677522,7.25167656 147.385689,7.03733281 147.777727,6.65881719 L148.498396,7.71806719 C147.891438,8.27322344 146.930545,8.56327031 145.982154,8.56327031 C144.123178,8.56327031 142.719643,7.31461406 142.719643,5.35998906" id="Fill-5" fill="#FFFFFF"></path>
                <polygon id="Fill-7" fill="#FFFFFF" points="136.864804 20.9717547 135.57498 16.8226297 134.285157 20.9717547 132.565492 20.9717547 130.706515 14.8801766 132.375576 14.8801766 133.513883 18.9791297 134.854311 14.8801766 136.283148 14.8801766 137.623576 18.9791297 138.761585 14.8801766 140.443446 14.8801766 138.584469 20.9717547"></polygon>
                <path d="M144.009436,16.0405719 C143.010441,16.0405719 142.580599,16.7343688 142.517194,17.3396969 L145.52698,17.3396969 C145.476376,16.7596031 145.071539,16.0405719 144.009436,16.0405719 M140.848134,17.9197906 C140.848134,16.154275 142.16326,14.7289781 144.009436,14.7289781 C145.843111,14.7289781 147.069529,16.0910406 147.069529,18.0711969 L147.069529,18.4494156 L142.529994,18.4494156 C142.643706,19.1936813 143.250664,19.8114781 144.287762,19.8114781 C144.806013,19.8114781 145.51418,19.5971344 145.906218,19.2186188 L146.626887,20.2778688 C146.019929,20.833025 145.059036,21.1230719 144.110646,21.1230719 C142.251669,21.1230719 140.848134,19.8744156 140.848134,17.9197906" id="Fill-9" fill="#FFFFFF"></path>
                <path d="M152.4313,19.0043938 L152.4313,16.8475969 C152.165775,16.4441438 151.584119,16.1540969 151.053068,16.1540969 C150.12998,16.1540969 149.497719,16.8731281 149.497719,17.9199094 C149.497719,18.9791594 150.12998,19.6981906 151.053068,19.6981906 C151.584119,19.6981906 152.165775,19.4078469 152.4313,19.0043938 L152.4313,19.0043938 Z M152.4313,20.9717844 L152.4313,20.1898156 C151.950854,20.7951438 151.293291,21.1231906 150.547021,21.1231906 C149.016975,21.1231906 147.841161,19.9630031 147.841161,17.9199094 C147.841161,15.9397531 148.991673,14.7290969 150.547021,14.7290969 C151.267989,14.7290969 151.950854,15.0316125 152.4313,15.6624719 L152.4313,12.5598313 L154.049756,12.5598313 L154.049756,20.9717844 L152.4313,20.9717844 Z" id="Fill-11" fill="#FFFFFF"></path>
                <path d="M159.841548,19.0043938 L159.841548,16.8475969 C159.576022,16.4441438 158.994367,16.1540969 158.463315,16.1540969 C157.540227,16.1540969 156.907967,16.8731281 156.907967,17.9199094 C156.907967,18.9791594 157.540227,19.6981906 158.463315,19.6981906 C158.994367,19.6981906 159.576022,19.4078469 159.841548,19.0043938 L159.841548,19.0043938 Z M159.841548,20.9717844 L159.841548,20.1898156 C159.361101,20.7951438 158.703539,21.1231906 157.957269,21.1231906 C156.427222,21.1231906 155.251408,19.9630031 155.251408,17.9199094 C155.251408,15.9397531 156.40192,14.7290969 157.957269,14.7290969 C158.678236,14.7290969 159.361101,15.0316125 159.841548,15.6624719 L159.841548,12.5598313 L161.460004,12.5598313 L161.460004,20.9717844 L159.841548,20.9717844 Z" id="Fill-13" fill="#FFFFFF"></path>
                <mask id="mask-2" fill="white">
                    <use xlink:href="#path-1"></use>
                </mask>
                <g id="Clip-16"></g>
                <path d="M163.053544,20.9718438 L164.659498,20.9718438 L164.659498,14.8802656 L163.053544,14.8802656 L163.053544,20.9718438 Z M162.90173,13.2661563 C162.90173,12.7365313 163.33187,12.3203125 163.850121,12.3203125 C164.381172,12.3203125 164.811312,12.7365313 164.811312,13.2661563 C164.811312,13.7960781 164.381172,14.2244687 163.850121,14.2244687 C163.33187,14.2244687 162.90173,13.7960781 162.90173,13.2661563 L162.90173,13.2661563 Z" id="Fill-15" fill="#FFFFFF" mask="url(#mask-2)"></path>
                <path d="M170.375114,20.9717547 L170.375114,17.2893172 C170.375114,16.4441141 169.932473,16.1540672 169.249607,16.1540672 C168.617347,16.1540672 168.1369,16.5073484 167.858575,16.8603328 L167.858575,20.9717547 L166.252621,20.9717547 L166.252621,14.8801766 L167.858575,14.8801766 L167.858575,15.6624422 C168.250612,15.2085203 169.009384,14.7290672 169.995877,14.7290672 C171.348807,14.7290672 171.99357,15.4858016 171.99357,16.6715203 L171.99357,20.9717547 L170.375114,20.9717547 Z" id="Fill-17" fill="#FFFFFF" mask="url(#mask-2)"></path>
                <path d="M177.77274,18.8150766 L177.77274,16.8352172 C177.494415,16.4442328 176.912759,16.1541859 176.394508,16.1541859 C175.47142,16.1541859 174.839159,16.7847484 174.839159,17.8315297 C174.839159,18.8783109 175.47142,19.5088734 176.394508,19.5088734 C176.912759,19.5088734 177.494415,19.2060609 177.77274,18.8150766 M173.448127,22.5355141 L174.168796,21.3877953 C174.662043,21.9177172 175.319606,22.1320609 176.078378,22.1320609 C176.849652,22.1320609 177.77274,21.8040141 177.77274,20.5681234 L177.77274,19.9752641 C177.292294,20.5805922 176.634731,20.9214047 175.875959,20.9214047 C174.358415,20.9214047 173.182601,19.8618578 173.182601,17.8315297 C173.182601,15.8389047 174.333113,14.7288891 175.875959,14.7288891 C176.609429,14.7288891 177.279494,15.0317016 177.77274,15.6625609 L177.77274,14.8802953 L179.378694,14.8802953 L179.378694,20.5681234 C179.378694,22.8763266 177.583122,23.4436547 176.078378,23.4436547 C175.04128,23.4436547 174.219401,23.2037797 173.448127,22.5355141" id="Fill-18" fill="#FFFFFF" mask="url(#mask-2)"></path>
                <path d="M134.272506,28.6003438 C133.273511,28.6003438 132.843669,29.2941406 132.780264,29.8994688 L135.79005,29.8994688 C135.739446,29.319375 135.334608,28.6003438 134.272506,28.6003438 M131.111204,30.4795625 C131.111204,28.7140469 132.426329,27.28875 134.272506,27.28875 C136.10618,27.28875 137.332599,28.6508125 137.332599,30.6309688 L137.332599,31.0091875 L132.793064,31.0091875 C132.906776,31.7534531 133.513734,32.37125 134.550832,32.37125 C135.069083,32.37125 135.77725,32.1569063 136.169287,31.7783906 L136.889957,32.8376406 C136.282999,33.3927969 135.322106,33.6828438 134.373715,33.6828438 C132.514739,33.6828438 131.111204,32.4341875 131.111204,30.4795625" id="Fill-19" fill="#FFFFFF" mask="url(#mask-2)"></path>
                <polygon id="Fill-20" fill="#FFFFFF" mask="url(#mask-2)" points="142.277031 33.5315563 140.885998 31.4756969 139.482463 33.5315563 137.699393 33.5315563 139.8745 30.4039781 137.825905 27.4399781 139.621477 27.4399781 140.885998 29.3067281 142.138017 27.4399781 143.933589 27.4399781 141.897793 30.4039781 144.072603 33.5315563"></polygon>
                <path d="M149.409072,30.4795922 C149.409072,29.4331078 148.776811,28.7140766 147.853723,28.7140766 C147.335174,28.7140766 146.753518,29.0038266 146.47549,29.4075766 L146.47549,31.5516078 C146.741016,31.9425922 147.335174,32.2578734 147.853723,32.2578734 C148.776811,32.2578734 149.409072,31.5388422 149.409072,30.4795922 M146.47549,32.7494984 L146.47549,35.8521391 L144.869537,35.8521391 L144.869537,27.4401859 L146.47549,27.4401859 L146.47549,28.2096859 C146.943137,27.6168266 147.6135,27.2887797 148.359472,27.2887797 C149.92762,27.2887797 151.06563,28.4489672 151.06563,30.4795922 C151.06563,32.5102172 149.92762,33.6828734 148.359472,33.6828734 C147.638802,33.6828734 146.981239,33.3803578 146.47549,32.7494984" id="Fill-21" fill="#FFFFFF" mask="url(#mask-2)"></path>
                <path d="M155.011036,28.6003438 C154.012041,28.6003438 153.582199,29.2941406 153.518794,29.8994688 L156.52858,29.8994688 C156.477976,29.319375 156.073139,28.6003438 155.011036,28.6003438 M151.849734,30.4795625 C151.849734,28.7140469 153.16486,27.28875 155.011036,27.28875 C156.844711,27.28875 158.071129,28.6508125 158.071129,30.6309688 L158.071129,31.0091875 L153.531594,31.0091875 C153.645306,31.7534531 154.252264,32.37125 155.289362,32.37125 C155.807613,32.37125 156.51578,32.1569063 156.907818,31.7783906 L157.628487,32.8376406 C157.021529,33.3927969 156.060636,33.6828438 155.112246,33.6828438 C153.253269,33.6828438 151.849734,32.4341875 151.849734,30.4795625" id="Fill-22" fill="#FFFFFF" mask="url(#mask-2)"></path>
                <path d="M159.23456,33.5315562 L159.23456,27.4399781 L160.840513,27.4399781 L160.840513,28.2599469 C161.283155,27.7303219 162.029127,27.2888687 162.7879,27.2888687 L162.7879,28.8525094 C162.674188,28.8275719 162.534876,28.8148062 162.345258,28.8148062 C161.814207,28.8148062 161.106039,29.1176187 160.840513,29.5083062 L160.840513,33.5315562 L159.23456,33.5315562 Z" id="Fill-23" fill="#FFFFFF" mask="url(#mask-2)"></path>
                <path d="M164.115617,32.0057078 L164.115617,28.8401297 L163.104119,28.8401297 L163.104119,27.4400672 L164.115617,27.4400672 L164.115617,25.7754891 L165.72157,25.7754891 L165.72157,27.4400672 L166.960789,27.4400672 L166.960789,28.8401297 L165.72157,28.8401297 L165.72157,31.5767234 C165.72157,31.9677078 165.923989,32.2580516 166.277924,32.2580516 C166.518147,32.2580516 166.745868,32.1695828 166.834277,32.0686453 L167.17571,33.2917703 C166.935487,33.5064109 166.505645,33.6827547 165.835282,33.6827547 C164.710073,33.6827547 164.115617,33.1026609 164.115617,32.0057078" id="Fill-24" fill="#FFFFFF" mask="url(#mask-2)"></path>
                <path d="M124.725105,5.07775 C124.505124,5.99776563 124.123505,6.81803125 123.30877,7.37378125 C122.299356,8.06223437 121.214035,8.19820312 120.110259,7.68639063 C119.019877,7.18110937 118.37184,6.30354688 118.21437,5.09051563 C117.978314,3.27185938 119.333328,1.76403125 120.874091,1.52564063 C122.748547,1.23589063 124.301514,2.37678125 124.659914,4.23521875 C124.667356,4.275 124.70278,4.30973437 124.725105,4.34684375 L124.725105,5.07775 Z" id="Fill-25" fill="#FFFFFF" mask="url(#mask-2)"></path>
                <path d="M11.885306,28.7073375 C11.885306,28.7073375 4.64794791,24.8328219 4.64794791,20.0964781 C4.64794791,18.1344313 6.24258977,16.543775 8.20992,16.543775 C10.1367665,16.543775 11.7055107,18.0700094 11.769213,19.9759469 L11.8326177,19.94715 C11.910906,18.0545719 13.4736967,16.543775 15.39072,16.543775 C17.3580502,16.543775 18.9529898,18.1344313 18.9529898,20.0964781 C18.9529898,24.5116031 11.885306,28.7073375 11.885306,28.7073375 M23.0754828,19.7209313 C22.7715572,17.6009469 22.0309433,15.6757125 20.6562828,14.0126188 C17.43872,10.1196969 11.539706,9.5315875 7.55920372,11.608525 C6.7739386,12.0185094 6.06666419,12.5769313 5.2891386,13.0896344 L5.2891386,10.9503531 L5.95348837e-05,10.9503531 L5.95348837e-05,38.9513063 L5.31384558,38.9513063 L5.31384558,31.4715406 C5.58949209,31.6553063 5.79578047,31.8132438 6.02022698,31.9394156 C8.67786419,33.4338844 11.5385153,33.6903844 14.4283386,32.9951031 C18.7815293,31.9477281 21.6070549,29.1841188 22.8477619,24.87765 C23.3344595,23.1881344 23.3243386,21.4585406 23.0754828,19.7209313" id="Fill-26" fill="#FFFFFF" mask="url(#mask-2)"></path>
                <path d="M29.6684949,28.6635188 C31.4473972,28.6368 32.9652391,28.2143469 34.1288484,27.0209094 C36.1417228,24.9558469 36.570374,22.4463625 35.7836205,19.7643938 C34.563453,15.6054719 29.7086809,14.5655188 26.5244577,16.2850188 C23.1461507,18.1093156 22.5764019,22.9703469 24.1615181,25.6564719 C25.4218716,27.7915969 27.431174,28.5786125 29.6684949,28.6635188 M35.9794902,13.3038 L35.9794902,11.1443313 L41.2370158,11.1443313 L41.2370158,33.00205 L35.9991367,33.00205 L35.9991367,30.9316438 C35.4487367,31.3508313 34.9807926,31.755175 34.4673042,32.09005 C32.4874716,33.3805656 30.2953972,33.6747688 27.9878251,33.4322219 C26.4259274,33.26805 24.9390437,32.8625188 23.5602158,32.1132063 C20.4664856,30.4311125 18.6959181,27.8025813 18.2014809,24.3561594 C18.0225786,23.1086906 19.8410716,23.0264563 19.9812763,21.8125344 C20.13696,20.4638312 18.6548391,17.9884875 19.2644763,16.7056906 C20.7320112,13.6181906 23.1744298,11.7161125 26.4833786,10.9433469 C28.6260391,10.4431125 30.7743553,10.4986281 32.8833786,11.1930188 C34.0657414,11.5825188 35.063546,12.2534562 35.9794902,13.3038" id="Fill-27" fill="#FFFFFF" mask="url(#mask-2)"></path>
                <path d="M78.0969674,4.56335469 L78.0969674,13.2226047 C78.6181953,12.8117297 79.067386,12.4067922 79.5650977,12.0745891 C81.3922233,10.8559172 83.4500465,10.5498391 85.5906233,10.6587922 C87.6124279,10.7618078 89.4407442,11.4024641 90.9490605,12.7894641 C92.5222698,14.2364328 93.3114047,16.0800266 93.5334698,18.1724016 C93.6165209,18.9573391 93.6266419,19.7523703 93.6284279,20.5429484 C93.6376558,24.5026672 93.6325953,19.5564328 93.6325953,23.5161516 L93.6325953,24.0971359 L88.3173209,24.0971359 L88.3173209,23.5710734 C88.3173209,20.0376672 88.3494698,25.4102141 88.2970791,21.8774016 C88.2818977,20.8582297 88.1342512,19.8111516 87.8535442,18.8320578 C87.3040372,16.9160266 85.8626977,15.8291672 83.8754233,15.6875578 C82.2343442,15.5705891 80.7459721,15.9574172 79.6026047,17.2137922 C78.6411163,18.2700734 78.1931163,19.5724641 78.1624558,20.9671828 C78.0972651,23.9350422 78.1142326,26.9049797 78.1002419,29.8740266 C78.0954791,30.9086359 78.0996465,31.9432453 78.0996465,33.0081359 L72.8007442,33.0081359 L72.8007442,4.56335469 L78.0969674,4.56335469 Z" id="Fill-28" fill="#FFFFFF" mask="url(#mask-2)"></path>
                <path d="M62.5709842,20.2747516 C65.7224633,24.5295641 68.8420912,28.7413297 72.0069656,33.0142516 C71.8027609,33.0252359 71.6738679,33.0377047 71.5449749,33.0380016 C69.6517656,33.0391891 67.7585563,33.0311734 65.865347,33.0466109 C65.5688633,33.0489859 65.4057377,32.9513141 65.2387423,32.7141109 C63.2264633,29.8540172 61.2016819,27.0022359 59.1795795,24.1489703 C59.1015888,24.0385328 59.0158586,23.9334391 58.9774586,23.8832672 C58.1234307,24.6961109 57.2708912,25.4958922 56.4388912,26.3161578 C56.342147,26.4111578 56.3281563,26.6204547 56.3275609,26.7772047 C56.3204167,28.6653297 56.3144633,14.8238297 56.3144633,20.0417047 C56.469254,19.9090016 56.559747,19.8445797 56.6341656,19.7653141 C59.234054,17.0002203 69.1841191,7.72257969 71.7721005,4.94650156 C72.012026,4.68911094 72.2457005,4.58579844 72.5936819,4.58847031 C74.5020726,4.60390781 77.8449563,4.60954844 78.1131609,4.60954844 C78.2786679,4.77312656 62.7367888,20.4383297 62.5709842,20.2747516" id="Fill-29" fill="#FFFFFF" mask="url(#mask-2)"></path>
                <path d="M40.7839851,13.329925 C41.0587386,13.07105 41.2543107,12.8679875 41.4686363,12.6877844 C42.8653247,11.51305 44.5016409,10.9302844 46.3004874,10.7399875 C47.9826456,10.5615656 49.6439665,10.5737375 51.2612316,11.1618469 C53.6122642,12.0171438 55.0565805,13.7063625 55.8162456,16.0380187 C56.2216781,17.2828156 56.3172316,18.5688781 56.319613,19.8632531 C56.3276502,24.0972844 56.3228874,28.3313156 56.3228874,32.5653469 L56.3228874,33.0204563 L50.9945153,33.0204563 C50.9945153,32.8087844 50.994813,32.6152219 50.9945153,32.4213625 C50.9837991,28.5379406 51.0001712,24.653925 50.9397433,20.7713938 C50.9275386,19.9855656 50.7215479,19.1679719 50.4384595,18.4284563 C49.7427944,16.6109875 48.2978828,15.7838938 46.3999107,15.6788 C43.7285805,15.5312531 41.7960781,17.2653 41.1459572,19.6536594 C40.9218084,20.4777844 40.7839851,12.5375656 40.7839851,13.329925" id="Fill-30" fill="#FFFFFF" mask="url(#mask-2)"></path>
                <path d="M103.802047,33.0166859 L103.802047,30.9397484 C103.313265,31.3553734 102.892056,31.7635766 102.422028,32.1043891 C100.972353,33.1550297 99.3101395,33.4985141 97.5508837,33.5071234 C94.8411535,33.5201859 92.4439814,32.7325766 90.5519628,30.7298578 C89.127293,29.2220297 88.3631628,27.3831859 88.334586,25.3294047 C88.269693,20.7168578 88.2994605,27.9778266 88.2917209,23.3643891 C88.2914233,23.2589984 88.3027349,23.1536078 88.3107721,23.0173422 L93.6135442,23.0173422 C93.6135442,23.2040766 93.6561116,23.4056547 93.7016558,23.7334047 C93.7933395,24.3933578 93.9743256,25.0372797 94.244614,25.6610141 C95.2415256,27.9612016 97.4243721,28.6837953 99.5792372,28.4252172 C101.90467,28.1461547 103.192707,26.3714359 103.601116,24.0371078 C103.741619,23.2334672 103.788949,22.4051859 103.794307,21.5872953 C103.815144,18.2833734 103.80294,14.9791547 103.80294,11.6749359 L103.80294,11.1438266 L109.089935,11.1438266 L109.089935,33.0166859 L103.802047,33.0166859 Z" id="Fill-31" fill="#FFFFFF" mask="url(#mask-2)"></path>
                <path d="M109.328848,33.0176656 L104.039174,33.0176656 L104.039174,11.1448063 L109.31962,11.1448063 L109.31962,14.0348844 C110.266523,12.8643063 111.329518,11.9083688 112.736923,11.3704313 C114.129444,10.8384313 115.571974,10.7134469 117.079695,10.753525 L117.079695,15.9580406 C116.336104,16.0714469 115.593407,16.1370563 114.874225,16.3030094 C112.579155,16.8320406 111.044644,18.2594156 110.147155,20.40315 C109.605983,21.6954469 109.366058,23.0563219 109.34909,24.4439156 C109.315751,27.1692281 109.332718,29.8951344 109.328848,32.6207438 L109.328848,33.0176656" id="Fill-32" fill="#FFFFFF" mask="url(#mask-2)"></path>
                <polygon id="Fill-33" fill="#FFFFFF" mask="url(#mask-2)" points="118.806921 33.0169531 124.065935 33.0169531 124.065935 11.131625 118.806921 11.131625"></polygon>
            </g>
        </g>
    </g>
</svg>