<?xml version="1.0" encoding="UTF-8"?>
<svg width="51px" height="50px" viewBox="0 0 51 50" version="1.1" xmlns="http://www.w3.org/2000/svg" xmlns:xlink="http://www.w3.org/1999/xlink">
    <!-- Generator: Sketch 48.2 (47327) - http://www.bohemiancoding.com/sketch -->
    <title>makeup</title>
    <desc>Created with Sketch.</desc>
    <defs></defs>
    <g id="Desktop-HD-Copy-2" stroke="none" stroke-width="1" fill="none" fill-rule="evenodd" transform="translate(-731.000000, -594.000000)">
        <g id="Group" transform="translate(335.000000, 192.000000)" fill="#FFFFFF">
            <g id="makeup" transform="translate(396.333333, 402.000000)">
                <path d="M39.6017578,21.7599222 L46.8378906,21.7599222 L46.8378906,19.7503891 L39.6017578,19.7503891 L39.6017578,21.7599222 Z M40.6324219,17.5879377 L45.7751953,17.5879377 C45.7919922,17.5120623 45.8111328,17.466537 45.8111328,17.4208171 C45.8128906,13.938716 45.8191406,10.4568093 45.8019531,6.97490272 C45.8005859,6.72217899 45.6857422,6.4266537 45.528125,6.22509728 C44.5496094,4.97470817 43.546875,3.74280156 42.5427734,2.51245136 C42.4242187,2.36692607 42.2658203,2.22743191 42.0958984,2.15447471 C41.3394531,1.82957198 40.6203125,2.37392996 40.6197266,3.27042802 C40.6162109,7.93463035 40.6179687,12.5988327 40.6185547,17.2632296 C40.61875,17.3583658 40.6265625,17.4536965 40.6324219,17.5879377 L40.6324219,17.5879377 Z M38.5486328,23.8717899 L38.5486328,24.3070039 C38.5486328,31.6961089 38.5478516,39.0850195 38.5498047,46.4741245 C38.55,47.3754864 38.9402344,47.7492218 39.8724609,47.7503891 C42.0849609,47.7527237 44.2972656,47.7519455 46.5095703,47.7507782 C47.5367187,47.7501946 47.9248047,47.3649805 47.925,46.3420233 C47.9257812,39.0340467 47.9253906,31.7258755 47.9253906,24.4178988 L47.9253906,23.8717899 L38.5486328,23.8717899 Z M49.9929688,35.3229572 C49.9929688,39.0513619 49.9939453,42.7797665 49.9925781,46.5083658 C49.9917969,48.4782101 48.6669922,49.8001946 46.6892578,49.8027237 C44.3783203,49.805642 42.0673828,49.8052529 39.7566406,49.8029183 C37.7966797,49.8007782 36.4494141,48.5093385 36.4462891,46.5624514 C36.4339844,39.0406615 36.4410156,31.5188716 36.4417969,23.9970817 C36.4419922,23.2581712 36.7101563,22.6494163 37.2992188,22.1764591 C37.4117188,22.0859922 37.4833984,21.8844358 37.4878906,21.7317121 C37.5080078,21.0513619 37.4949219,20.3702335 37.4972656,19.6894942 C37.4996094,19.0680934 37.7496094,18.5402724 38.2253906,18.1643969 C38.4955078,17.9509728 38.5552734,17.731323 38.5548828,17.4219844 C38.5488281,12.6560311 38.5451172,7.89007782 38.5542969,3.12412451 C38.5578125,1.31809339 40.0148438,-0.0608949416 41.8242188,0.00564202335 C42.7941406,0.0412451362 43.5759766,0.482879377 44.178125,1.21439689 C45.1986328,2.4540856 46.1916016,3.71653696 47.1955078,4.97003891 C47.7378906,5.64708171 47.9255859,6.43326848 47.9248047,7.28287938 C47.921875,10.6710117 47.9265625,14.0589494 47.9183594,17.4470817 C47.9175781,17.7579767 47.9847656,17.9698444 48.2476563,18.1850195 C48.671875,18.5317121 48.9197266,19.0145914 48.9273438,19.583463 C48.9367188,20.2964981 48.9216797,21.0103113 48.9498047,21.7225681 C48.95625,21.8856031 49.0572266,22.0861868 49.1806641,22.1961089 C49.7232422,22.6797665 49.9960938,23.2640078 49.9951172,23.9916342 C49.9904297,27.768677 49.9929688,31.5457198 49.9929688,35.3229572 Z M23.4562891,44.6267704 L23.4562891,47.7510895 L23.9783594,47.7510895 C26.3219141,47.7510895 28.6652734,47.747393 31.0088281,47.7567315 C31.2617578,47.7577043 31.5459375,47.7761868 31.7603906,47.8901946 C32.1680078,48.1069261 32.3342187,48.4940856 32.2527734,48.9567315 C32.1654688,49.4534241 31.813125,49.688249 31.3547266,49.7935019 C31.2461328,49.8184047 31.1277734,49.803035 31.0139062,49.803035 C25.2691797,49.8034241 19.5244531,49.8036187 13.7797266,49.8020623 C13.6182031,49.8018677 13.4498437,49.8067315 13.2965234,49.7656809 C12.7676172,49.6238521 12.4348047,49.138249 12.5012109,48.6359144 C12.5699609,48.11607 12.9758203,47.7580934 13.5547266,47.7561479 C15.9469141,47.7481712 18.3392969,47.7518677 20.7314844,47.7510895 L21.3609766,47.7510895 C21.3609766,46.7429183 21.3730859,45.7909728 21.3426172,44.8403891 C21.3396875,44.7431128 21.0867578,44.580856 20.9424219,44.5722957 C18.7873437,44.4442802 16.6992578,43.9977821 14.6791406,43.2540078 C10.2646875,41.6285214 6.706875,38.8792996 4.00472656,35.0475875 C1.88460937,32.0411673 0.613710937,28.7024514 0.177578125,25.0493385 C-0.521640625,19.1927237 0.83890625,13.8479767 4.35199219,9.11451362 C7.85804687,4.39077821 12.5295312,1.42210117 18.3732812,0.379883268 C24.0529687,-0.633151751 29.3527734,0.382023346 34.2627344,3.39719844 C34.8428125,3.75342412 35.3961328,4.15478599 35.9469141,4.5555642 C36.4754297,4.93980545 36.5955469,5.5822179 36.2533594,6.04466926 C35.8762109,6.55420233 35.2613672,6.63785992 34.7088281,6.21821012 C32.2275781,4.33377432 29.4654687,3.04758755 26.4058984,2.4551751 C22.5383203,1.70634241 18.7195703,1.95303502 15.0609766,3.44525292 C8.38617187,6.16782101 4.02425781,11.0158755 2.56195312,18.0664591 C0.91546875,26.0051751 3.39203125,32.7141245 9.57757812,37.9732685 C12.8201562,40.7302724 16.6719141,42.1828016 20.9236719,42.4831907 C24.5228906,42.7374708 27.9736719,42.0954475 31.2357812,40.5265759 C31.4402734,40.4283268 31.6396875,40.3174319 31.8496484,40.2324125 C32.4195703,40.0014786 32.9549219,40.1966148 33.2105859,40.7174319 C33.4635156,41.2328016 33.2851953,41.8005058 32.7455469,42.078716 C30.5078516,43.2328016 28.1398828,43.9925292 25.6467187,44.3561479 C24.9267969,44.4612062 24.2023828,44.5355253 23.4562891,44.6267704 Z M5.990625,22.5686965 C6.04667969,14.6231712 11.3173828,8.01227626 18.8554687,6.37297665 C24.3447266,5.17920233 29.2492187,6.51577821 33.4814453,10.2210311 C33.975,10.6531323 34.0296875,11.2784241 33.6353516,11.7282296 C33.2427734,12.1757004 32.5945312,12.2011868 32.0707031,11.7434047 C30.7263672,10.5690856 29.2587891,9.57998054 27.5646484,9.00449416 C21.7376953,7.02531128 16.50625,8.0531323 12.1355469,12.4130545 C7.0703125,17.4657782 6.69921875,25.6292023 11.1798828,31.2113035 C13.8107422,34.48893 17.2695312,36.2887354 21.4794922,36.5906809 C24.6253906,36.8161673 27.5308594,36.0492412 30.1916016,34.3622763 C30.3150391,34.2840661 30.4363281,34.2017704 30.5650391,34.1334825 C31.1164062,33.8414591 31.7001953,33.9869844 32.0076172,34.4883463 C32.2910156,34.9509922 32.1763672,35.5955447 31.659375,35.8885409 C30.6181641,36.4782296 29.5818359,37.1072179 28.4736328,37.5437938 C21.9154297,40.1272568 14.5453125,38.3171401 9.95019531,32.9986576 C7.30195312,29.9334825 6.05859375,26.3247276 5.990625,22.5686965 Z M29.3996875,16.6067899 C29.3227344,16.7392802 29.2260547,17.0268288 29.0334766,17.2194358 C25.1100391,21.144144 21.1776172,25.0597082 17.2412891,28.9713813 C16.7082812,29.5011479 16.1272266,29.5046498 15.6522266,29.0233268 C15.260625,28.6262451 15.3061328,27.985 15.7828906,27.5099027 C19.7125781,23.5914202 23.6465625,19.6772179 27.5764453,15.7591245 C27.9239062,15.4126265 28.3205859,15.2943385 28.7705859,15.4902529 C29.1780078,15.6674903 29.3778125,16.0069844 29.3996875,16.6067899 Z M19.6704297,17.7872568 C19.4592969,18.1578794 19.3534375,18.4757782 19.1423047,18.691537 C18.0659375,19.7919261 16.9716016,20.8751946 15.8649609,21.9456226 C15.1434766,22.643677 14.1921094,22.4393969 14.02375,21.5395914 C13.9725781,21.2660506 14.0758984,20.860214 14.264375,20.6627432 C15.4159375,19.4557393 16.6065625,18.2855058 17.7975781,17.1168288 C18.1294141,16.7911479 18.5731641,16.6997082 18.9591016,16.9592412 C19.2374219,17.1464008 19.4161328,17.4808366 19.6704297,17.7872568 Z M30.9119336,23.3398833 C30.7236523,23.6994163 30.6425977,23.9974708 30.4537305,24.1912451 C29.3884961,25.2840467 28.3033398,26.3577821 27.2125195,27.4254864 C26.7451367,27.8828794 26.124043,27.8824903 25.6861523,27.4622568 C25.2902539,27.0824903 25.2699414,26.4799611 25.7129102,26.0229572 C26.8091992,24.892607 27.9259961,23.7815175 29.0527539,22.681323 C29.3810742,22.3608949 29.8341992,22.2712062 30.2191602,22.5289883 C30.4976758,22.7153696 30.6746289,23.0519455 30.9119336,23.3398833 Z M21.3179492,14.0096498 C21.8872852,14.0020623 22.3480273,14.4392218 22.364043,15.0020623 C22.3816211,15.6166537 21.7499805,16.2759922 21.1376758,16.2820233 C20.5536914,16.2878599 20.1118945,15.8649027 20.1011523,15.2901946 C20.0894336,14.6647082 20.7044727,14.017821 21.3179492,14.0096498 Z M23.4626367,30.7489689 C22.8653711,30.7569455 22.4089258,30.3110311 22.4122461,29.7225097 C22.4153711,29.1563619 22.929043,28.6283463 23.4905664,28.614144 C24.0458398,28.6001362 24.5474023,29.0997471 24.544668,29.6639494 C24.5417383,30.2404086 24.0423242,30.7411868 23.4626367,30.7489689 Z" id="Combined-Shape"></path>
            </g>
        </g>
    </g>
</svg>