<?xml version="1.0" encoding="UTF-8"?>
<svg width="35px" height="50px" viewBox="0 0 35 50" version="1.1" xmlns="http://www.w3.org/2000/svg" xmlns:xlink="http://www.w3.org/1999/xlink">
    <!-- Generator: Sketch 48.2 (47327) - http://www.bohemiancoding.com/sketch -->
    <title>men dress</title>
    <desc>Created with Sketch.</desc>
    <defs></defs>
    <g id="Desktop-HD-Copy-2" stroke="none" stroke-width="1" fill="none" fill-rule="evenodd" transform="translate(-336.000000, -593.000000)">
        <g id="Group" transform="translate(335.000000, 192.000000)" fill="#FFFFFF">
            <g id="men-dress" transform="translate(1.000000, 401.000000)">
                <path d="M13.8560971,2.08328794 C13.8560971,2.1883463 13.8442626,2.23815175 13.8578597,2.28328794 C14.9360612,5.88562257 16.0132554,9.4879572 17.1065647,13.0873735 C17.1536511,13.2424319 17.3495504,13.3704475 17.4759532,13.5111089 C17.6083993,13.3755058 17.8156295,13.2539105 17.8622122,13.1027432 C18.6249101,10.620642 19.369982,8.13542802 20.1130396,5.65001946 C20.4648022,4.47356031 20.803723,3.29496109 21.1585072,2.08328794 L13.8560971,2.08328794 Z M23.0092266,47.7346498 C23.2292986,46.4025486 23.4455935,45.1200584 23.6520683,43.8367899 C24.0468885,41.381537 24.4041906,38.9225875 24.8365288,36.4714202 C25.2892626,33.9035214 25.7092626,31.3369844 25.5360252,28.7377626 C25.5231835,28.5461284 25.4305216,28.3200584 25.2726439,28.1776459 C23.8404137,26.8865953 22.386277,25.6101362 20.9366727,24.3305642 C20.2819964,23.7527432 19.6227878,23.1778405 18.8943345,22.5387354 L18.8943345,47.7346498 L23.0092266,47.7346498 Z M16.0683993,47.7323152 L16.0683993,22.4891245 C15.9218525,22.6447665 15.877536,22.7006031 15.8223921,22.7492412 C13.7672122,24.5663619 11.7064928,26.3799805 9.66365108,28.2052724 C9.51861511,28.3348444 9.44760791,28.5480739 9.43426259,28.7264786 C9.22451439,31.5560506 9.77519784,34.3432101 10.2344784,37.1356226 C10.5985791,39.3492412 10.9541187,41.5638327 11.3139388,43.7778405 C11.5272122,45.0902918 11.7417446,46.4027432 11.9582914,47.7323152 L16.0683993,47.7323152 Z M25.5458453,25.2435992 L25.5458453,15.5169455 C25.5458453,14.8362062 25.5330036,14.1550778 25.5516367,13.4745331 C25.5652338,12.9737549 26.025018,12.5663619 26.6303417,12.4737549 C27.2326439,12.3813424 27.8923561,12.6393191 28.0975719,13.101965 C28.2025719,13.3387354 28.2068525,13.6099416 28.2071043,13.8655837 C28.2128957,18.7290078 28.2113849,23.5924319 28.2113849,28.455856 L28.2113849,29.0504086 L32.2003777,29.0504086 L32.2003777,25.9628599 C31.7849101,25.9628599 31.4104856,25.9733658 31.0375719,25.9607198 C30.1519964,25.9307588 29.5605216,25.4875681 29.5756295,24.8792023 C29.5904856,24.281537 30.1489748,23.8819261 31.0320324,23.8521595 C31.4213129,23.8391245 31.8118525,23.8500195 32.2114568,23.8500195 C32.2260612,23.7007977 32.2406655,23.6216148 32.2406655,23.5424319 C32.2419245,18.0792023 32.2459532,12.6159728 32.2258094,7.15293774 C32.2253058,6.97297665 32.0392266,6.72258755 31.8408094,6.62492218 C29.2790108,5.36616732 26.6995863,4.12842412 24.1226799,2.8879572 C24.0103777,2.8338716 23.8794424,2.8031323 23.7260971,2.75099222 C23.0626079,4.97472763 22.4122122,7.15585603 21.7645863,9.32725681 C21.8721043,9.3768677 21.923723,9.40429961 21.9791187,9.42550584 C22.6252338,9.67219844 22.9306655,10.0710311 22.8322122,10.5414591 C22.726205,11.0474903 22.2754856,11.3659728 21.5158094,11.3858171 C21.1267806,11.3961284 21.0807014,11.5694747 21.018759,11.7770623 C20.7689748,12.6111089 20.4826799,13.4397082 20.2817446,14.2807588 C20.1216007,14.9511868 19.8154137,15.4838716 18.844982,15.6105253 C18.844982,16.7990467 18.8306295,17.9494358 18.8598381,19.0992412 C18.8646223,19.2828988 19.0189748,19.4937938 19.1818885,19.6406809 C20.2595863,20.6128599 21.3571763,21.5716148 22.451241,22.5328988 C23.4425719,23.4042996 24.4376799,24.2731712 25.5458453,25.2435992 L25.5458453,25.2435992 Z M11.2333633,2.72142023 C11.0059892,2.82297665 10.8443345,2.89048638 10.6884712,2.96558366 C8.21883094,4.15566148 5.75573741,5.35449416 3.27451439,6.52978599 C2.86660072,6.72297665 2.71652878,6.92667315 2.71778777,7.29963035 C2.73491007,12.6334825 2.7296223,17.9671401 2.7296223,23.3009922 L2.7296223,23.8492412 C3.17253597,23.8492412 3.52606115,23.8422374 3.87933453,23.8506031 C4.80267986,23.8721984 5.41379496,24.3140272 5.39541367,24.9383463 C5.37803957,25.5272568 4.75458633,25.9439883 3.85239209,25.9622763 C3.48652878,25.9696693 3.11991007,25.9636381 2.77796763,25.9636381 L2.77796763,29.0447665 L6.76066547,29.0447665 L6.76066547,28.4404864 C6.76066547,23.609358 6.76066547,18.778035 6.76091727,13.9469066 C6.76091727,13.7686965 6.75588129,13.5897082 6.77124101,13.4120817 C6.81178058,12.9478794 7.27332734,12.5506031 7.85296763,12.4704475 C8.44544964,12.3885409 9.05883094,12.6249222 9.28167266,13.0725875 C9.39070144,13.2912646 9.41991007,13.5447665 9.42041367,13.7827043 C9.42872302,17.3978794 9.42620504,21.013249 9.42620504,24.6286187 L9.42620504,25.2447665 C11.6923921,23.2541051 13.8382194,21.3704475 15.9785072,19.4830934 C16.0545504,19.4159728 16.1169964,19.3120817 16.1175,19.2251167 C16.1265647,18.0138327 16.1235432,16.8025486 16.1235432,15.5893191 C15.2848022,15.496323 14.9149101,15.1083852 14.7640827,14.548463 C14.6321403,14.0583852 14.4830755,13.5708366 14.3370324,13.0830934 C13.3104496,9.65332685 12.2826079,6.22375486 11.2333633,2.72142023 L11.2333633,2.72142023 Z M28.362464,31.1301751 C27.9583273,33.7406809 27.5743345,36.2760895 27.1707014,38.8095525 C26.7794065,41.2657782 26.3667086,43.7200584 25.9648381,46.1753113 C25.8230755,47.0418482 25.6818165,47.9085798 25.5463489,48.7758949 C25.4383273,49.4673346 24.9541187,49.8064397 24.0451259,49.8068288 C19.6817086,49.8079961 15.3182914,49.807607 10.9548741,49.8070233 C10.0030755,49.8068288 9.54077338,49.479786 9.42242806,48.7529377 C8.76372302,44.7085798 8.08285971,40.6665564 7.44732014,36.6200584 C7.17008993,34.8548833 6.9832554,33.0813424 6.75336331,31.3118872 C6.74732014,31.2663619 6.71861511,31.2225875 6.68109712,31.1301751 C5.12221223,31.1301751 3.55451439,31.1303696 1.98681655,31.1301751 C1.75616906,31.1301751 1.52401079,31.1408755 1.2948741,31.1253113 C0.669154676,31.0828988 0.195269784,30.7659728 0.0723920863,30.2912646 C0.0195143885,30.087179 0.0147302158,29.8731712 0.0144784173,29.6638327 C0.0119604317,21.9971012 0.0197661871,14.3303696 0.000125899281,6.66383268 C-0.00188848921,5.95177043 0.327715827,5.49476654 1.11534173,5.12161479 C4.45293165,3.53970817 7.75451439,1.91285992 11.0903417,0.329007782 C11.4919604,0.138346304 12.0209892,0.0229766537 12.4928597,0.0192801556 C15.8279317,-0.00678988327 19.163759,-0.00562256809 22.4988309,0.0185019455 C22.9520683,0.0218093385 23.461205,0.129202335 23.8457014,0.312276265 C27.2691547,1.94068093 30.6664209,3.60196498 34.0820683,5.24048638 C34.7017446,5.53776265 34.9636151,5.93678988 34.9633633,6.48717899 C34.9578237,14.2673346 34.9610971,22.0474903 34.9575719,29.8276459 C34.9573201,30.7367899 34.4381115,31.1290078 33.2702698,31.1299805 C31.614946,31.1311479 29.9596223,31.1301751 28.362464,31.1301751 L28.362464,31.1301751 Z" id="Fill-1"></path>
            </g>
        </g>
    </g>
</svg>