<?xml version="1.0" encoding="UTF-8"?>
<svg width="148px" height="149px" viewBox="0 0 148 149" version="1.1" xmlns="http://www.w3.org/2000/svg" xmlns:xlink="http://www.w3.org/1999/xlink">
    <!-- Generator: Sketch 48.2 (47327) - http://www.bohemiancoding.com/sketch -->
    <title>photo</title>
    <desc>Created with Sketch.</desc>
    <defs></defs>
    <g id="Desktop-HD" stroke="none" stroke-width="1" fill="none" fill-rule="evenodd" transform="translate(-639.000000, -1931.000000)">
        <g id="photo" transform="translate(639.000000, 1931.000000)" fill="#5C00AD">
            <path d="M27.3123037,121.470848 C33.2235333,119.860988 38.713237,118.36604 44.9045704,116.680306 C43.9102296,116.39825 43.737563,116.307531 43.5643481,116.305881 C41.1925111,116.285538 38.8201259,116.27894 36.4477407,116.264645 C32.808037,116.243752 32.3475926,115.8017 32.3459481,112.159723 C32.3399185,100.806032 32.3503333,89.4517926 32.3541704,78.0981026 C32.3547185,77.1210804 32.3541704,76.1446081 32.3541704,74.7227852 C26.6934444,76.2655675 21.4750741,77.68849 16.0034593,79.1795897 C19.7944519,93.3560325 23.5141852,107.267464 27.3123037,121.470848 L27.3123037,121.470848 Z M131.582141,31.6139513 C113.476259,26.7535823 95.6499333,21.968538 77.5736519,17.1164162 C76.1309259,22.5469439 74.7830296,27.6189919 73.3424963,33.0412723 L76.6856519,33.0412723 C88.278437,33.0412723 99.8712222,33.0533683 111.463459,33.030276 C113.5974,33.0264273 115.303237,33.3376229 115.289533,36.0735048 C115.232526,47.3309771 115.330644,58.5911985 115.109193,69.8448221 C115.054926,72.5829033 116.518481,73.0447483 118.453993,73.5472797 C120.737578,74.139431 120.722778,72.3464827 121.082911,71.0065823 C123.835711,60.7629697 126.568778,50.513859 129.302941,40.2652982 C130.050615,37.4628886 130.781296,34.6560804 131.582141,31.6139513 L131.582141,31.6139513 Z M64.0184963,32.7674642 C68.6635037,33.3370731 68.6640519,33.3376229 69.7373259,29.3228701 C71.0134148,24.5477225 72.3371926,19.7852207 73.5431185,14.992479 C74.1285407,12.66511 75.2440222,11.8684273 77.6898593,12.5348037 C96.359237,17.6216967 115.044511,22.64811 133.74623,27.6123941 C136.175622,28.2573277 136.808733,29.4883646 136.177267,31.808586 C132.139059,46.6387594 128.124422,61.4749808 124.153089,76.3227483 C123.532585,78.6407705 122.227993,79.1773904 120.080896,78.4928701 C118.593222,78.0183793 117.057311,77.6956376 115.302141,77.2425897 C115.302141,82.596693 115.255,87.4400177 115.35257,92.2800435 C115.36737,93.0063498 115.905652,94.162062 116.467504,94.3599956 C118.75383,95.1649255 121.143756,95.6746044 123.713474,96.3503277 C130.132289,72.3145934 136.466141,48.5955528 142.866867,24.6268959 C118.897444,18.180859 95.2240222,11.8139956 71.3286,5.38775203 C68.8668667,14.6081579 66.4648815,23.6053387 64.0184963,32.7674642 L64.0184963,32.7674642 Z M4.69406667,72.11611 C11.1676963,96.2453129 17.5333407,119.97425 23.9609259,143.931361 C47.9232222,137.485874 71.5741704,131.124508 95.4279333,124.708162 C94.8523778,122.461615 94.2461259,120.551556 93.894763,118.594763 C93.5483333,116.664361 92.5550889,116.184372 90.6782296,116.208564 C82.4598444,116.314678 74.2392667,116.223959 66.0203333,116.291036 C64.4005556,116.304232 62.7402148,116.535154 61.1725111,116.947516 C49.8779185,119.919269 38.5953852,122.939405 27.3254593,126.006826 C25.2874444,126.56104 23.9965556,126.239948 23.4012667,123.999449 C19.4578889,109.15883 15.4865556,94.3253572 11.4834296,79.5006819 C10.8333259,77.09249 11.4012074,75.7415934 14.0005259,75.1027077 C20.0833259,73.6077594 26.1135037,71.8972834 32.1025704,70.2907225 L32.1025704,64.8261063 C22.8657259,67.2832317 13.9051481,69.6661321 4.69406667,72.11611 L4.69406667,72.11611 Z M110.744837,105.740627 C109.534526,105.740627 108.637756,105.741176 107.740985,105.740627 C96.7824074,105.737877 85.8238296,105.739527 74.8658,105.723582 C73.9602593,105.721933 72.9642741,105.812103 72.1776815,105.470667 C71.5434741,105.19521 70.7535926,104.319354 70.7727778,103.73435 C70.7968963,102.990999 71.4168519,102.043667 72.0642148,101.611512 C72.6655333,101.209597 73.6395926,101.293169 74.4497556,101.292069 C83.490363,101.283822 92.5309704,101.300866 101.572126,101.309663 C104.563919,101.312413 107.556259,101.309663 110.855015,101.309663 C110.855015,99.9538185 110.858304,98.9641506 110.854467,97.9750325 C110.823222,90.4744494 110.758541,82.9738664 110.76457,75.4732834 C110.773889,63.6692945 110.7854,51.8642059 110.908733,40.0607668 C110.930659,37.9747668 110.260274,37.4331985 108.238704,37.4386967 C85.3162444,37.5030251 62.3937852,37.5090731 39.4713259,37.4337483 C37.2891481,37.4266007 36.6894741,38.0764827 36.6993407,40.2257114 C36.7503185,50.844848 36.6050593,61.4645343 36.6072519,72.0836708 C36.6099926,84.4457225 36.7618296,96.8088738 36.6828963,109.169826 C36.6680963,111.51259 37.5385556,111.876568 39.553,111.871619 C62.2013852,111.814438 84.8497704,111.829833 107.498156,111.815538 C108.554985,111.814988 109.611815,111.713822 110.744837,111.656092 L110.744837,105.740627 Z M115.282407,99.087859 C115.282407,103.49573 115.295015,107.962431 115.278022,112.428582 C115.264867,115.74177 114.769889,116.242103 111.473874,116.255848 C107.021815,116.275092 102.569756,116.260796 97.8304667,116.260796 C98.6444667,119.367254 99.3406148,122.103136 100.081163,124.826922 C100.645756,126.904675 100.006067,128.057638 97.8266296,128.639892 C73.1391333,135.23328 48.4647926,141.875601 23.7975778,148.544863 C21.6444519,149.127117 20.5700815,148.459641 20.006037,146.320859 C14.3387333,124.829671 8.62593333,103.350579 2.92519259,81.8681875 C2.0804963,78.6842059 1.37612593,75.4523904 0.337385185,72.3321875 C-0.511696296,69.7799439 0.22062963,68.7045048 2.77171111,68.0551727 C11.7865556,65.7602428 20.7389111,63.2211948 29.7526593,60.9240657 C31.8252074,60.3962428 32.4418741,59.4786007 32.3996667,57.3706081 C32.2615333,50.5034125 32.3393704,43.6307188 32.356363,36.7602244 C32.364037,33.6152797 32.9001259,33.0566672 35.990037,33.0484199 C42.5656222,33.0308258 49.1455926,32.9175638 55.7146,33.1248443 C58.4312222,33.2106155 59.6601704,32.5629328 60.3437111,29.6967446 C62.422837,20.9772207 64.8873111,12.3500657 67.2262593,3.69377048 C68.1274148,0.359139483 68.5642889,0.106224354 71.8191926,0.97878155 C96.0572074,7.47540148 120.29303,13.979169 144.526111,20.4928332 C147.840215,21.3835343 148.141696,21.9091579 147.293711,25.0854421 C140.80583,49.384538 134.315756,73.6830841 127.816363,97.979431 C126.886704,101.454815 126.444348,101.694534 123.025,100.787339 C120.732096,100.179243 118.442481,99.5590509 116.147385,98.959752 C115.987874,98.9185159 115.794378,99.0070362 115.282407,99.087859 L115.282407,99.087859 Z" id="Fill-1"></path>
            <path d="M140.076964,137.513861 C138.042787,137.60623 136.817127,138.625587 136.594579,140.632414 C136.382994,142.537525 137.912327,144.200167 139.803987,144.277691 C141.617261,144.351916 143.394905,142.690923 143.284727,140.868835 C143.165231,138.892798 142.081542,137.713993 140.076964,137.513861 M140.124653,133.056506 C144.299898,133.125233 147.71212,136.649001 147.701705,140.880381 C147.690742,145.254713 144.219868,148.705905 139.854964,148.682263 C135.529527,148.658621 131.953957,144.9963 132.108535,140.747325 C132.269142,136.337805 135.764683,132.983931 140.124653,133.056506" id="Fill-4"></path>
            <path d="M19.0313706,38.5784094 C16.9358003,38.5267268 15.5166447,39.8435349 15.4075632,41.7156567 C15.2951929,43.6455091 16.7691632,45.2955054 18.640541,45.3339925 C20.4560077,45.3708301 22.1804817,43.6988412 22.0774299,41.8652065 C21.9639632,39.8440847 20.7690003,38.7878891 19.0313706,38.5784094 M26.4746743,42.0719371 C26.3875188,46.4572655 22.8097558,49.894712 18.4958299,49.7391142 C14.0865262,49.5802176 10.815178,46.0559002 10.9681114,41.6298855 C11.1150151,37.3743135 14.6017855,34.0171401 18.8006003,34.0897157 C23.1709855,34.1650404 26.5618299,37.6921069 26.4746743,42.0719371" id="Fill-7"></path>
            <path d="M10.137377,5.75113727 C11.9791548,6.49448783 15.3365622,4.88352842 15.32834,8.26489373 C15.3206659,11.5088052 12.083303,9.88355056 10.344577,10.5790672 C8.96708074,12.1542886 11.2205178,15.9804546 7.5709474,15.8853365 C4.40539185,15.803414 5.92705111,12.5996391 5.19636963,10.7929454 C3.5760437,9.64218155 -0.169452597,11.6830967 0.00595481081,8.03891956 C0.152858515,4.98964281 3.36281407,6.48953949 5.15416222,5.71979779 C6.01859185,3.97578303 4.30398444,0.532288566 7.65316963,0.549882661 C11.0231844,0.566926942 9.17592518,4.04890849 10.137377,5.75113727" id="Fill-9"></path>
            <path d="M131.305973,116.264859 C133.157617,117.065391 136.379632,115.391752 136.40375,118.665903 C136.430061,122.141287 133.021676,120.304354 131.253898,121.186258 C130.261202,122.839003 132.190684,126.324284 128.811898,126.353424 C125.418313,126.383114 127.086876,123.016594 126.352358,121.20825 C124.608698,120.295007 121.204698,122.111597 121.141661,118.758822 C121.075884,115.253749 124.551143,117.206693 126.281647,116.220324 C127.213498,114.556033 125.329513,111.125184 128.713232,111.063605 C132.226861,110.999276 130.230506,114.502151 131.305973,116.264859" id="Fill-11"></path>
            <path d="M116.996768,135.592101 C115.404946,136.604312 114.525168,137.59233 113.671153,137.570887 C112.990353,137.553293 111.815672,136.299164 111.82225,135.603648 C111.829924,134.885039 112.982679,133.625411 113.663479,133.605618 C114.518042,133.580876 115.402205,134.576042 116.996768,135.592101" id="Fill-13"></path>
            <path d="M41.2698548,5.8181476 C40.31224,4.28746125 39.3228326,3.39676015 39.3628474,2.55499262 C39.3957363,1.85672694 40.8466844,0.550365314 41.3065807,0.692767528 C42.188003,0.965476015 43.2305807,1.99253137 43.4032474,2.86673801 C43.5282252,3.49957565 42.3590252,4.39027675 41.2698548,5.8181476" id="Fill-15"></path>
            <path d="M35.8418723,16.4944649 C36.9250131,17.8547085 38.0772205,18.6893284 37.9758131,19.3216162 C37.8327464,20.2117675 36.7594723,20.9512694 36.084702,21.7550996 C35.3463464,21.0161476 34.2171612,20.3750627 34.0006427,19.5052546 C33.8444205,18.8773653 34.9017983,17.945428 35.8418723,16.4944649" id="Fill-17"></path>
            <path d="M45.9803111,90.7789373 L101.595422,90.7789373 L101.595422,47.2643395 L45.9803111,47.2643395 L45.9803111,90.7789373 Z M73.8180148,95.4127823 C64.2314519,95.4127823 54.6443407,95.4336753 45.0577778,95.4006863 C41.894963,95.38969 41.4635704,94.898155 41.4619259,91.6740369 C41.4531556,76.6684723 41.4515111,61.6629077 41.4591852,46.6573432 C41.4608296,43.1781107 41.8110963,42.7965387 45.1728889,42.7937897 C64.3471111,42.7794945 83.5213333,42.8179815 102.695007,42.748155 C105.348593,42.7388081 106.217956,43.8076494 106.208089,46.3516458 C106.149985,61.5529446 106.142859,76.7547934 106.216859,91.9560923 C106.229467,94.6402915 105.082193,95.4738118 102.5788,95.4562177 C92.992237,95.3880406 83.4051259,95.4287269 73.8180148,95.4287269 L73.8180148,95.4127823 Z" id="Fill-19"></path>
            <path d="M61.438363,106.599054 C60.5267926,105.110153 59.5521852,104.2255 59.6519481,103.486548 C59.7544519,102.726703 60.905563,102.10981 61.5973259,101.430238 C62.3258148,102.186234 63.4758296,102.861958 63.6402741,103.726268 C63.7581259,104.34481 62.556037,105.216817 61.438363,106.599054" id="Fill-21"></path>
            <path d="M73.9217244,83.6178653 C82.2360356,83.3473561 88.6701985,76.860083 88.4454578,68.9729797 C88.2086578,60.6691162 81.4916504,54.1499539 73.4251022,54.3951716 C65.1332652,54.6469871 58.7725541,61.7423561 59.1420059,70.3277251 C59.4511615,77.512714 66.5085689,83.8586845 73.9217244,83.6178653 M73.8148356,50.0087435 C82.899843,50.0345849 92.8070726,56.6961494 92.8251615,69.3023192 C92.8399615,79.7207731 84.6933837,88.0477288 73.6860207,88.1769354 C63.267917,88.2995443 54.66528,79.2627768 54.7228356,68.4880424 C54.7760059,58.5644225 63.6390133,49.9862011 73.8148356,50.0087435" id="Fill-22"></path>
            <path d="M73.465117,80.7272653 C70.8033096,79.3202875 68.4298281,78.266841 66.3156207,76.8301731 C65.6446874,76.3738262 65.665517,74.8942727 65.3700652,73.8837118 C66.5222726,73.7143686 68.0992948,72.9770661 68.7565244,73.4713502 C72.2564504,76.1011177 75.4521541,76.1709443 78.9487911,73.4708004 C79.6115022,72.959472 81.1435763,73.5813133 82.2744059,73.6797303 C82.0507615,74.741424 82.174643,76.3809738 81.5431763,76.7614461 C79.0551319,78.2624424 76.3297393,79.3675716 73.465117,80.7272653" id="Fill-23"></path>
            <path d="M66.5565319,61.5361753 C67.456043,62.9887878 68.4991689,63.9493155 68.3265022,64.5695074 C68.0858652,65.4360166 66.9369467,66.0485111 66.1766652,66.769869 C65.5068281,65.9528432 64.4291689,65.193548 64.3052874,64.3006476 C64.2181319,63.6694594 65.4218652,62.8579317 66.5565319,61.5361753" id="Fill-24"></path>
            <path d="M84.4859096,64.6621513 C83.01468,65.7018524 82.0888578,66.8284244 81.4732874,66.6783247 C80.5891244,66.4622472 79.6128726,65.419797 79.3179689,64.5191993 C79.1798356,64.096941 80.539243,62.6316827 81.2266207,62.6272841 C82.0828281,62.6206863 82.9461615,63.6350959 84.4859096,64.6621513" id="Fill-25"></path>
        </g>
    </g>
</svg>