<?xml version="1.0" encoding="UTF-8"?>
<svg width="51px" height="50px" viewBox="0 0 51 50" version="1.1" xmlns="http://www.w3.org/2000/svg" xmlns:xlink="http://www.w3.org/1999/xlink">
    <!-- Generator: Sketch 48.2 (47327) - http://www.bohemiancoding.com/sketch -->
    <title>ring</title>
    <desc>Created with Sketch.</desc>
    <defs></defs>
    <g id="Desktop-HD-Copy-2" stroke="none" stroke-width="1" fill="none" fill-rule="evenodd" transform="translate(-477.000000, -595.000000)">
        <g id="Group" transform="translate(335.000000, 192.000000)" fill="#FFFFFF">
            <g id="ring" transform="translate(142.333333, 403.000000)">
                <path d="M19.1705058,14.1833268 C18.3473541,14.9856615 18.3294553,15.8451946 19.0858755,16.6055058 C20.5603891,18.087607 22.0393774,19.5648444 23.5175875,21.043249 C23.6020233,21.1276848 23.6950195,21.2035603 23.8370428,21.3309922 L23.8370428,16.4173735 C22.0457977,16.176323 20.5037743,15.4177626 19.1705058,14.1833268 L19.1705058,14.1833268 Z M25.9596109,21.3031712 C27.6633074,19.6208755 29.3284825,18.015428 30.9440467,16.3611479 C31.5440467,15.746751 31.3382101,14.715428 30.6018288,14.2002529 C29.3584436,15.3374125 27.9111673,16.0761284 26.2368482,16.3630934 C26.1298444,16.3815759 25.9726459,16.5652335 25.9714786,16.6735992 C25.9539689,18.1953891 25.9596109,19.7175681 25.9596109,21.3031712 L25.9596109,21.3031712 Z M29.1428794,12.7010311 C26.9269261,9.88157588 22.6942412,9.887607 20.6829572,12.7134825 C22.9150584,14.9453891 26.9607782,14.9395525 29.1428794,12.7010311 L29.1428794,12.7010311 Z M37.1315953,27.1259339 C37.1315953,27.0691245 37.1422957,27.0331323 37.1302335,27.0082296 C35.6693385,23.9800195 33.4522179,21.715428 30.3627237,20.3459728 C30.2282879,20.2864397 29.9553307,20.3537549 29.8426848,20.4617315 C29.0942412,21.1792412 28.3740078,21.9259339 27.6409339,22.6595914 C26.0012451,24.3000584 23.8633074,24.3181518 22.2158366,22.6981128 C21.476537,21.9708755 20.7440467,21.2360506 20.0288716,20.4852724 C19.8135019,20.2590078 19.6419066,20.2368288 19.3636965,20.3642607 C16.6035798,21.6272957 14.5185603,23.6090078 13.0514397,26.2539494 C12.8998833,26.5271012 12.776537,26.8158171 12.6261479,27.1259339 L37.1315953,27.1259339 Z M38.4483268,32.3844942 C38.319144,31.474572 38.1874319,30.6486965 38.0901556,29.8187354 C38.0389883,29.3811868 37.8524125,29.2547276 37.4031907,29.2555058 C29.0882101,29.27107 20.773035,29.2718482 12.4580545,29.2543385 C11.9677821,29.2533658 11.7611673,29.3951946 11.7086381,29.8685409 C11.6175875,30.6924708 11.4959922,31.5130934 11.3806226,32.3844942 C11.8277043,32.3844942 12.1500778,32.374572 12.4716732,32.3866342 C13.0590272,32.4084241 13.4885992,32.8413035 13.4948249,33.4018093 C13.5004669,33.9082296 13.0568872,34.4140661 12.5135019,34.422821 C11.0876265,34.4455837 9.66058366,34.4485019 8.23470817,34.4202918 C7.66097276,34.4090078 7.26700389,33.9053113 7.28976654,33.3348833 C7.31233463,32.7714591 7.69638132,32.4070623 8.30688716,32.3860506 C8.64151751,32.374572 8.97692607,32.3841051 9.28723735,32.3841051 C9.417393,31.3130934 9.53937743,30.3099805 9.66214008,29.3008366 C9.61622568,29.2905253 9.56953307,29.2708755 9.52284047,29.2708755 C7.3833463,29.2695136 5.24385214,29.2632879 3.10435798,29.2739883 C2.47712062,29.2772957 2.07614786,29.7055058 2.07225681,30.3794358 C2.06058366,32.3730156 2.06097276,34.3667899 2.0714786,36.3603696 C2.07575875,37.1407198 2.50513619,37.5485019 3.28976654,37.5485019 C17.6992996,37.5500584 32.1090272,37.5502529 46.5185603,37.5485019 C47.3210895,37.5483074 47.7438521,37.130214 47.7473541,36.3164008 C47.7557198,34.3712646 47.7566926,32.4261284 47.746965,30.4811868 C47.7428794,29.656284 47.3409339,29.2697082 46.5181712,29.2681518 C44.5245914,29.2646498 42.5308171,29.2664008 40.5372374,29.2683463 C40.400856,29.2685409 40.2644747,29.2883852 40.1535798,29.2969455 C40.2802335,30.3442218 40.4020233,31.3486965 40.5273152,32.3841051 C40.8671984,32.3841051 41.1897665,32.3747665 41.511751,32.3860506 C42.1177821,32.4074514 42.4971595,32.7712646 42.5251751,33.3420817 C42.5528016,33.8996693 42.146965,34.4093969 41.5716732,34.4206809 C40.1457977,34.4485019 38.7187549,34.4475292 37.2928794,34.4220428 C36.7234241,34.4117315 36.2909339,33.8852724 36.3210895,33.3471401 C36.3514397,32.809786 36.7745914,32.4070623 37.3467704,32.3864397 C37.6681712,32.3749611 37.9901556,32.3844942 38.4483268,32.3844942 L38.4483268,32.3844942 Z M47.7561089,39.5492802 L2.11252918,39.5492802 C2.11252918,40.754144 2.07284047,41.983716 2.13081712,43.2088132 C2.15610895,43.7436381 2.30805447,44.3021984 2.5288716,44.7930545 C3.50727626,46.9669844 5.27595331,47.9397471 7.60280156,47.9414981 C18.946965,47.9498638 30.291323,47.9461673 41.6354864,47.9420817 C42.1199222,47.9418872 42.6074708,47.9214591 43.0884047,47.8658171 C45.1996887,47.6214591 46.63607,46.4743774 47.3971595,44.5119261 C48.026537,42.8895525 47.652607,41.1889689 47.7561089,39.5492802 L47.7561089,39.5492802 Z M18.2347082,18.5907198 C17.9524125,18.3531712 17.726537,18.1928599 17.5362646,17.9979183 C16.0971595,16.522821 16.0835409,14.3761284 17.5152529,12.8979183 C18.3384047,12.0481128 19.167393,11.2020039 20.030428,10.3934436 C22.5819844,8.00297665 26.6243969,7.81659533 29.3273152,10.0352724 C30.4621401,10.9667899 31.5063035,12.0280739 32.4868482,13.1241829 C33.7352918,14.5197082 33.6436576,16.5119261 32.3722568,17.8924708 C32.1559144,18.1274903 31.8788716,18.3064786 31.5829572,18.5500584 C31.8195331,18.6961673 31.9220623,18.7681518 32.0317899,18.8259339 C35.4107782,20.6095914 37.8531907,23.250642 39.3064981,26.7903307 C39.4245914,27.0780739 39.5825681,27.1607588 39.8841245,27.1590078 C42.0399611,27.1457782 44.1957977,27.1520039 46.3516342,27.1520039 C47.4349027,27.1518093 47.7498833,26.8434436 47.7500778,25.7739883 C47.750856,19.7928599 47.7531907,13.811537 47.7448249,7.83040856 C47.7442412,7.36328794 47.711751,6.88643969 47.6150584,6.43079767 C47.0798444,3.90628405 45.0113619,2.25161479 42.3777043,2.25044747 C30.739572,2.24480545 19.1012451,2.24616732 7.46291829,2.25492218 C6.9985214,2.25511673 6.51875486,2.29928016 6.07225681,2.41970817 C3.55474708,3.09947471 2.07439689,5.04149805 2.06914397,7.64616732 C2.06252918,10.8879961 2.067393,14.1298249 2.067393,17.3716537 C2.067393,20.2082296 2.06525292,23.0448054 2.06856031,25.8815759 C2.06953307,26.7850778 2.42303502,27.1510311 3.27828794,27.1516148 C5.48276265,27.1527821 7.68743191,27.1444163 9.89171206,27.159786 C10.23393,27.1621206 10.3963813,27.0619261 10.5269261,26.7350778 C11.2625292,24.8963619 12.3430739,23.2755447 13.7133074,21.8473346 C14.9812062,20.5257393 16.4592218,19.4897471 18.2347082,18.5907198 L18.2347082,18.5907198 Z M0.797159533,28.2130934 C0.146575875,27.4675681 -0.00245136187,26.6060895 7.78210117e-05,25.6679572 C0.0156420233,19.6212646 0.0053307393,13.5743774 0.00902723735,7.52768482 C0.0111673152,4.00978599 2.36817121,1.08507782 5.80299611,0.356673152 C6.3214786,0.246750973 6.86330739,0.202587549 7.3944358,0.202198444 C19.0664202,0.193638132 30.7384047,0.192276265 42.4105837,0.197529183 C46.5917121,0.199474708 49.7996887,3.39889105 49.8070817,7.58099222 C49.8179767,13.7413035 49.8080545,19.9016148 49.8119455,26.0617315 C49.8125292,26.8722374 49.5403502,27.5769066 49.0203113,28.2109533 C49.6802335,28.9656226 49.8218677,29.8477237 49.817393,30.8000584 C49.7992996,34.7068677 49.8113619,38.6138716 49.8094163,42.5208755 C49.8078599,46.1469455 47.5722568,48.9926654 44.0448249,49.8218482 C43.5146693,49.9463619 42.9541634,49.9901362 42.4076654,49.9905253 C30.7354864,49.9996693 19.0635019,50.0004475 7.39151751,49.9957782 C3.8136965,49.9942218 0.9407393,47.6889689 0.172256809,44.1981128 C0.0551361868,43.6660117 0.016614786,43.1070623 0.0148638132,42.5603696 C0.00221789883,38.5399416 0.0154474708,34.5195136 0.0020233463,30.4992802 C-0.000894941634,29.6525875 0.215252918,28.9045331 0.797159533,28.2130934 L0.797159533,28.2130934 Z" id="Fill-1"></path>
            </g>
        </g>
    </g>
</svg>