<?xml version="1.0" encoding="UTF-8"?>
<svg width="34px" height="32px" viewBox="0 0 34 32" version="1.1" xmlns="http://www.w3.org/2000/svg" xmlns:xlink="http://www.w3.org/1999/xlink">
    <!-- Generator: Sketch 48.2 (47327) - http://www.bohemiancoding.com/sketch -->
    <title>Combined Shape</title>
    <desc>Created with Sketch.</desc>
    <defs></defs>
    <g id="phno-copy" stroke="none" stroke-width="1" fill="none" fill-rule="evenodd" transform="translate(-359.000000, -19.000000)">
        <path d="M369.665149,42.4630051 C376.685697,35.4078295 383.667271,28.3917729 390.648846,21.3758086 C390.625697,21.3483146 390.602548,21.3209128 390.579399,21.293511 C382.671324,27.6414991 374.76325,33.9894872 366.836005,40.352883 C365.684527,39.5001063 364.55267,38.6631063 363.42217,37.8241688 C362.277473,36.9747134 361.126266,36.1341152 359.992239,35.2699902 C358.870511,34.4151836 358.666601,33.0116955 359.551234,32.0217253 C359.832096,31.707389 360.236027,31.4604961 360.630011,31.3054961 C367.247351,28.7026955 373.872106,26.1197313 380.494872,23.5316003 C384.185229,22.0894545 387.875043,20.6462938 391.564856,19.2026717 C391.960739,19.047764 392.353277,18.8512461 392.738309,19.2301658 C393.138532,19.6241241 392.952346,20.044008 392.801335,20.4657372 C389.722527,29.0615021 386.644351,37.6574515 383.565452,46.2531241 C383.307559,46.9729515 383.059793,47.6971152 382.781282,48.408639 C382.201473,49.8894426 380.501745,50.4660795 379.231989,49.5417997 C376.045574,47.2222432 372.892165,44.8555408 369.665149,42.4630051 Z M372.950035,47.8761 C372.673948,48.0883574 372.453252,48.2755752 372.216035,48.437397 C371.108991,49.1928624 370.005165,49.9535851 368.885252,50.6886446 C367.827687,51.3827139 366.624557,50.8699812 366.387252,49.6115851 C365.94073,47.2444069 365.524904,44.8711693 365.098035,42.5001594 C365.080035,42.3998228 365.078643,42.2963673 365.059861,42.0873178 C367.709774,44.0314069 370.295861,45.928803 372.950035,47.8761 Z" id="Combined-Shape" fill="#00BE02"></path>
    </g>
</svg>