<?xml version="1.0" encoding="UTF-8"?>
<svg width="125px" height="118px" viewBox="0 0 125 118" version="1.1" xmlns="http://www.w3.org/2000/svg" xmlns:xlink="http://www.w3.org/1999/xlink">
    <!-- Generator: Sketch 48.2 (47327) - http://www.bohemiancoding.com/sketch -->
    <title>photo copy</title>
    <desc>Created with Sketch.</desc>
    <defs></defs>
    <g id="Desktop-HD" stroke="none" stroke-width="1" fill="none" fill-rule="evenodd" transform="translate(-1003.000000, -1947.000000)">
        <g id="photo-copy" transform="translate(991.000000, 1931.000000)" fill="#5C00AD">
            <path d="M63.8514219,97.7448424 C63.9452299,97.7448424 64.0390379,97.7448424 64.1320894,97.7456047 C64.1320894,106.124776 63.924804,114.51157 64.2107671,122.881593 C64.3809832,127.857107 66.4031508,129.537973 71.0443773,129.584473 C77.4732513,129.649268 83.9028819,129.564653 90.3317559,129.618014 C93.2148389,129.642408 95.3595621,128.709356 95.7136117,125.562593 C96.0094095,122.938766 93.7928172,121.126023 90.3688252,121.061228 C86.840434,120.99567 83.3044776,121.14813 79.7821385,120.98576 C74.8473838,120.758596 72.4522538,118.183556 72.4076193,113.291132 C72.3728196,109.480408 72.5574095,105.660537 72.3523936,101.861247 C72.1768819,98.6115744 73.2465957,97.233341 76.6312489,97.3636938 C81.9185401,97.5664649 87.2186921,97.3682676 92.5127919,97.4330629 C95.4163008,97.4681286 97.6820666,96.551085 97.7395619,93.3334284 C97.8008397,89.9114762 95.4851438,88.8991455 92.4099057,88.9334488 C86.863886,88.9944326 81.3163532,88.8960963 75.7703335,88.9692768 C73.3744469,89.000531 72.3100287,88.0446103 72.3803847,85.5846771 C72.4749493,82.2846924 72.3728196,78.980134 72.4068628,75.6778624 C72.4386365,72.6027554 71.828128,69.8356165 68.1181729,69.7944524 C64.3204619,69.7525261 63.8431002,72.6103784 63.8476393,75.6427967 C63.8589871,83.0096371 63.8514219,90.3772398 63.8514219,97.7448424 M76.5608929,84.5410922 C82.1878598,84.5410922 87.2126399,84.5006905 92.2374201,84.5517644 C98.3296444,84.6135105 102.079695,87.9302657 102.092556,93.1695345 C102.106173,98.4385329 98.3523399,101.790354 92.306263,101.836092 C87.2777003,101.873444 82.2483811,101.843715 76.6584834,101.843715 C76.6584834,106.173563 76.4307721,110.314361 76.8339952,114.391127 C76.9232641,115.296736 79.1814647,116.519461 80.5356286,116.656674 C83.9028819,116.998946 87.3261174,116.742814 90.7251443,116.828953 C96.5177883,116.976839 100.04618,120.378209 99.9395108,125.609855 C99.8366246,130.617386 96.2136688,133.896026 90.6600839,133.923469 C83.9845856,133.956247 77.3098438,133.95701 70.635102,133.923469 C64.9302139,133.894501 61.7112378,131.406363 60.3843085,125.809577 C59.892573,123.734604 59.6535139,121.551385 59.6444357,119.415428 C59.5816449,104.694706 59.5990448,89.9739845 59.6149316,75.2525005 C59.6217402,69.1693687 62.9549503,65.3045218 68.1083382,65.3136693 C73.2571869,65.3228169 76.4988585,69.1381145 76.5563538,75.2929023 C76.5835883,78.1888695 76.5608929,81.0848366 76.5608929,84.5410922" id="Fill-1"></path>
            <path d="M44.1233669,96.7005045 C44.2961788,96.0103686 44.4081309,95.7706852 44.4088822,95.530241 C44.4351797,89.5731584 44.5606561,83.6130322 44.4209039,77.6589932 C44.3480224,74.5895244 45.3781316,73.1544678 48.5218057,73.3507799 C50.7661065,73.4915463 53.0404615,73.516656 55.2727406,73.2944733 C56.1585895,73.206209 57.5102791,72.4650928 57.7063831,71.7536518 C58.2916895,69.6360683 58.4089011,67.3860883 58.7620385,64.797508 C56.8160261,64.797508 55.3358545,64.8195741 53.8564343,64.7937035 C43.2728317,64.608805 44.4952882,66.6404068 44.4967909,54.9621204 C44.4967909,50.0170342 46.7696432,47.8697757 51.7045503,47.7845549 C54.9000679,47.7297702 58.0963369,47.7739023 61.2340002,47.7739023 L61.2340002,37.0832636 C55.098426,37.0832636 49.2288318,37.0239135 43.3614918,37.0992425 C36.8231907,37.1837024 33.9950862,40.0872951 33.9424912,46.6530973 C33.9041721,51.4703524 33.823777,56.2914119 33.9732968,61.1041016 C34.0612055,63.9506268 32.9341713,64.9740367 30.2059972,64.8287049 C27.3688764,64.6788077 24.5174799,64.7952253 21.4827524,64.7952253 L21.4827524,73.3774114 C24.3303922,73.3774114 26.9458629,73.5402439 29.5335334,73.3378446 C33.0273395,73.0639208 34.1333357,74.5149562 34.0003457,77.9907454 C33.7629171,84.1555536 33.933475,90.3363406 33.933475,96.7005045 L44.1233669,96.7005045 Z M29.7657025,60.6110387 C29.7657025,55.5365996 29.7176157,51.0054427 29.7754701,46.4758077 C29.8896762,37.4386037 34.5969224,32.7598324 43.5681147,32.7255919 C49.575207,32.7027649 55.5868074,32.8648365 61.5878889,32.6631981 C64.7796498,32.5559113 65.8052509,33.7969385 65.6474661,36.8861906 C65.4603784,40.5514438 65.4393404,44.2440893 65.6527256,47.9070598 C65.8420673,51.1538182 64.5114156,52.200055 61.4751855,51.980916 C58.8597148,51.7922129 56.220952,51.9314575 53.5934596,51.9451537 C48.8877161,51.9687416 48.8170887,52.0493969 48.8298617,56.9077406 C48.8328671,57.912128 48.8306131,58.9165154 48.8306131,60.6003861 C52.210213,60.6003861 55.3899521,60.5927771 58.5696913,60.6019079 C63.7022051,60.6171259 63.8915468,60.8316996 63.0875957,66.062884 C62.6457983,68.9406061 62.0657514,71.797023 61.6720408,74.6800714 C61.3790119,76.8220037 60.3519081,77.7708454 58.1774834,77.6947555 C55.2058699,77.5912731 52.2289969,77.6688849 48.8298617,77.6688849 C48.8298617,84.319147 48.6983744,90.6193953 48.883208,96.9097519 C48.9816357,100.240209 47.796747,101.472106 44.5155748,101.270467 C40.9000491,101.048285 37.2514637,101.065785 33.6329325,101.267424 C30.6079727,101.436343 29.6605126,100.129118 29.7303887,97.2521567 C29.8536111,92.1853265 29.7634484,87.113931 29.7619457,82.0440573 L29.7619457,77.6688849 C26.2801614,77.6688849 23.2942721,77.6026866 20.3121396,77.6901901 C18.1046553,77.7556274 17.0715406,76.8585269 17.108357,74.5750673 C17.1684655,70.9006834 17.1624547,67.2240167 17.1136165,63.5496328 C17.0858163,61.4328102 18.1076607,60.5836463 20.1002572,60.6034297 C23.09366,60.6323439 26.0870628,60.6110387 29.7657025,60.6110387 L29.7657025,60.6110387 Z" id="Fill-3"></path>
            <path d="M96.0352312,67.5388925 C102.230951,67.5388925 108.426671,67.5821493 114.621632,67.5275091 C121.513953,67.4667978 125.758887,63.3558808 125.872835,56.4901865 C125.986023,49.6707846 125.985263,42.8468294 125.872835,36.0281864 C125.759646,29.1617332 121.510914,25.0068005 114.631507,24.9772037 C102.240827,24.9240813 89.8493866,24.9225635 77.4579464,24.9772037 C70.5663853,25.0075594 66.3138545,29.1708399 66.2113015,36.0190797 C66.1087485,42.8384816 66.1079888,49.6616779 66.2113015,56.4810798 C66.3146141,63.3384263 70.5603081,67.4667978 77.4488306,67.5275091 C83.643791,67.5821493 89.8395111,67.5388925 96.0352312,67.5388925 M95.9121676,71.9321172 C89.708851,71.9313583 83.5047747,71.9951052 77.3029774,71.9161805 C68.1522118,71.80007 61.8911617,65.4443511 61.8372264,56.2769379 C61.7984842,49.5744054 61.7962052,42.8711139 61.8379861,36.1685814 C61.89496,27.2075868 68.058015,20.7114728 76.9877219,20.5968802 C89.6450402,20.4344773 102.307676,20.4488963 114.965754,20.590809 C123.96307,20.6925005 130.161829,27.1165198 130.208927,36.0433642 C130.24539,42.8726317 130.247669,49.7018992 130.208167,56.5311667 C130.156511,65.4337266 123.869633,71.7310109 114.901184,71.9313583 C114.775081,71.933635 114.64822,71.9321172 114.521358,71.9321172 L95.9121676,71.9321172" id="Fill-5"></path>
            <path d="M100.676447,45.3758516 C96.5633026,43.5217031 93.2638293,42.0349213 89.5358724,40.3546698 L89.5358724,50.4376848 C93.2705477,48.7408716 96.5707675,47.2412922 100.676447,45.3758516 M84.9972303,45.2252915 C84.9972303,42.7252397 84.9666244,40.2236824 85.0054417,37.7243835 C85.044259,35.2213206 86.2057931,34.232893 88.599031,35.2905782 C94.4970261,37.8960221 100.418162,40.4562979 106.245988,43.2145603 C108.782551,44.4152777 108.805692,46.3454592 106.29227,47.5401542 C100.468924,50.308203 94.5470408,52.8669732 88.6497921,55.4754282 C86.3170197,56.5067655 85.0502309,55.6621229 85.0076812,53.1018471 C84.9636384,50.4768304 84.9979768,47.8510609 84.9972303,45.2252915" id="Fill-7"></path>
            <path d="M42.0547935,115.576213 C40.0035985,115.668922 38.7676858,116.692025 38.5432759,118.706225 C38.3299207,120.618335 39.8720479,122.287086 41.7795321,122.364895 C43.6079754,122.439393 45.400491,120.772297 45.2893915,118.943514 C45.1688956,116.960217 44.0761409,115.777082 42.0547935,115.576213 M42.4443759,111.2558 C46.7282114,111.326394 50.2291798,114.945912 50.2184941,119.292269 C50.207246,123.785464 46.6461004,127.330434 42.1676728,127.306149 C37.7297385,127.281865 34.0611735,123.520029 34.2197716,119.155599 C34.3845561,114.62626 37.97101,111.181252 42.4443759,111.2558" id="Fill-9"></path>
            <path d="M117.900903,111.922323 C119.976282,112.791661 123.587612,110.974171 123.614645,114.529741 C123.644135,118.30384 119.823915,116.309019 117.842537,117.266724 C116.729893,119.061526 118.892514,122.846372 115.10547,122.878017 C111.301839,122.910259 113.172014,119.25438 112.348744,117.290607 C110.394398,116.298869 106.579093,118.271598 106.508439,114.630647 C106.434714,110.824306 110.329888,112.945109 112.269488,111.87396 C113.313936,110.06662 111.202309,106.340884 114.994882,106.274012 C118.933063,106.204154 116.695488,110.008107 117.900903,111.922323" id="Fill-11"></path>
            <path d="M136.832125,74.0111762 C135.069289,75.1575554 134.094995,76.276536 133.149231,76.2522509 C132.395291,76.2323247 131.094411,74.8119603 131.101695,74.0242528 C131.110194,73.2103921 132.386792,71.7838007 133.140732,71.7613838 C134.087103,71.7333625 135.066254,72.8604382 136.832125,74.0111762" id="Fill-13"></path>
            <path d="M123.417814,88.5002375 C121.032371,88.443593 119.416909,89.8868228 119.292739,91.9386798 C119.164825,94.0538099 120.842684,95.8622161 122.972922,95.9043981 C125.039516,95.9447724 127.00253,94.1122622 126.885223,92.1025873 C126.756061,89.8874254 125.395803,88.7298285 123.417814,88.5002375 M131.890722,92.3291654 C131.791511,97.1355123 127.718849,100.902975 122.808194,100.732439 C117.788968,100.558287 114.065106,96.6956135 114.239194,91.844674 C114.406418,87.1805409 118.375501,83.5010581 123.155122,83.5806015 C128.130046,83.6631579 131.989934,87.5288444 131.890722,92.3291654" id="Fill-16"></path>
            <path d="M27.1395731,22.2364716 C29.0624973,23.0412735 32.567828,21.2971391 32.5592435,24.9580357 C32.5512313,28.4701153 29.1712341,26.7105039 27.355902,27.4635176 C25.9177149,29.1689596 28.2704357,33.3114278 24.4600697,33.2084465 C21.1550436,33.1197516 22.7437453,29.6511265 21.9808709,27.6950767 C20.2891554,26.4491813 16.3786371,28.6588152 16.5617727,24.7133806 C16.7151488,21.4120257 20.0665311,23.0359161 21.9368039,22.2025413 C22.8393192,20.314352 21.0491683,16.5861902 24.5459145,16.6052388 C28.0644081,16.6236921 26.1357608,20.3935226 27.1395731,22.2364716" id="Fill-18"></path>
            <path d="M45.0921705,25.4612546 C43.7875809,23.4817664 42.4396791,22.329909 42.4941926,21.2413326 C42.5389982,20.3383333 44.5156718,18.6489425 45.1422035,18.8330975 C46.3429935,19.1857649 47.7633309,20.513956 47.9985603,21.6444827 C48.1688216,22.4628703 46.5759826,23.6147277 45.0921705,25.4612546" id="Fill-21"></path>
            <path d="M89.2042869,107.380074 C90.69979,109.240635 92.2906541,110.38224 92.1506399,111.247092 C91.9531063,112.464654 90.4712263,113.476155 89.5395642,114.575646 C88.5201094,113.564897 86.9610323,112.688011 86.6620831,111.498275 C86.4463855,110.639439 87.9063174,109.364722 89.2042869,107.380074" id="Fill-23"></path>
            <path d="M14.7042869,101.291513 C16.19979,103.152074 17.7906541,104.293679 17.6506399,105.158531 C17.4531063,106.376093 15.9712263,107.387594 15.0395642,108.487085 C14.0201094,107.476336 12.4610323,106.599451 12.1620831,105.409714 C11.9463855,104.550878 13.4063174,103.276161 14.7042869,101.291513" id="Fill-25"></path>
        </g>
    </g>
</svg>