<?xml version="1.0" encoding="UTF-8"?>
<svg width="161px" height="199px" viewBox="0 0 161 199" version="1.1" xmlns="http://www.w3.org/2000/svg" xmlns:xlink="http://www.w3.org/1999/xlink">
    <!-- Generator: Sketch 48.2 (47327) - http://www.bohemiancoding.com/sketch -->
    <title>VENUE</title>
    <desc>Created with Sketch.</desc>
    <defs></defs>
    <g id="Symbols" stroke="none" stroke-width="1" fill="none" fill-rule="evenodd">
        <g id="VENUE" fill="#FFFFFF">
            <path d="M90.5194,97.7165 C90.7544,92.1465 86.4444,87.3355 80.9384,87.0225 C75.6544,86.7215 70.5464,91.3615 70.2374,96.7415 C69.9324,102.0555 74.4714,107.0485 79.9644,107.4425 C85.2514,107.8215 90.2894,103.1795 90.5194,97.7165 L90.5194,97.7165 Z M98.3014,197.9265 C98.3014,187.8805 98.3184,177.9305 98.2974,167.9805 C98.2724,156.5645 91.1304,148.6885 80.7444,148.5765 C70.0174,148.4605 62.5374,156.3055 62.4454,167.9265 C62.3664,177.8905 62.4284,187.8545 62.4284,198.0795 L18.2304,198.0795 C18.1434,196.3805 17.9934,194.7815 17.9904,193.1815 C17.9704,179.1845 18.1224,165.1845 17.8764,151.1915 C17.8104,147.4635 18.9854,145.0065 21.7364,142.6565 C28.7024,136.7065 35.5734,130.6325 42.2024,124.3145 C43.7414,122.8475 44.9114,120.2295 44.9704,118.1045 C45.2544,107.9475 44.9164,97.7735 45.2354,87.6185 C45.3074,85.3365 46.5574,82.4725 48.2394,80.9625 C58.7604,71.5165 69.5584,62.3785 80.4814,52.9515 C91.8764,62.8055 103.1184,72.4115 114.1614,82.2415 C115.3794,83.3255 115.9494,85.6855 115.9774,87.4685 C116.1464,97.7965 115.9024,108.1335 116.1934,118.4565 C116.2534,120.5965 117.4684,123.2345 119.0314,124.7105 C125.9334,131.2245 133.2174,137.3315 140.2104,143.7515 C141.5294,144.9615 142.9574,146.9145 142.9784,148.5425 C143.1814,164.8605 143.1024,181.1825 143.1024,197.9265 L98.3014,197.9265 Z M75.665,20.637 L64.501,20.637 L64.501,11.991 L76.086,11.991 L76.086,0 L84.709,0 L84.709,11.588 L96.69,11.588 L96.69,20.355 L84.814,20.355 C84.814,25.796 84.563,30.736 84.968,35.621 C85.088,37.076 86.872,38.58 88.188,39.722 C103.789,53.256 119.446,66.725 135.084,80.217 C135.458,80.54 135.771,80.933 136.478,81.678 C134.513,84 132.529,86.347 130.192,89.11 C113.557,74.806 97.089,60.646 80.446,46.334 C63.785,60.68 47.416,74.775 30.801,89.081 C28.554,86.479 26.522,84.128 24.31,81.568 C38.962,68.916 52.794,55.843 67.86,44.395 C76.604,37.75 77.214,30.199 75.665,20.637 Z M6.6597,147.3356 C4.4127,144.8586 2.4177,142.6596 -0.0003,139.9956 C12.7567,128.6116 25.4487,117.2846 38.6807,105.4766 C39.2837,112.7616 40.2067,118.7606 33.3907,123.8986 C24.0247,130.9606 15.6547,139.3436 6.6597,147.3356 Z M160.9848,139.9765 C158.6208,142.5915 156.6318,144.7905 154.2898,147.3805 C143.7968,138.0225 133.1028,129.2485 123.5118,119.4015 C121.0748,116.8985 122.1448,110.9805 121.6038,106.6325 C121.9928,106.4325 122.3808,106.2315 122.7688,106.0315 C135.3568,117.2125 147.9438,128.3935 160.9848,139.9765 Z" id="Combined-Shape"></path>
        </g>
    </g>
</svg>