<?xml version="1.0" encoding="UTF-8"?>
<svg width="49px" height="50px" viewBox="0 0 49 50" version="1.1" xmlns="http://www.w3.org/2000/svg" xmlns:xlink="http://www.w3.org/1999/xlink">
    <!-- Generator: Sketch 48.2 (47327) - http://www.bohemiancoding.com/sketch -->
    <title>video</title>
    <desc>Created with Sketch.</desc>
    <defs></defs>
    <g id="Desktop-HD-Copy-2" stroke="none" stroke-width="1" fill="none" fill-rule="evenodd" transform="translate(-903.000000, -593.000000)">
        <g id="Group" transform="translate(335.000000, 192.000000)" fill="#FFFFFF">
            <g id="video" transform="translate(568.666667, 401.000000)">
                <path d="M14.5265756,40.214593 C12.0303805,42.6884302 9.45106341,45.2448256 6.94433171,47.7291279 L14.5265756,47.7291279 L14.5265756,40.214593 Z M24.3135024,47.7359109 C21.7564293,45.2008333 19.1816,42.648314 16.6473561,40.1361047 L16.6473561,47.7359109 L24.3135024,47.7359109 Z M22.8934049,6.40277132 C24.2580878,6.40277132 25.6229659,6.4045155 26.9876488,6.40218992 C28.1533073,6.40025194 29.0746732,5.54424419 29.1008195,4.44463178 C29.1296976,3.2299031 28.264722,2.26226744 27.0616,2.25296512 C24.2672585,2.23106589 21.4725268,2.2304845 18.6781854,2.25354651 C17.5293073,2.26284884 16.5790634,3.27021318 16.6192585,4.34618217 C16.6641366,5.5423062 17.5505756,6.40005814 18.7503805,6.40218992 C20.1314537,6.4047093 21.5123317,6.40277132 22.8934049,6.40277132 L22.8934049,6.40277132 Z M30.1792585,27.0529651 C30.744722,27.0529651 31.2641366,27.0748643 31.7806244,27.0467636 C32.2746732,27.0198256 32.6912585,27.1481202 33.0963317,27.4333915 C33.8500878,27.9643992 34.6206244,28.4742829 35.408722,28.9535465 C35.5979902,29.0686628 35.9257951,29.119438 36.1105756,29.0328101 C36.2682341,28.9591667 36.3929171,28.6457946 36.3936976,28.4378488 C36.4098927,24.4362984 36.4106732,20.4347481 36.3925268,16.4333915 C36.3915512,16.2132364 36.2545756,15.8936628 36.0828683,15.8029651 C35.9146732,15.7140116 35.5816,15.794438 35.3899902,15.9118798 C34.5897951,16.4019961 33.8290146,16.9562597 33.024722,17.4390116 C32.736722,17.6118798 32.3712585,17.7101357 32.0329171,17.7361047 C31.424722,17.7830039 30.8100878,17.7492829 30.1792585,17.7492829 L30.1792585,27.0529651 Z M2.08423415,24.9676938 L15.5763317,24.9676938 L15.5763317,19.8841667 L2.08423415,19.8841667 L2.08423415,24.9676938 Z M3.11681951,27.0518023 C3.11681951,27.4421124 3.11077073,27.7630426 3.11779512,28.0839729 C3.1451122,29.3438566 3.97672195,30.1529651 5.24969756,30.1531589 C12.1263805,30.1545155 19.0028683,30.1543217 25.8793561,30.1533527 C27.170478,30.1531589 28.0719415,29.3529651 28.0811122,28.0822287 C28.1078439,24.3364922 28.1072585,20.5903682 28.0830634,16.844438 C28.0746732,15.5355233 27.1681366,14.6519961 25.9185756,14.6510271 C19.0258927,14.6461822 12.1330146,14.6465698 5.24033171,14.6510271 C4.26238049,14.6518023 3.35642927,15.2940504 3.18081951,16.1845543 C3.08423415,16.6746705 3.16345366,17.1992829 3.16345366,17.7506395 L3.75174634,17.7506395 C7.62081951,17.7506395 11.4898927,17.7502519 15.3589659,17.7510271 C16.7919415,17.7512209 17.6666732,18.6149806 17.6696,20.0372674 C17.6731122,21.6357171 17.6719415,23.2343605 17.6699902,24.8328101 C17.6684293,26.2229264 16.8294049,27.0510271 15.4233561,27.0514147 C11.5380878,27.0521899 7.65262439,27.0516085 3.7673561,27.0518023 L3.11681951,27.0518023 Z M6.26179512,12.6043217 L6.85828293,12.6043217 C13.1341854,12.6043217 19.4102829,12.6041279 25.6863805,12.6045155 C27.7901854,12.6045155 29.1490146,13.5120736 29.9515512,15.4273837 C30.0022829,15.5485078 30.1837463,15.6835853 30.3125268,15.6923062 C30.7817951,15.7240891 31.2555512,15.7207946 31.7257951,15.6961822 C31.8898927,15.687655 32.064722,15.6041279 32.207161,15.5128488 C32.9166244,15.0583915 33.6139902,14.5855233 34.3209171,14.1273837 C35.2284293,13.5393992 36.186478,13.468469 37.1306732,13.9892054 C38.0239415,14.4818411 38.4653073,15.2880426 38.466478,16.3050969 C38.4715512,20.4229264 38.4889171,24.5411434 38.4580878,28.6587791 C38.4428683,30.6808721 36.2352585,31.863624 34.4900878,30.821376 C33.864722,30.4479264 33.2413073,30.0622674 32.6623805,29.6231202 C32.1808195,29.2576163 31.6772098,29.1614922 31.0875512,29.1403682 C30.3993561,29.115562 30.0083317,29.2314535 29.6766244,29.9560659 C28.9392585,31.5663372 27.5150634,32.2496705 25.7663805,32.2572287 C22.9373073,32.269438 20.1082341,32.2605233 17.2789659,32.2605233 L16.6176976,32.2605233 L16.6176976,32.7508333 C16.6176976,34.0266085 16.604039,35.3025775 16.6305756,36.5777713 C16.6352585,36.8043217 16.7509659,37.0833915 16.911161,37.2438566 C20.3242341,40.6595543 23.748039,44.0647868 27.1839415,47.4578101 C27.3542829,47.6260271 27.6514537,47.7475388 27.8924293,47.7523837 C29.2900878,47.7799031 30.688722,47.762655 32.0869659,47.7675 C32.8288195,47.7700194 33.2908683,48.1812597 33.2785756,48.8099419 C33.2672585,49.3909496 32.7722341,49.8089729 32.074478,49.8089729 C21.7823805,49.8105233 11.490478,49.8089729 1.19838049,49.8134302 C0.716819512,49.813624 0.281307317,49.672345 0.122087805,49.2279651 C0.0167219512,48.9335853 0.0319414634,48.4975388 0.186673171,48.2393992 C0.328526829,48.0027713 0.721112195,47.8142054 1.01867317,47.789593 C1.77769756,47.7266085 2.5460878,47.7849419 3.30901463,47.7541279 C3.52481951,47.745407 3.78979512,47.6514147 3.93925854,47.5037403 C7.40950244,44.0764147 10.8678439,40.6372674 14.3216976,37.1936628 C14.4348683,37.0808721 14.5404293,36.8987016 14.5419902,36.7475388 C14.5583805,35.2791279 14.5519415,33.8105233 14.5519415,32.2605233 L13.9755512,32.2605233 C11.0976976,32.2605233 8.2198439,32.2686628 5.34199024,32.2578101 C3.25281951,32.2498643 1.5833561,30.9853295 1.14920976,29.0382364 C1.01418537,28.4324225 1.07018537,27.786686 0.999746341,27.1634302 C0.977892683,26.9702132 0.867453659,26.7527713 0.729307317,26.6128488 C0.316429268,26.1946318 0.00677073171,25.7370736 0.0048195122,25.1331977 C-0.00122926829,23.3246705 -0.00103414634,21.5159496 0.00267317073,19.7074225 C0.00403902439,19.1200194 0.277014634,18.6393992 0.71564878,18.2816473 C0.947453659,18.0925 1.02238049,17.9112984 1.01516098,17.6324225 C0.993112195,16.7771899 0.99057561,15.9258333 1.35350244,15.1147868 C1.84169756,14.0244767 2.63896585,13.2611047 3.75857561,12.8562597 C4.06999024,12.7436628 4.13906341,12.5985078 4.13750244,12.3018023 C4.12638049,10.3961822 4.12989268,8.49056202 4.13262439,6.58513566 C4.1353561,4.61827519 5.45418537,3.3054845 7.43272195,3.30277132 C9.67662439,3.29967054 11.9203317,3.29540698 14.164039,3.30897287 C14.5105756,3.31091085 14.6930146,3.25703488 14.8268683,2.87874031 C15.3897951,1.28920543 16.9324293,0.215368217 18.6397463,0.206453488 C21.4686244,0.191531008 24.2978927,0.187848837 27.1269659,0.206841085 C29.3894049,0.222151163 31.2545756,2.16846899 31.2048195,4.4176938 C31.1552585,6.65257752 29.311161,8.44618217 27.0576976,8.44656977 C24.2450146,8.44715116 21.4319415,8.46013566 18.6192585,8.43668605 C16.8668683,8.42215116 15.4175024,7.38959302 14.8241366,5.75955426 C14.7006244,5.42021318 14.5326244,5.33746124 14.1962341,5.33939922 C11.9851122,5.35277132 9.77379512,5.34463178 7.56247805,5.34715116 C6.59116098,5.34812016 6.23877073,5.69753876 6.23779512,6.65742248 C6.23564878,8.48222868 6.23681951,10.3070349 6.23838049,12.1320349 C6.23838049,12.2731202 6.25203902,12.4142054 6.26179512,12.6043217 Z M47.9788878,14.6306589 C47.7601561,14.9754264 47.6563512,15.2895736 47.4384,15.4577907 C46.0676683,16.5157364 44.6778146,17.5496512 43.2805463,18.572907 C42.777522,18.9413178 42.1978146,18.8556589 41.8438634,18.4178682 C41.4743024,17.9606977 41.5144976,17.3486822 42.020839,16.9601163 C43.3943024,15.9060465 44.7894244,14.8796899 46.1849366,13.8543023 C46.5209366,13.6074031 46.939278,13.5372481 47.2784,13.7845349 C47.5504,13.9829845 47.7246439,14.3132171 47.9788878,14.6306589 Z M42.7875317,26.0570736 C42.9196293,26.1190891 43.2037268,26.2024225 43.4283122,26.3661822 C44.7494829,27.3301357 46.0597268,28.3090116 47.367239,29.291376 C47.885678,29.6809109 47.9869463,30.3128876 47.6304585,30.7824612 C47.2525073,31.2803295 46.6932878,31.3520349 46.1311415,30.939438 C44.7475317,29.9239341 43.370361,28.8997093 41.9988488,27.868314 C41.6230439,27.585562 41.5108488,27.1902132 41.6729951,26.7469961 C41.8322146,26.311531 42.1524098,26.0721899 42.7875317,26.0570736 Z M44.7553366,21.4117442 C45.4372878,21.4117442 46.1196293,21.4010853 46.8013854,21.414845 C47.4331902,21.4276357 47.8214829,21.8111628 47.8328,22.3995349 C47.8433366,22.9493411 47.4187512,23.4357752 46.8406049,23.4444961 C45.4283122,23.4660078 44.0150439,23.4665891 42.6025561,23.4435271 C42.0384585,23.4342248 41.5795317,22.9094186 41.6027512,22.3927519 C41.627922,21.8371318 42.0593366,21.4255039 42.6607024,21.4146512 C43.3586537,21.4020543 44.0569951,21.4117442 44.7553366,21.4117442 Z" id="Combined-Shape"></path>
            </g>
        </g>
    </g>
</svg>