<?xml version="1.0" encoding="UTF-8"?>
<svg width="39px" height="50px" viewBox="0 0 39 50" version="1.1" xmlns="http://www.w3.org/2000/svg" xmlns:xlink="http://www.w3.org/1999/xlink">
    <!-- Generator: Sketch 48.2 (47327) - http://www.bohemiancoding.com/sketch -->
    <title>music</title>
    <desc>Created with Sketch.</desc>
    <defs></defs>
    <g id="Desktop-HD-Copy-2" stroke="none" stroke-width="1" fill="none" fill-rule="evenodd" transform="translate(-989.000000, -593.000000)">
        <g id="Group" transform="translate(335.000000, 192.000000)" fill="#FFFFFF">
            <g id="music" transform="translate(654.333333, 401.000000)">
                <path d="M23.5408081,4.14143969 L25.5173838,4.14143969 L25.5173838,2.10155642 L23.5408081,2.10155642 L23.5408081,4.14143969 Z M23.5500202,15.5696498 L25.5354242,15.5696498 L25.5354242,6.27081712 L23.5500202,6.27081712 L23.5500202,15.5696498 Z M23.5550101,27.9924125 L25.5225657,27.9924125 L25.5225657,17.6793774 L23.5550101,17.6793774 L23.5550101,27.9924125 Z M23.5626869,47.7322957 L25.5315859,47.7322957 L25.5315859,30.1070039 L23.5626869,30.1070039 L23.5626869,47.7322957 Z M27.6607374,47.7385214 C29.4626667,47.6787938 31.067303,47.157393 32.494798,46.0774319 C36.966899,42.6935798 36.8878283,35.8896887 32.3195758,32.6404669 C31.8537879,32.3093385 31.6960303,31.9036965 31.6973737,31.3673152 C31.7031313,29.2924125 31.6893131,27.2173152 31.7033232,25.1424125 C31.7131111,23.6817121 31.3818586,22.3210117 30.6237778,21.0762646 C29.9033131,19.8931907 28.9141616,19.0145914 27.6626566,18.3856031 L27.6626566,28.0317121 C28.0449596,28.0317121 28.3961717,28.0083658 28.7431616,28.0371595 C29.2713232,28.081323 29.6714747,28.564786 29.6611111,29.1013619 C29.6507475,29.6342412 29.2216162,30.0616732 28.6704242,30.0764591 C28.3397475,30.0854086 28.0086869,30.0782101 27.6607374,30.0782101 L27.6607374,47.7385214 Z M21.4661616,18.388716 C21.3604141,18.4301556 21.3011111,18.4455253 21.2494848,18.4749027 C18.8230505,19.844358 17.4719394,21.9194553 17.3926768,24.7464981 C17.3308788,26.9490272 17.3673434,29.1548638 17.3884545,31.3589494 C17.3940202,31.955642 17.1733131,32.3404669 16.7006162,32.6939689 C14.5538081,34.2990272 13.3623737,36.4684825 13.2877172,39.17607 C13.1871515,42.8206226 15.295,45.9328794 18.6553131,47.2324903 C19.5498485,47.5784047 20.4856465,47.7254864 21.4492727,47.731323 L21.4492727,30.0784047 C21.1068889,30.0784047 20.8046162,30.081323 20.5023434,30.077821 C19.8786061,30.0706226 19.4435253,29.668677 19.4262525,29.0873541 C19.4087879,28.5048638 19.8709293,28.0449416 20.5004242,28.0282101 C20.8147879,28.0196498 21.1297273,28.0266537 21.4661616,28.0266537 L21.4661616,18.388716 Z M21.4897677,6.23229572 C21.111303,6.23229572 20.7940606,6.24241245 20.4775859,6.23015564 C19.8759192,6.20719844 19.4247172,5.75505837 19.4256768,5.19085603 C19.4266364,4.62509728 19.871697,4.20038911 20.4912121,4.18385214 C20.7940606,4.17568093 21.097101,4.18229572 21.4446667,4.18229572 L21.4446667,2.06284047 C21.1268485,2.06284047 20.7992424,2.06712062 20.4716364,2.0618677 C19.8640202,2.05233463 19.4210707,1.61750973 19.4245253,1.04085603 C19.4277879,0.492801556 19.864596,0.0190661479 20.4351717,0.0167315175 C23.1692525,0.00583657588 25.9033333,0.00622568093 28.6374141,0.0161478599 C29.2250707,0.0180933852 29.666101,0.501945525 29.6611111,1.07509728 C29.6563131,1.64416342 29.2099091,2.05525292 28.5852121,2.06225681 C28.2854343,2.06575875 27.9856566,2.06284047 27.6586263,2.06284047 L27.6586263,4.18287938 C27.9998586,4.18287938 28.3157576,4.17451362 28.6310808,4.18463035 C29.2225758,4.2036965 29.6401919,4.61206226 29.6607273,5.17801556 C29.6799192,5.71031128 29.2400404,6.18949416 28.671,6.2270428 C28.340899,6.24883268 28.0081111,6.23093385 27.6530606,6.23093385 C27.6434646,6.42354086 27.6304141,6.56536965 27.6302222,6.70700389 C27.6290707,9.68929961 27.6344444,12.6717899 27.6219697,15.6540856 C27.6206263,15.9916342 27.7192727,16.1437743 28.0351717,16.2881323 C31.4380909,17.8418288 33.4202323,20.4861868 33.6879596,24.2807393 C33.8380404,26.4099222 33.7566667,28.5562257 33.7645354,30.6947471 C33.7656869,31.011284 33.8507071,31.2184825 34.1000101,31.431323 C36.8521313,33.7807393 38.0610303,36.8114786 37.8040505,40.4210117 C37.4866162,44.8772374 33.9238283,48.8108949 29.5315657,49.6093385 C28.8439192,49.7342412 28.1370808,49.7947471 27.4381111,49.8036965 C25.4557778,49.8291829 23.4730606,49.8180934 21.4903434,49.8114786 C16.8023333,49.7957198 12.7355657,46.6918288 11.5963333,42.0817121 C10.5496061,37.8461089 11.7575455,34.2607004 15.0259293,31.407393 C15.252202,31.2097276 15.3571818,31.0206226 15.3552626,30.7120623 C15.3429798,28.7184825 15.2963434,26.7229572 15.3633232,24.7317121 C15.4978586,20.727821 17.4863333,17.9560311 21.0347273,16.2992218 C21.3834444,16.1363813 21.500899,15.9747082 21.4987879,15.5920233 C21.4824747,12.6583658 21.4897677,9.72470817 21.4897677,6.79105058 L21.4897677,6.23229572 Z M4.06158586,42.5321595 C4.41529293,42.5321595 4.71507071,42.52107 5.01388889,42.5344942 C5.65278788,42.5630934 6.10475758,42.9951946 6.12145455,43.5778794 C6.13738384,44.1366342 5.662,44.6076459 5.02905051,44.6418872 C4.72850505,44.658035 4.42623232,44.6446109 4.06158586,44.6446109 C4.06158586,45.0053113 4.06177778,45.3239883 4.06158586,45.6428599 C4.0610101,46.6638716 4.06811111,47.6850778 4.05717172,48.7060895 C4.05045455,49.3481128 3.59790909,49.8214591 3.03136364,49.8111479 C2.46424242,49.8010311 2.03453535,49.3212646 2.03165657,48.6743774 C2.02609091,47.5074514 2.02992929,46.3403307 2.02992929,45.1734047 L2.02992929,44.6457782 C1.70443434,44.6457782 1.42116162,44.6531712 1.13846465,44.6444163 C0.44659596,44.622821 0.00671717172,44.2152335 4.87031883e-14,43.5988911 C-0.00671717172,42.9669844 0.411474747,42.5613424 1.11140404,42.533716 C1.39659596,42.5226265 1.68236364,42.531965 2.02992929,42.531965 L2.02992929,41.8854669 C2.02992929,28.3683463 2.0280101,14.8510311 2.0420202,1.33391051 C2.04221212,1.00394942 2.15678788,0.633132296 2.33181818,0.354727626 C2.55713131,-0.00422178988 2.96342424,-0.0723151751 3.36127273,0.068151751 C3.75106061,0.205894942 4.00209091,0.489163424 4.04450505,0.919513619 C4.06657576,1.14461089 4.0610101,1.37282101 4.0610101,1.59947471 C4.06158586,15.0195136 4.06158586,28.4395525 4.06158586,41.8593969 L4.06158586,42.5321595 Z M19.8879909,37.5406031 C19.7569101,37.153249 19.5793848,36.4499416 19.2830616,35.8026654 C18.9848192,35.1516926 18.3777788,34.9610311 17.8565263,35.2378794 C17.3137788,35.5264008 17.1700313,36.132821 17.4907283,36.7814591 C18.0511323,37.9149222 17.8663141,38.8042218 16.9013444,39.6172568 C16.3979404,40.0411868 16.2998697,40.5878794 16.6407182,41.068035 C16.9880919,41.5571401 17.5903343,41.6487743 18.1181121,41.2690078 C19.2684758,40.4411868 19.8054657,39.2826265 19.8879909,37.5406031 Z M29.3301273,37.8724514 C29.3328141,39.2662257 30.0010768,40.5629183 31.0973192,41.3002724 C31.5863293,41.6292607 32.1743697,41.5510506 32.5117636,41.1125292 C32.8689253,40.6479377 32.7900465,40.0438521 32.3204202,39.6475486 C31.2951879,38.7827626 31.1122889,37.9205058 31.7037838,36.7421012 C32.0079758,36.13607 31.8793899,35.5664202 31.3692687,35.2611673 C30.8702788,34.9623346 30.2904909,35.1405447 29.9364,35.7111673 C29.5270364,36.3707004 29.3295515,37.0936576 29.3301273,37.8724514 Z" id="Combined-Shape"></path>
            </g>
        </g>
    </g>
</svg>