<?xml version="1.0" encoding="UTF-8"?>
<svg width="36px" height="50px" viewBox="0 0 36 50" version="1.1" xmlns="http://www.w3.org/2000/svg" xmlns:xlink="http://www.w3.org/1999/xlink">
    <!-- Generator: Sketch 48.2 (47327) - http://www.bohemiancoding.com/sketch -->
    <title>women dress</title>
    <desc>Created with Sketch.</desc>
    <defs></defs>
    <g id="Desktop-HD-Copy-2" stroke="none" stroke-width="1" fill="none" fill-rule="evenodd" transform="translate(-400.000000, -593.000000)">
        <g id="Group" transform="translate(335.000000, 192.000000)" fill="#FFFFFF">
            <g id="women-dress" transform="translate(65.666667, 401.000000)">
                <path d="M22.1315411,15.6063683 C22.1425007,15.4813683 22.1520462,15.386837 22.1587634,15.2919151 C22.252627,13.996212 22.2738391,12.6880089 22.4553795,11.4075401 C22.7868189,9.06964951 23.2110613,6.74796982 23.6008341,4.42023545 C23.760632,3.46515732 23.2057583,2.44015732 22.3680563,2.16222764 C21.5296472,1.88429795 20.7165159,2.24972764 20.2300512,3.1475792 C18.8721219,5.65480576 17.522324,8.16730576 16.1652785,10.6751183 C16.0608088,10.868087 15.9499755,11.0717979 15.7991926,11.2155479 C15.4619199,11.5370323 14.9190664,11.5085167 14.5807331,11.1891808 C14.2432836,10.8704308 14.1639149,10.3473839 14.420228,9.8600792 C14.9957836,8.76554795 15.5948492,7.68586045 16.1688139,6.59015732 C16.245531,6.44367295 16.3111118,6.18996201 16.2488896,6.07023545 C15.6936623,5.00031357 15.1416169,3.92511826 14.5216926,2.9007042 C14.0438896,2.11105576 13.1179805,1.87843857 12.365127,2.2444542 C11.580632,2.62589951 11.1703543,3.54796982 11.3453543,4.53566514 C11.4243694,4.98136826 11.5146977,5.42492295 11.579925,5.87296982 C11.9269199,8.25773545 12.2839906,10.6411339 12.6012886,13.0307823 C12.7135361,13.8753136 12.7236118,14.7366417 12.7814149,15.6063683 L22.1315411,15.6063683 Z M19.6062381,47.9370323 C19.4363644,47.7643761 19.3582331,47.6731651 19.2696724,47.5969933 C15.0944199,44.0048058 11.9817179,39.5108604 9.92785426,34.1257042 C9.59800578,33.2610558 9.31606133,32.3714073 9.0586876,31.4768761 C8.90507649,30.9432823 9.18631386,30.4286339 9.6301775,30.2710167 C10.1159351,30.0985558 10.6022229,30.321212 10.8074502,30.8255089 C10.8914149,31.0315636 10.9456825,31.252462 11.0139149,31.4663292 C13.2243947,38.3813683 17.1424502,43.7966026 22.7353795,47.7344933 C22.9082583,47.8561729 23.1419452,47.9268761 23.3477027,47.9284386 C25.2622735,47.9428917 27.1771977,47.9520714 29.0914149,47.9260948 C29.5552533,47.9196495 30.0404805,47.8514854 30.4765664,47.6856651 C32.6527533,46.8589073 33.5945714,44.3042198 32.6046724,41.9286339 C29.2893947,33.9723839 25.962627,26.0221886 22.6485866,18.0651573 C22.5246724,17.7675011 22.375127,17.6762901 22.0838139,17.6782433 C19.9040916,17.6926964 17.7243694,17.6856651 15.5446472,17.6870323 C15.4161371,17.6872276 15.287627,17.7018761 15.1396724,17.7110558 C15.1318947,17.8157433 15.1188139,17.893087 15.1212886,17.9700401 C15.1889906,19.9889854 15.4338139,21.9831261 15.8729048,23.9432823 C17.37543,30.6495323 20.4893694,36.2684776 25.2797735,40.7141808 C26.3787381,41.7341026 27.6097482,42.5819542 28.7912634,43.4915245 C29.4548492,44.0022667 29.4693442,44.9264854 28.7925007,45.3092979 C28.4371977,45.5100792 28.1057583,45.4675011 27.7539906,45.2315636 C23.4010866,42.3114464 19.9466926,38.4159386 17.3600512,33.5758995 C15.1463896,29.433712 13.8289401,24.964962 13.387728,20.1807823 C13.3120714,19.3610558 13.2539149,18.5393761 13.1883341,17.7255089 C12.4522735,17.6348839 12.4545714,17.6360558 12.1733341,18.3092979 C9.8242684,23.9354698 7.47378861,29.5610558 5.12436941,35.1872276 C4.1526775,37.5143761 3.15747548,39.8300011 2.21989972,42.1737511 C1.50151588,43.9696495 1.99664214,45.9354698 3.39222295,47.1012901 C4.12545527,47.7137901 4.97429366,47.9358604 5.87810679,47.9362511 C10.2964149,47.9378136 14.7147229,47.9370323 19.133031,47.9370323 L19.6062381,47.9370323 Z M17.4646977,4.20910264 C17.8845209,3.42804795 18.2476017,2.72277451 18.6359603,2.0350792 C20.1692432,-0.680155176 23.600127,-0.669803614 25.0223997,2.04875107 C25.6407331,3.23078232 25.5429805,4.46046982 25.2905563,5.7335167 C24.7657331,8.38156357 24.2806825,11.0401573 24.1159351,13.7534386 C24.0676775,14.5483604 24.0383341,15.3458214 24.032324,16.1425011 C24.0305563,16.3729698 24.1120462,16.6186729 24.2018442,16.8339073 C27.5568947,24.8766808 30.9214906,32.9145714 34.2744199,40.9585167 C35.3136371,43.4512901 35.0988644,45.802462 33.4607583,47.9020714 C32.379824,49.2872276 30.9769957,49.9969933 29.3033593,49.9969933 C21.3949502,49.9973839 13.4867179,49.9975792 5.57830881,49.9969933 C1.64699568,49.9967979 -1.1252518,45.4628136 0.448510829,41.4755089 C1.94431891,37.6850792 3.56633911,33.9553917 5.13444517,30.1999229 C6.99174315,25.7522667 8.85434416,21.3071495 10.6999755,16.8536339 C10.8221219,16.5591026 10.8698492,16.2020714 10.8693189,15.8741417 C10.8645462,12.1286339 10.1532331,8.48957139 9.48063204,4.84562607 C9.13116234,2.95246201 10.0372735,1.09406357 11.7050765,0.303243261 C13.2335866,-0.421366114 15.1398492,0.189571386 16.0848492,1.74171982 C16.557526,2.51847764 16.9778795,3.33410264 17.4646977,4.20910264 L17.4646977,4.20910264 Z" id="Fill-1"></path>
            </g>
        </g>
    </g>
</svg>